# This file uses centimeters as units for non-parametric coordinates.

mtllib bridgeCol_01.mtl
g default
v -0.677174 0.144000 -0.817000
v -0.677174 0.253387 -0.817000
v -0.674476 0.353010 -0.422058
v -0.674428 0.243842 -0.415135
v -0.671826 0.406200 -0.034216
v -0.671779 0.297032 -0.027292
v -0.668121 0.419607 0.328331
v -0.668121 0.310220 0.328331
v -0.679649 0.022062 -1.179254
v -0.679563 0.144994 -1.122088
v -0.681697 0.001422 -1.479103
v 0.715130 0.144000 -0.817000
v 0.712385 0.243842 -0.415135
v 0.712431 0.353010 -0.422058
v 0.715130 0.253387 -0.817000
v 0.709735 0.297032 -0.027292
v 0.709781 0.406200 -0.034216
v 0.706077 0.310220 0.328331
v 0.706077 0.419607 0.328331
v 0.717519 0.144994 -1.122088
v 0.717604 0.022062 -1.179254
v 0.719654 0.001422 -1.479103
v -0.677174 0.144000 1.473662
v -0.674428 0.243842 1.071796
v -0.674476 0.353010 1.078720
v -0.677174 0.253387 1.473662
v -0.671779 0.297032 0.683954
v -0.671826 0.406200 0.690878
v -0.679563 0.144994 1.778749
v -0.679649 0.022062 1.835917
v -0.681697 0.001422 2.135765
v 0.715130 0.144000 1.473662
v 0.715130 0.253387 1.473662
v 0.712431 0.353010 1.078720
v 0.712385 0.243842 1.071796
v 0.709781 0.406200 0.690878
v 0.709735 0.297032 0.683954
v 0.717604 0.022062 1.835917
v 0.717519 0.144994 1.778749
v 0.719654 0.001422 2.135765
v 0.469699 0.001422 2.135765
v 0.468326 0.144994 1.778749
v 0.466789 0.253387 1.473662
v 0.465053 0.353010 1.078720
v 0.463349 0.406200 0.690878
v 0.460965 0.419607 0.328331
v 0.463349 0.406200 -0.034216
v 0.465053 0.353010 -0.422058
v 0.466789 0.253387 -0.817000
v 0.468326 0.144994 -1.122088
v 0.469699 0.001422 -1.479103
v -0.430258 0.001422 2.135765
v -0.428890 0.144994 1.778749
v -0.427358 0.253387 1.473662
v -0.425628 0.353010 1.078720
v -0.423929 0.406200 0.690878
v -0.421554 0.419607 0.328331
v -0.423929 0.406200 -0.034216
v -0.425628 0.353010 -0.422058
v -0.427358 0.253387 -0.817000
v -0.428890 0.144994 -1.122088
v -0.430258 0.001422 -1.479103
v -0.679563 0.451142 -1.122088
v -0.428890 0.451142 -1.122088
v -0.430258 0.307570 -1.479103
v -0.681697 0.307570 -1.479103
v -0.677174 0.559535 -0.817000
v -0.427358 0.559535 -0.817000
v -0.674476 0.659158 -0.422058
v -0.425628 0.659158 -0.422058
v -0.671826 0.712348 -0.034216
v -0.423929 0.712348 -0.034216
v -0.421554 0.725755 0.328331
v -0.668121 0.725755 0.328331
v -0.681697 0.307570 2.135765
v -0.679563 0.451142 1.778749
v -0.430258 0.307570 2.135765
v -0.428890 0.451142 1.778749
v -0.677174 0.559535 1.473662
v -0.427358 0.559535 1.473662
v -0.674476 0.659158 1.078720
v -0.425628 0.659158 1.078720
v -0.671826 0.712348 0.690878
v -0.423929 0.712348 0.690878
v 0.469699 0.307570 2.135765
v 0.468326 0.451142 1.778749
v 0.719654 0.307570 2.135765
v 0.717519 0.451142 1.778749
v 0.466789 0.559535 1.473662
v 0.715130 0.559535 1.473662
v 0.465053 0.659158 1.078720
v 0.712431 0.659158 1.078720
v 0.463349 0.712348 0.690878
v 0.709781 0.712348 0.690878
v 0.460965 0.725755 0.328331
v 0.706077 0.725755 0.328331
v 0.709781 0.712348 -0.034216
v 0.463349 0.712348 -0.034216
v 0.465053 0.659158 -0.422058
v 0.712431 0.659158 -0.422058
v 0.466789 0.559535 -0.817000
v 0.715130 0.559535 -0.817000
v 0.468326 0.451142 -1.122088
v 0.717519 0.451142 -1.122088
v 0.469699 0.307570 -1.479103
v 0.719654 0.307570 -1.479103
vt 0.675961 0.187832
vt 0.675793 0.299068
vt 0.647179 0.302565
vt 0.647917 0.195451
vt 0.675531 0.404752
vt 0.646675 0.405345
vt 0.675068 0.500724
vt 0.646060 0.500724
vt 0.647938 0.099800
vt 0.677525 0.084115
vt 0.649176 0.008768
vt 0.010917 0.042941
vt 0.341436 0.187832
vt 0.369480 0.195451
vt 0.370217 0.302565
vt 0.341603 0.299068
vt 0.370722 0.405345
vt 0.341866 0.404752
vt 0.371337 0.500724
vt 0.342329 0.500724
vt 0.339873 0.084115
vt 0.369459 0.099800
vt 0.368220 0.008768
vt 0.012639 0.390620
vt 0.317769 0.390607
vt 0.316949 0.494641
vt 0.013435 0.494645
vt 0.012057 0.276186
vt 0.318358 0.276167
vt 0.011454 0.155139
vt 0.318967 0.155120
vt 0.319501 0.042930
vt 0.626855 0.099800
vt 0.627905 0.008768
vt 0.626837 0.195451
vt 0.626211 0.302565
vt 0.625783 0.405345
vt 0.625261 0.500724
vt 0.675961 0.813612
vt 0.647917 0.805993
vt 0.647179 0.698880
vt 0.675793 0.702377
vt 0.646675 0.596102
vt 0.675531 0.596695
vt 0.677523 0.917328
vt 0.647937 0.901643
vt 0.649176 0.992676
vt 0.012614 0.598671
vt 0.317745 0.598673
vt 0.012013 0.713109
vt 0.318314 0.713109
vt 0.011398 0.834164
vt 0.318911 0.834148
vt 0.010888 0.935872
vt 0.319423 0.935852
vt 0.627905 0.992676
vt 0.626854 0.901643
vt 0.626837 0.805993
vt 0.626211 0.698880
vt 0.625783 0.596102
vt 0.341436 0.813612
vt 0.341603 0.702377
vt 0.370217 0.698881
vt 0.369480 0.805994
vt 0.341866 0.596695
vt 0.370722 0.596102
vt 0.369459 0.901644
vt 0.339873 0.917329
vt 0.368220 0.992677
vt 0.390152 0.901644
vt 0.389097 0.992677
vt 0.390170 0.805994
vt 0.390797 0.698881
vt 0.391227 0.596102
vt 0.391751 0.500724
vt 0.391227 0.405345
vt 0.390797 0.302565
vt 0.390170 0.195451
vt 0.390152 0.099800
vt 0.389097 0.008768
vt 0.626855 0.099800
vt 0.627905 0.008768
vt 0.649176 0.008768
vt 0.647938 0.099800
vt 0.626837 0.195451
vt 0.647917 0.195451
vt 0.626211 0.302565
vt 0.647179 0.302565
vt 0.625783 0.405345
vt 0.646675 0.405345
vt 0.625261 0.500724
vt 0.646060 0.500724
vt 0.647937 0.901643
vt 0.649176 0.992676
vt 0.627905 0.992676
vt 0.626854 0.901643
vt 0.647917 0.805993
vt 0.626837 0.805993
vt 0.647179 0.698880
vt 0.626211 0.698880
vt 0.646675 0.596102
vt 0.625783 0.596102
vt 0.390152 0.901644
vt 0.389097 0.992677
vt 0.368220 0.992677
vt 0.369459 0.901644
vt 0.390170 0.805994
vt 0.369480 0.805994
vt 0.390797 0.698881
vt 0.370217 0.698881
vt 0.391227 0.596102
vt 0.370722 0.596102
vt 0.391751 0.500724
vt 0.371337 0.500724
vt 0.370722 0.405345
vt 0.391227 0.405345
vt 0.390797 0.302565
vt 0.370217 0.302565
vt 0.390170 0.195451
vt 0.369480 0.195451
vt 0.390152 0.099800
vt 0.369459 0.099800
vt 0.389097 0.008768
vt 0.368220 0.008768
vt 0.000000 1.000000
vt 0.929565 1.000000
vt 0.922735 0.000000
vt 0.000000 1.000000
vt 0.924077 1.000000
vt 0.006836 0.000000
vt 0.000000 0.000000
vt 0.836573 0.000000
vt 0.006815 1.000000
vt 0.000000 0.000000
vt 0.831634 0.000000
vt 0.824815 1.000000
vt 0.000000 0.215107
vt 1.000000 0.215107
vt 0.821513 0.000000
vt 0.177423 0.000000
vt 0.000000 0.000000
vt 1.000000 0.000000
vt 0.822577 0.215106
vt 0.178487 0.215106
vn -0.999987 0.000000 0.005097
vn -0.999987 0.000000 0.005097
vn -0.999987 0.000000 0.005097
vn -0.999987 0.000000 0.005097
vn -0.999987 0.000000 0.005097
vn -0.999987 0.000000 0.005097
vn -0.999987 0.000000 0.005097
vn -0.999987 0.000000 0.005097
vn -0.999971 0.000000 0.007660
vn -0.999971 0.000000 0.007660
vn -0.999971 0.000000 0.007660
vn -0.999971 0.000000 0.007660
vn -0.999987 0.000000 0.005097
vn -0.999987 0.000000 0.005097
vn -0.999987 0.000000 0.005097
vn -0.999987 0.000000 0.005097
vn -0.999987 0.000000 0.005097
vn -0.999987 0.000000 0.005097
vn -0.999987 0.000000 0.005097
vn 0.999987 0.000000 0.005097
vn 0.999987 0.000000 0.005097
vn 0.999987 0.000000 0.005097
vn 0.999987 0.000000 0.005097
vn 0.999987 0.000000 0.005097
vn 0.999987 0.000000 0.005097
vn 0.999987 0.000000 0.005097
vn 0.999987 0.000000 0.005097
vn 0.999971 0.000000 0.007660
vn 0.999971 0.000000 0.007660
vn 0.999971 0.000000 0.007660
vn 0.999971 0.000000 0.007660
vn 0.999987 0.000000 0.005097
vn 0.999987 0.000000 0.005097
vn 0.999987 0.000000 0.005097
vn 0.999987 0.000000 0.005097
vn 0.999987 0.000000 0.005097
vn 0.999987 0.000000 0.005097
vn 0.999987 0.000000 0.005097
vn 0.000092 -0.999313 0.037052
vn -0.000092 -0.999313 0.037052
vn -0.000092 -0.999313 0.037052
vn 0.000092 -0.999313 0.037052
vn 0.000580 -0.990737 0.135791
vn -0.000580 -0.990737 0.135791
vn -0.000580 -0.990737 0.135791
vn 0.000580 -0.990737 0.135791
vn 0.001099 -0.970498 0.241107
vn -0.001099 -0.970498 0.241107
vn -0.001099 -0.970498 0.241107
vn 0.001099 -0.970498 0.241107
vn 0.001343 -0.956708 0.291047
vn -0.001343 -0.956708 0.291047
vn -0.001343 -0.956708 0.291047
vn 0.001343 -0.956708 0.291047
vn -0.002014 0.902232 -0.431247
vn 0.000000 0.927788 -0.373107
vn 0.000000 0.927788 -0.373107
vn -0.002014 0.902232 -0.431247
vn -0.001282 0.959575 -0.281451
vn 0.000000 0.942296 -0.334782
vn 0.000000 0.942296 -0.334782
vn -0.001282 0.959575 -0.281451
vn -0.001099 0.969630 -0.244574
vn 0.000000 0.969628 -0.244586
vn 0.000000 0.969628 -0.244586
vn -0.001099 0.969630 -0.244574
vn -0.000580 0.990737 -0.135791
vn 0.000000 0.990727 -0.135872
vn 0.000000 0.990726 -0.135872
vn -0.000580 0.990737 -0.135791
vn -0.000000 0.999317 -0.036955
vn -0.000000 0.999317 -0.036955
vn -0.000092 0.999318 -0.036930
vn -0.000092 0.999318 -0.036930
vn -0.999987 0.000000 -0.005097
vn -0.999987 0.000000 -0.005097
vn -0.999987 0.000000 -0.005097
vn -0.999987 0.000000 -0.005097
vn -0.999987 0.000000 -0.005097
vn -0.999987 0.000000 -0.005097
vn -0.999987 0.000000 -0.005097
vn -0.999987 0.000000 -0.005097
vn -0.999971 0.000000 -0.007660
vn -0.999971 0.000000 -0.007660
vn -0.999971 0.000000 -0.007660
vn -0.999971 0.000000 -0.007660
vn -0.999987 0.000000 -0.005097
vn -0.999987 0.000000 -0.005097
vn -0.999987 0.000000 -0.005097
vn -0.999987 0.000000 -0.005097
vn -0.999987 0.000000 -0.005097
vn -0.999987 0.000000 -0.005097
vn -0.999987 0.000000 -0.005097
vn 0.000092 -0.999313 -0.037052
vn 0.000092 -0.999313 -0.037052
vn -0.000092 -0.999313 -0.037052
vn -0.000092 -0.999313 -0.037052
vn 0.000580 -0.990737 -0.135791
vn 0.000580 -0.990737 -0.135791
vn -0.000580 -0.990737 -0.135791
vn -0.000580 -0.990737 -0.135791
vn 0.001099 -0.970498 -0.241107
vn 0.001099 -0.970498 -0.241107
vn -0.001099 -0.970498 -0.241107
vn -0.001099 -0.970498 -0.241107
vn -0.001343 -0.956708 -0.291047
vn 0.001343 -0.956708 -0.291047
vn 0.001343 -0.956708 -0.291047
vn -0.001343 -0.956708 -0.291047
vn -0.002014 0.902232 0.431247
vn -0.002014 0.902232 0.431247
vn 0.000000 0.927789 0.373106
vn 0.000000 0.927789 0.373106
vn -0.001282 0.959575 0.281451
vn -0.001282 0.959575 0.281451
vn 0.000000 0.942295 0.334783
vn 0.000000 0.942295 0.334783
vn -0.001099 0.969630 0.244574
vn -0.001099 0.969630 0.244574
vn 0.000000 0.969628 0.244586
vn 0.000000 0.969628 0.244586
vn -0.000580 0.990737 0.135791
vn -0.000580 0.990737 0.135791
vn 0.000000 0.990726 0.135872
vn 0.000000 0.990727 0.135872
vn 0.000000 0.999317 0.036955
vn -0.000092 0.999318 0.036930
vn -0.000092 0.999318 0.036930
vn 0.000000 0.999317 0.036955
vn 0.999987 0.000000 -0.005097
vn 0.999987 0.000000 -0.005097
vn 0.999987 0.000000 -0.005097
vn 0.999987 0.000000 -0.005097
vn 0.999987 0.000000 -0.005097
vn 0.999987 0.000000 -0.005097
vn 0.999987 0.000000 -0.005097
vn 0.999987 0.000000 -0.005097
vn 0.999971 0.000000 -0.007660
vn 0.999971 0.000000 -0.007660
vn 0.999971 0.000000 -0.007660
vn 0.999971 0.000000 -0.007660
vn 0.999987 0.000000 -0.005097
vn 0.999987 0.000000 -0.005097
vn 0.999987 0.000000 -0.005097
vn 0.999987 0.000000 -0.005097
vn 0.999987 0.000000 -0.005097
vn 0.999987 0.000000 -0.005097
vn 0.999987 0.000000 -0.005097
vn 0.000000 0.927789 0.373106
vn 0.000000 0.927789 0.373106
vn 0.002014 0.902232 0.431247
vn 0.002014 0.902232 0.431247
vn 0.000000 0.942295 0.334783
vn 0.000000 0.942295 0.334783
vn 0.001282 0.959575 0.281451
vn 0.001282 0.959575 0.281451
vn 0.000000 0.969628 0.244586
vn 0.000000 0.969628 0.244586
vn 0.001099 0.969630 0.244574
vn 0.001099 0.969630 0.244574
vn 0.000000 0.990726 0.135872
vn 0.000000 0.990726 0.135872
vn 0.000580 0.990737 0.135791
vn 0.000580 0.990737 0.135791
vn 0.000092 0.999318 0.036930
vn 0.000000 0.999317 0.036955
vn 0.000000 0.999317 0.036955
vn 0.000092 0.999318 0.036930
vn 0.000092 0.999318 -0.036930
vn 0.000092 0.999318 -0.036930
vn 0.000000 0.999317 -0.036955
vn 0.000000 0.999317 -0.036955
vn 0.000000 0.990726 -0.135872
vn 0.000000 0.990726 -0.135872
vn 0.000580 0.990737 -0.135791
vn 0.000580 0.990737 -0.135791
vn 0.000000 0.969628 -0.244586
vn 0.000000 0.969628 -0.244586
vn 0.001099 0.969630 -0.244574
vn 0.001099 0.969630 -0.244574
vn 0.000000 0.942296 -0.334782
vn 0.000000 0.942296 -0.334782
vn 0.001282 0.959575 -0.281451
vn 0.001282 0.959575 -0.281451
vn 0.000000 0.927788 -0.373107
vn 0.000000 0.927788 -0.373107
vn 0.002014 0.902232 -0.431247
vn 0.002014 0.902232 -0.431247
vn 0.000000 0.927789 0.373106
vn 0.000000 0.927789 0.373106
vn 0.000000 0.927789 0.373106
vn 0.000000 0.927789 0.373106
vn 0.000000 0.942295 0.334783
vn 0.000000 0.942295 0.334783
vn 0.000000 0.942295 0.334783
vn 0.000000 0.942295 0.334783
vn 0.000000 0.969628 0.244586
vn 0.000000 0.969628 0.244586
vn 0.000000 0.969628 0.244586
vn 0.000000 0.969628 0.244586
vn 0.000000 0.990727 0.135872
vn 0.000000 0.990727 0.135872
vn 0.000000 0.990726 0.135872
vn 0.000000 0.990727 0.135872
vn 0.000000 0.999317 0.036955
vn 0.000000 0.999317 0.036955
vn 0.000000 0.999317 0.036955
vn 0.000000 0.999317 0.036955
vn 0.000000 0.999317 -0.036955
vn 0.000000 0.999317 -0.036955
vn 0.000000 0.999317 -0.036955
vn 0.000000 0.999317 -0.036955
vn 0.000000 0.990727 -0.135872
vn 0.000000 0.990727 -0.135872
vn 0.000000 0.990727 -0.135872
vn 0.000000 0.990726 -0.135872
vn 0.000000 0.969628 -0.244586
vn 0.000000 0.969628 -0.244586
vn 0.000000 0.969628 -0.244586
vn 0.000000 0.969628 -0.244586
vn 0.000000 0.942296 -0.334782
vn 0.000000 0.942296 -0.334782
vn 0.000000 0.942296 -0.334782
vn 0.000000 0.942296 -0.334782
vn 0.000000 0.927788 -0.373107
vn 0.000000 0.927788 -0.373107
vn 0.000000 0.927788 -0.373107
vn 0.000000 0.927788 -0.373107
vn 0.999993 0.000000 -0.003831
vn 0.999993 0.000000 -0.003831
vn 0.999993 0.000000 -0.003831
vn 0.999993 0.000000 -0.003831
vn 0.000000 0.000000 -1.000000
vn 0.000000 0.000000 -1.000000
vn -0.002014 0.902232 -0.431247
vn 0.000000 0.000000 -1.000000
vn -0.999982 0.000000 0.005976
vn -0.999982 0.000000 0.005976
vn -0.002014 0.902232 -0.431247
vn -0.002014 0.902232 -0.431247
vn 0.999987 0.000000 -0.005020
vn 0.999987 0.000000 -0.005020
vn 0.999987 0.000000 -0.005020
vn 0.999987 0.000000 -0.005020
vn -0.999969 0.000000 0.007830
vn -0.999969 0.000000 0.007830
vn -0.001282 0.959575 -0.281451
vn -0.001282 0.959575 -0.281451
vn 0.999990 0.000000 -0.004381
vn 0.999990 0.000000 -0.004381
vn 0.999990 0.000000 -0.004381
vn 0.999990 0.000000 -0.004381
vn -0.999977 0.000000 0.006833
vn -0.999977 0.000000 0.006833
vn -0.001099 0.969630 -0.244574
vn -0.001099 0.969630 -0.244574
vn 0.999990 0.000000 -0.004380
vn 0.999990 0.000000 -0.004380
vn 0.999990 0.000000 -0.004380
vn 0.999990 0.000000 -0.004380
vn -0.999977 0.000000 0.006832
vn -0.999977 0.000000 0.006832
vn -0.000580 0.990737 -0.135791
vn -0.000580 0.990737 -0.135791
vn 0.999979 0.000000 -0.006551
vn 0.999979 0.000000 -0.006551
vn 0.999979 0.000000 -0.006551
vn 0.999979 0.000000 -0.006551
vn -0.999948 0.000000 0.010218
vn -0.999948 0.000000 0.010218
vn -0.000092 0.999318 -0.036930
vn -0.000092 0.999318 -0.036930
vn -0.999982 0.000000 -0.005976
vn -0.999982 0.000000 -0.005976
vn -0.002014 0.902232 0.431247
vn -0.002014 0.902232 0.431247
vn 0.000000 0.000000 1.000000
vn 0.000000 0.000000 1.000000
vn 0.000000 0.000000 1.000000
vn -0.002014 0.902232 0.431247
vn 0.999993 0.000000 0.003831
vn 0.999993 0.000000 0.003831
vn 0.999993 0.000000 0.003831
vn 0.999993 0.000000 0.003831
vn -0.999969 0.000000 -0.007830
vn -0.999969 0.000000 -0.007830
vn -0.001282 0.959575 0.281451
vn -0.001282 0.959575 0.281451
vn 0.999987 0.000000 0.005020
vn 0.999987 0.000000 0.005020
vn 0.999987 0.000000 0.005020
vn 0.999987 0.000000 0.005020
vn -0.999977 0.000000 -0.006833
vn -0.999977 0.000000 -0.006833
vn -0.001099 0.969630 0.244574
vn -0.001099 0.969630 0.244574
vn 0.999990 0.000000 0.004381
vn 0.999990 0.000000 0.004381
vn 0.999990 0.000000 0.004381
vn 0.999990 0.000000 0.004381
vn -0.999977 0.000000 -0.006832
vn -0.999977 0.000000 -0.006832
vn -0.000580 0.990737 0.135791
vn -0.000580 0.990737 0.135791
vn 0.999990 0.000000 0.004380
vn 0.999990 0.000000 0.004380
vn 0.999990 0.000000 0.004380
vn 0.999990 0.000000 0.004380
vn -0.999948 0.000000 -0.010218
vn -0.999948 0.000000 -0.010218
vn -0.000092 0.999318 0.036930
vn -0.000092 0.999318 0.036930
vn 0.999979 0.000000 0.006551
vn 0.999979 0.000000 0.006551
vn 0.999979 0.000000 0.006551
vn 0.999979 0.000000 0.006551
vn -0.999993 0.000000 0.003847
vn -0.999993 0.000000 0.003847
vn -0.999993 0.000000 0.003847
vn -0.999993 0.000000 0.003847
vn 0.000000 0.000000 1.000000
vn 0.000000 0.000000 1.000000
vn 0.002014 0.902232 0.431247
vn 0.000000 0.000000 1.000000
vn 0.999982 0.000000 -0.005980
vn 0.999982 0.000000 -0.005980
vn 0.002014 0.902232 0.431247
vn 0.002014 0.902232 0.431247
vn -0.999987 0.000000 0.005037
vn -0.999987 0.000000 0.005037
vn -0.999987 0.000000 0.005037
vn -0.999987 0.000000 0.005037
vn 0.999969 0.000000 -0.007830
vn 0.999969 0.000000 -0.007830
vn 0.001282 0.959575 0.281451
vn 0.001282 0.959575 0.281451
vn -0.999990 0.000000 0.004395
vn -0.999990 0.000000 0.004396
vn -0.999990 0.000000 0.004395
vn -0.999990 0.000000 0.004396
vn 0.999977 0.000000 -0.006833
vn 0.999977 0.000000 -0.006833
vn 0.001099 0.969630 0.244574
vn 0.001099 0.969630 0.244574
vn -0.999990 0.000000 0.004395
vn -0.999990 0.000000 0.004395
vn -0.999990 0.000000 0.004395
vn -0.999990 0.000000 0.004395
vn 0.999977 0.000000 -0.006832
vn 0.999977 0.000000 -0.006832
vn 0.000580 0.990737 0.135791
vn 0.000580 0.990737 0.135791
vn -0.999978 0.000000 0.006573
vn -0.999978 0.000000 0.006573
vn -0.999978 0.000000 0.006573
vn -0.999978 0.000000 0.006573
vn 0.999948 0.000000 -0.010218
vn 0.999948 0.000000 -0.010218
vn 0.000092 0.999318 0.036930
vn 0.000092 0.999318 0.036930
vn 0.999948 0.000000 0.010218
vn 0.999948 0.000000 0.010218
vn 0.000092 0.999318 -0.036930
vn 0.000092 0.999318 -0.036930
vn -0.999978 0.000000 -0.006573
vn -0.999978 0.000000 -0.006573
vn -0.999978 0.000000 -0.006573
vn -0.999978 0.000000 -0.006573
vn -0.999990 0.000000 -0.004395
vn -0.999990 0.000000 -0.004395
vn -0.999990 0.000000 -0.004395
vn -0.999990 0.000000 -0.004395
vn 0.999977 0.000000 0.006832
vn 0.999977 0.000000 0.006832
vn 0.000580 0.990737 -0.135791
vn 0.000580 0.990737 -0.135791
vn -0.999990 0.000000 -0.004396
vn -0.999990 0.000000 -0.004396
vn -0.999990 0.000000 -0.004396
vn -0.999990 0.000000 -0.004396
vn 0.999977 0.000000 0.006833
vn 0.999977 0.000000 0.006833
vn 0.001099 0.969630 -0.244574
vn 0.001099 0.969630 -0.244574
vn -0.999987 0.000000 -0.005037
vn -0.999987 0.000000 -0.005037
vn -0.999987 0.000000 -0.005037
vn -0.999987 0.000000 -0.005037
vn 0.999969 0.000000 0.007830
vn 0.999969 0.000000 0.007830
vn 0.001282 0.959575 -0.281451
vn 0.001282 0.959575 -0.281451
vn -0.999993 0.000000 -0.003847
vn -0.999993 0.000000 -0.003847
vn -0.999993 0.000000 -0.003847
vn -0.999993 0.000000 -0.003847
vn 0.999982 0.000000 0.005980
vn 0.999982 0.000000 0.005980
vn 0.002014 0.902232 -0.431247
vn 0.002014 0.902232 -0.431247
vn 0.000000 0.000000 -1.000000
vn 0.000000 0.000000 -1.000000
vn 0.000000 0.000000 -1.000000
vn 0.002014 0.902232 -0.431247
vn 0.000000 -0.997639 -0.068672
vn 0.000000 -0.997639 -0.068672
vn 0.000000 -0.997639 -0.068672
vn 0.000000 -0.997639 -0.068672
vn 0.000000 -0.997639 -0.068672
vn 0.000000 -0.997639 -0.068672
vn 0.000000 -0.997639 0.068672
vn 0.000000 -0.997639 0.068672
vn 0.000000 -0.997639 0.068672
vn 0.000000 -0.997639 0.068672
vn 0.000000 -0.997639 0.068672
vn 0.000000 -0.997639 0.068672
vn 0.000000 -0.997639 0.068672
vn 0.000000 -0.997639 0.068672
vn 0.000000 -0.997639 0.068672
vn 0.000000 -0.997639 0.068672
vn 0.000000 -0.997639 -0.068672
vn 0.000000 -0.997639 -0.068672
vn 0.000000 -0.997639 -0.068672
vn 0.000000 -0.997639 -0.068672
s off
g bridgecol
usemtl bridge_01:bridge_01_initialShadingGroup
f 1/1/1 4/2/2 3/3/3 2/4/4
f 3/3/5 4/2/6 6/5/7 5/6/8
f 5/6/9 6/5/10 8/7/11 7/8/12
f 1/1/13 2/4/14 10/9/15 9/10/16
f 9/10/17 10/9/18 11/11/19
f 12/13/20 15/14/21 14/15/22 13/16/23
f 14/15/24 17/17/25 16/18/26 13/16/27
f 17/17/28 19/19/29 18/20/30 16/18/31
f 12/13/32 21/21/33 20/22/34 15/14/35
f 21/21/36 22/23/37 20/22/38
f 6/24/39 16/25/40 18/26/41 8/27/42
f 4/28/43 13/29/44 16/25/45 6/24/46
f 1/30/47 12/31/48 13/29/49 4/28/50
f 9/12/51 21/32/52 12/31/53 1/30/54
f 63/84/55 64/81/56 65/82/57 66/83/58
f 67/86/59 68/85/60 64/81/61 63/84/62
f 69/88/63 70/87/64 68/85/65 67/86/66
f 71/90/67 72/89/68 70/87/69 69/88/70
f 73/91/71 72/89/72 71/90/73 74/92/74
f 23/39/75 26/40/76 25/41/77 24/42/78
f 25/41/79 28/43/80 27/44/81 24/42/82
f 28/43/83 7/8/84 8/7/85 27/44/86
f 23/39/87 30/45/88 29/46/89 26/40/90
f 30/45/91 31/47/92 29/46/93
f 27/48/94 8/27/95 18/26/96 37/49/97
f 24/50/98 27/48/99 37/49/100 35/51/101
f 23/52/102 24/50/103 35/51/104 32/53/105
f 38/55/106 30/54/107 23/52/108 32/53/109
f 76/93/110 75/94/111 77/95/112 78/96/113
f 79/97/114 76/93/115 78/96/116 80/98/117
f 81/99/118 79/97/119 80/98/120 82/100/121
f 83/101/122 81/99/123 82/100/124 84/102/125
f 73/91/126 74/92/127 83/101/128 84/102/129
f 32/61/130 35/62/131 34/63/132 33/64/133
f 34/63/134 35/62/135 37/65/136 36/66/137
f 36/66/138 37/65/139 18/20/140 19/19/141
f 32/61/142 33/64/143 39/67/144 38/68/145
f 38/68/146 39/67/147 40/69/148
f 86/103/149 85/104/150 87/105/151 88/106/152
f 89/107/153 86/103/154 88/106/155 90/108/156
f 91/109/157 89/107/158 90/108/159 92/110/160
f 93/111/161 91/109/162 92/110/163 94/112/164
f 96/114/165 95/113/166 93/111/167 94/112/168
f 96/114/169 97/115/170 98/116/171 95/113/172
f 99/117/173 98/116/174 97/115/175 100/118/176
f 101/119/177 99/117/178 100/118/179 102/120/180
f 103/121/181 101/119/182 102/120/183 104/122/184
f 105/123/185 103/121/186 104/122/187 106/124/188
f 53/57/189 52/56/190 41/71/191 42/70/192
f 54/58/193 53/57/194 42/70/195 43/72/196
f 55/59/197 54/58/198 43/72/199 44/73/200
f 56/60/201 55/59/202 44/73/203 45/74/204
f 46/75/205 57/38/206 56/60/207 45/74/208
f 46/75/209 47/76/210 58/37/211 57/38/212
f 59/36/213 58/37/214 47/76/215 48/77/216
f 60/35/217 59/36/218 48/77/219 49/78/220
f 61/33/221 60/35/222 49/78/223 50/79/224
f 62/34/225 61/33/226 50/79/227 51/80/228
f 61/33/229 62/34/230 65/82/231 64/81/232
f 62/34/233 11/11/234 66/83/235 65/82/236
f 11/11/237 10/9/238 63/84/239 66/83/240
f 60/35/241 61/33/242 64/81/243 68/85/244
f 10/9/245 2/4/246 67/86/247 63/84/248
f 59/36/249 60/35/250 68/85/251 70/87/252
f 2/4/253 3/3/254 69/88/255 67/86/256
f 58/37/257 59/36/258 70/87/259 72/89/260
f 3/3/261 5/6/262 71/90/263 69/88/264
f 57/38/265 58/37/266 72/89/267 73/91/268
f 5/6/269 7/8/270 74/92/271 71/90/272
f 29/46/273 31/47/274 75/94/275 76/93/276
f 31/47/277 52/56/278 77/95/279 75/94/280
f 52/56/281 53/57/282 78/96/283 77/95/284
f 26/40/285 29/46/286 76/93/287 79/97/288
f 53/57/289 54/58/290 80/98/291 78/96/292
f 25/41/293 26/40/294 79/97/295 81/99/296
f 54/58/297 55/59/298 82/100/299 80/98/300
f 28/43/301 25/41/302 81/99/303 83/101/304
f 55/59/305 56/60/306 84/102/307 82/100/308
f 7/8/309 28/43/310 83/101/311 74/92/312
f 56/60/313 57/38/314 73/91/315 84/102/316
f 42/70/317 41/71/318 85/104/319 86/103/320
f 41/71/321 40/69/322 87/105/323 85/104/324
f 40/69/325 39/67/326 88/106/327 87/105/328
f 43/72/329 42/70/330 86/103/331 89/107/332
f 39/67/333 33/64/334 90/108/335 88/106/336
f 44/73/337 43/72/338 89/107/339 91/109/340
f 33/64/341 34/63/342 92/110/343 90/108/344
f 45/74/345 44/73/346 91/109/347 93/111/348
f 34/63/349 36/66/350 94/112/351 92/110/352
f 46/75/353 45/74/354 93/111/355 95/113/356
f 36/66/357 19/19/358 96/114/359 94/112/360
f 19/19/361 17/17/362 97/115/363 96/114/364
f 47/76/365 46/75/366 95/113/367 98/116/368
f 48/77/369 47/76/370 98/116/371 99/117/372
f 17/17/373 14/15/374 100/118/375 97/115/376
f 49/78/377 48/77/378 99/117/379 101/119/380
f 14/15/381 15/14/382 102/120/383 100/118/384
f 50/79/385 49/78/386 101/119/387 103/121/388
f 15/14/389 20/22/390 104/122/391 102/120/392
f 51/80/393 50/79/394 103/121/395 105/123/396
f 20/22/397 22/23/398 106/124/399 104/122/400
f 22/23/401 51/80/402 105/123/403 106/124/404
f 52/125/405 31/126/406 30/127/407
f 40/128/408 41/129/409 38/130/410
f 11/131/411 62/132/412 9/133/413
f 51/134/414 22/135/415 21/136/416
f 21/137/417 9/138/418 62/139/419 51/140/420
f 30/141/421 38/142/422 41/143/423 52/144/424
