# This file uses centimeters as units for non-parametric coordinates.

mtllib mountainBridge_01.mtl
g default
v -0.305000 0.008000 3.078000
v 0.975400 0.008000 3.078000
v -0.304474 2.585868 3.078000
v 1.004608 2.585868 3.078000
v -0.091182 2.585868 2.658206
v 0.791315 2.585868 2.377230
v -0.096383 0.008000 2.658206
v 0.766778 0.008000 2.658206
v -0.091182 2.628169 1.939972
v 0.652735 2.628169 2.195343
v 0.578639 0.908545 2.195343
v -0.019704 0.908545 2.195343
v -0.083343 2.628169 1.572629
v 0.318258 2.628169 1.434038
v 0.309614 1.528195 1.434038
v 0.036824 1.484877 1.486842
v -0.218563 2.585868 0.933963
v 0.318258 2.664085 0.545793
v 0.309614 1.886827 0.811566
v -0.122160 1.843507 0.786611
v -0.218563 2.628337 -0.733681
v 0.234010 2.628337 -0.332626
v 0.241853 2.033499 -0.332626
v -0.122160 1.919173 -0.332626
v -0.311429 0.008000 -3.743252
v 0.657867 0.008000 -3.743252
v 0.785168 2.585868 -3.743252
v -0.527947 2.585868 -3.743252
v 0.512489 2.585868 -3.323455
v -0.255274 2.585868 -3.323455
v -0.110150 0.008000 -3.323455
v 0.456584 0.008000 -3.323455
v 0.415321 2.616182 -2.860593
v -0.056167 2.616182 -2.860593
v 0.384860 0.908545 -3.016629
v 0.036824 0.908545 -2.860593
v 0.457701 2.526500 -2.099288
v -0.224966 2.526500 -2.099288
v 0.384860 1.459199 -2.457427
v 0.036824 1.281702 -2.274884
v 0.394735 2.526500 -0.943005
v -0.242094 2.526500 -1.196703
v 0.384860 1.892401 -1.451862
v -0.043018 1.881090 -0.982519
v -0.143649 1.538991 -1.824119
v -0.150268 1.691648 -1.471869
v -0.391494 2.526500 -1.471869
v -0.378719 2.526500 -1.824119
v 0.643027 2.585868 1.794698
v 0.570833 1.433933 1.893213
v 0.418095 1.880429 1.409744
v 0.468149 2.585868 1.434038
v 0.430175 2.159046 0.773664
v 0.468149 2.585868 0.545793
v 0.362413 2.218194 0.094001
v 0.383902 2.585868 0.068019
v 0.384860 2.054345 -2.257723
v 0.384860 1.981635 -2.918573
v 0.456584 2.040080 -3.323455
v 0.657867 2.056815 -3.743252
v 0.557680 1.794013 1.862418
v 0.575488 1.734388 2.195343
v 0.700147 1.788164 2.464175
v 0.873197 1.823822 3.078000
v -0.179677 1.774268 3.078000
v -0.062678 1.557911 2.658206
v 0.005029 1.705830 2.076943
v 0.053449 1.799299 1.510435
v -0.143649 1.695693 -1.824119
v -0.033347 1.793241 -2.212526
v 0.022555 1.810702 -2.860593
v -0.150168 1.931626 -3.323455
v -0.377890 1.882442 -3.743252
v 0.454531 2.564944 1.249409
v 0.501222 1.566033 1.386081
v 0.454531 2.564944 0.688974
v 0.501222 1.566033 0.825648
v 0.501222 0.971886 1.303157
v 0.501222 0.971886 0.742724
v 0.461529 2.461021 0.438872
v 0.494226 1.959091 0.384999
v 0.461529 2.461021 0.046429
v 0.494226 1.959091 -0.007444
v 0.494226 1.543039 0.441766
v 0.494226 1.543039 0.049324
v 0.391022 2.370368 -2.263805
v 0.500169 1.240833 -2.108711
v 0.391022 2.370368 -2.899782
v 0.500169 1.240833 -2.744689
v 0.533610 0.567425 -2.202812
v 0.533610 0.567425 -2.838791
v -0.037475 2.385670 1.733421
v -0.106617 1.736408 1.596748
v -0.037475 2.385670 2.293856
v -0.106617 1.736408 2.157184
v -0.119977 1.142408 1.679674
v -0.119977 1.142408 2.240107
v -0.338075 2.370368 -1.837305
v -0.228930 0.949149 -1.883543
v -0.348589 2.356740 -1.443853
v -0.228930 0.949149 -1.488481
v -0.132815 0.573480 -1.733817
v -0.132815 0.573480 -1.675146
v -0.201567 2.358850 -2.101689
v 0.017956 1.252351 -2.246797
v -0.233878 2.358850 -1.167842
v -0.040756 1.252351 -1.078670
vt 0.642877 0.957870
vt 0.482819 0.980978
vt 0.493239 0.884122
vt 0.617552 0.899759
vt 0.104130 0.825042
vt 0.155213 0.921359
vt 0.140635 0.977050
vt 0.040858 0.833271
vt 0.386227 0.887887
vt 0.386845 0.972413
vt 0.956956 0.839804
vt 0.968261 0.900271
vt 0.738259 0.932543
vt 0.754253 0.872157
vt 0.503423 0.852870
vt 0.595681 0.802773
vt 0.381336 0.849104
vt 0.269558 0.847996
vt 0.227903 0.778988
vt 0.720801 0.801256
vt 0.828389 0.799752
vt 0.525839 0.742190
vt 0.586073 0.751675
vt 0.403990 0.742549
vt 0.391260 0.805327
vt 0.342965 0.809773
vt 0.325533 0.727873
vt 0.356390 0.743419
vt 0.697624 0.730258
vt 0.738366 0.720823
vt 0.510265 0.622833
vt 0.585160 0.663520
vt 0.500370 0.744819
vt 0.438260 0.654759
vt 0.491839 0.624982
vt 0.347603 0.637514
vt 0.400435 0.657410
vt 0.679769 0.634344
vt 0.500256 0.501425
vt 0.555554 0.444631
vt 0.444896 0.562504
vt 0.492139 0.559815
vt 0.370538 0.503361
vt 0.419919 0.502266
vt 0.653152 0.490650
vt 0.603669 0.017565
vt 0.578347 0.080638
vt 0.473277 0.083638
vt 0.446354 0.021194
vt 0.106414 0.170245
vt 0.042477 0.161172
vt 0.118228 0.051221
vt 0.134337 0.106468
vt 0.399657 0.099211
vt 0.391294 0.039762
vt 0.918903 0.121713
vt 0.664868 0.101466
vt 0.682059 0.042002
vt 0.925237 0.061492
vt 0.557556 0.151091
vt 0.487286 0.149738
vt 0.398608 0.151639
vt 0.253440 0.146804
vt 0.237899 0.193974
vt 0.792765 0.172784
vt 0.671217 0.164347
vt 0.560019 0.260320
vt 0.474827 0.255024
vt 0.412479 0.238531
vt 0.333218 0.216897
vt 0.292973 0.255815
vt 0.741143 0.243206
vt 0.668541 0.246243
vt 0.558068 0.380431
vt 0.478395 0.412994
vt 0.395258 0.350167
vt 0.360474 0.425409
vt 0.697726 0.298960
vt 0.679302 0.345049
vt 0.680435 0.298465
vt 0.657905 0.411206
vt 0.574229 0.343765
vt 0.574383 0.298293
vt 0.495993 0.799311
vt 0.037374 0.760440
vt 0.037325 0.424790
vt 0.231907 0.424811
vt 0.228965 0.760451
vt 0.037296 0.216403
vt 0.233620 0.216336
vt 0.037374 0.760438
vt 0.037325 0.424784
vt 0.231958 0.424804
vt 0.228929 0.760449
vt 0.037295 0.216403
vt 0.233782 0.216336
vt 0.037374 0.760440
vt 0.037325 0.424768
vt 0.231957 0.424789
vt 0.228881 0.760451
vt 0.037296 0.216403
vt 0.233737 0.216336
vt 0.037462 0.760411
vt 0.037435 0.424788
vt 0.233597 0.424848
vt 0.231923 0.760443
vt 0.037442 0.216684
vt 0.233129 0.216488
vt 0.791624 0.665442
vt 0.789263 0.329823
vt 0.882202 0.332163
vt 0.884325 0.664799
vt 0.826777 0.239469
vt 0.840583 0.239815
vt 0.722199 0.658879
vt 0.681722 0.394360
vt 0.989385 0.401795
vt 0.954554 0.664655
vn 0.000000 1.000000 0.000000
vn 0.000000 1.000000 0.000000
vn 0.000000 1.000000 0.000000
vn 0.000000 1.000000 0.000000
vn 0.000000 -1.000000 0.000000
vn 0.000000 -1.000000 0.000000
vn 0.000000 -1.000000 0.000000
vn 0.000000 -1.000000 0.000000
vn 0.937530 0.025241 -0.346988
vn 0.937530 0.025241 -0.346988
vn 0.945875 -0.038915 -0.322190
vn 0.946045 -0.040503 -0.321493
vn -0.927529 0.044408 -0.371103
vn -0.927529 0.044408 -0.371103
vn -0.932792 -0.016938 -0.360017
vn -0.930380 0.016268 -0.366237
vn 0.001404 0.995640 0.093270
vn 0.001404 0.995640 0.093270
vn 0.001404 0.995640 0.093270
vn 0.001404 0.995640 0.093270
vn 0.904158 -0.033390 -0.425892
vn 0.899872 -0.041842 -0.434142
vn 0.917356 -0.005005 -0.398036
vn 0.917356 -0.005005 -0.398036
vn 0.000000 -0.457099 -0.889416
vn 0.000000 -0.457099 -0.889416
vn 0.000000 -0.457099 -0.889416
vn 0.000000 -0.457099 -0.889416
vn -0.992790 0.018710 -0.118395
vn -0.995412 -0.019380 -0.093697
vn -0.995927 -0.036930 -0.082251
vn -0.992790 0.018710 -0.118395
vn 0.000000 1.000000 0.000000
vn 0.000000 1.000000 0.000000
vn 0.000000 1.000000 0.000000
vn 0.000000 1.000000 0.000000
vn 0.928047 -0.086438 -0.362294
vn 0.934765 -0.067359 -0.348824
vn 0.956079 0.009798 -0.292944
vn 0.000244 -0.775639 -0.631176
vn 0.000244 -0.775639 -0.631176
vn 0.000244 -0.775639 -0.631176
vn 0.000244 -0.775639 -0.631176
vn -0.997359 0.031466 -0.065465
vn -0.996666 -0.043433 -0.069071
vn -0.995481 -0.064123 -0.070044
vn -0.997359 0.031466 -0.065465
vn -0.081310 0.996684 0.002960
vn -0.081310 0.996684 0.002960
vn -0.081310 0.996684 0.002960
vn -0.081310 0.996684 0.002960
vn 0.996886 -0.078595 -0.006410
vn 0.996886 -0.078595 -0.006410
vn 0.996886 -0.078595 -0.006410
vn 0.996886 -0.078595 -0.006410
vn 0.088025 -0.871181 -0.483006
vn 0.088025 -0.871181 -0.483006
vn 0.088025 -0.871181 -0.483006
vn 0.088025 -0.871181 -0.483006
vn -0.970793 0.033421 0.237578
vn -0.965292 -0.136312 0.222780
vn -0.962152 -0.160628 0.220143
vn -0.078838 0.996874 0.005158
vn -0.078838 0.996874 0.005158
vn -0.078838 0.996874 0.005158
vn -0.078838 0.996874 0.005158
vn 0.983910 -0.116831 -0.135174
vn 0.983910 -0.116831 -0.135174
vn 0.983910 -0.116831 -0.135174
vn 0.983910 -0.116831 -0.135174
vn 0.196322 -0.975261 -0.101610
vn 0.196322 -0.975261 -0.101610
vn 0.196322 -0.975261 -0.101610
vn 0.196322 -0.975261 -0.101610
vn -0.991148 -0.132649 -0.005556
vn -0.991148 -0.132649 -0.005556
vn -0.991148 -0.132649 -0.005556
vn -0.991148 -0.132649 -0.005556
vn 0.000000 1.000000 0.000000
vn 0.000000 1.000000 0.000000
vn 0.000000 1.000000 0.000000
vn 0.000000 1.000000 0.000000
vn 0.000000 -1.000000 0.000000
vn 0.000000 -1.000000 0.000000
vn 0.000000 -1.000000 0.000000
vn 0.000000 -1.000000 0.000000
vn 0.895656 -0.029941 0.443738
vn 0.894632 -0.034520 0.445469
vn 0.862627 -0.146956 0.484023
vn 0.862627 -0.146956 0.484023
vn -0.889605 -0.024936 0.456049
vn -0.878525 -0.063696 0.473431
vn -0.879601 -0.060251 0.471881
vn -0.889605 -0.024936 0.456049
vn 0.000000 0.997863 -0.065344
vn 0.000000 0.997863 -0.065344
vn 0.000000 0.997863 -0.065344
vn 0.000000 0.997863 -0.065344
vn 0.978861 -0.080791 0.187892
vn 0.978861 -0.080791 0.187892
vn 0.979411 -0.029515 0.199710
vn 0.979468 -0.033880 0.198732
vn 0.154560 -0.393634 0.906181
vn 0.154560 -0.393634 0.906181
vn 0.154560 -0.393634 0.906181
vn 0.154560 -0.393634 0.906181
vn -0.940291 -0.018039 0.339893
vn -0.940291 -0.018039 0.339893
vn -0.937233 -0.044896 0.345801
vn -0.935216 -0.059912 0.348973
vn 0.000000 0.993140 0.116932
vn 0.000000 0.993140 0.116932
vn 0.000000 0.993140 0.116932
vn 0.000000 0.993140 0.116932
vn 0.995746 -0.086891 -0.030673
vn 0.995746 -0.086891 -0.030673
vn 0.998465 -0.052223 -0.018466
vn 0.999326 -0.034641 -0.012177
vn 0.450006 -0.695031 0.560737
vn 0.450006 -0.695031 0.560737
vn 0.450006 -0.695031 0.560737
vn 0.450006 -0.695031 0.560737
vn -0.997895 -0.058325 -0.028354
vn -0.997895 -0.058325 -0.028354
vn -0.986480 -0.119189 -0.112475
vn -0.987329 -0.116136 -0.108139
vn 0.000000 1.000000 0.000000
vn 0.000000 1.000000 0.000000
vn 0.000000 1.000000 0.000000
vn 0.000000 1.000000 0.000000
vn 0.984025 -0.169783 0.053563
vn 0.998839 -0.046699 0.011843
vn 0.999365 -0.034762 0.007813
vn 0.500677 -0.782971 0.369159
vn 0.500677 -0.782971 0.369159
vn 0.500677 -0.782971 0.369159
vn 0.500677 -0.782971 0.369159
vn -0.999824 0.000000 -0.018769
vn -0.962866 -0.268543 -0.027803
vn -0.967097 -0.252938 -0.027318
vn 0.103746 0.979523 -0.172542
vn 0.103746 0.979523 -0.172542
vn 0.103746 0.979523 -0.172542
vn 0.103746 0.979523 -0.172542
vn 0.980069 -0.077369 0.182969
vn 0.980069 -0.077369 0.182969
vn 0.980069 -0.077369 0.182969
vn 0.980069 -0.077369 0.182969
vn 0.228030 -0.965412 0.126423
vn 0.228030 -0.965412 0.126423
vn 0.228030 -0.965412 0.126423
vn 0.228030 -0.965412 0.126423
vn -0.974808 -0.222077 -0.020786
vn -0.974808 -0.222077 -0.020786
vn -0.974808 -0.222077 -0.020786
vn -0.974808 -0.222077 -0.020786
vn -0.260597 -0.883125 0.390102
vn -0.260597 -0.883125 0.390102
vn -0.260597 -0.883125 0.390102
vn -0.260597 -0.883125 0.390102
vn -0.907640 -0.218074 0.358655
vn -0.907640 -0.218074 0.358655
vn -0.907640 -0.218074 0.358655
vn -0.907640 -0.218074 0.358655
vn 0.000000 1.000000 0.000000
vn 0.000000 1.000000 0.000000
vn 0.000000 1.000000 0.000000
vn 0.000000 1.000000 0.000000
vn -0.918731 -0.160085 -0.360979
vn -0.914836 -0.170404 -0.366112
vn -0.946636 -0.070015 -0.314609
vn -0.946636 -0.070015 -0.314609
vn 0.997249 -0.064673 -0.036228
vn 0.998115 -0.050512 -0.034854
vn 0.999516 0.012940 -0.028292
vn 0.999516 0.012940 -0.028292
vn 0.806800 -0.285038 -0.517520
vn 0.806800 -0.285038 -0.517520
vn 0.806800 -0.285038 -0.517520
vn 0.806800 -0.285038 -0.517520
vn 0.252313 0.960846 -0.114513
vn 0.252313 0.960846 -0.114513
vn 0.252313 0.960846 -0.114513
vn 0.252313 0.960846 -0.114513
vn 0.919495 -0.354223 -0.170458
vn 0.919495 -0.354223 -0.170458
vn 0.919495 -0.354223 -0.170458
vn 0.919495 -0.354223 -0.170458
vn 0.372930 0.927671 0.018709
vn 0.372930 0.927671 0.018709
vn 0.372930 0.927671 0.018709
vn 0.372930 0.927671 0.018709
vn 0.914976 -0.387728 -0.111744
vn 0.914976 -0.387728 -0.111744
vn 0.914976 -0.387728 -0.111744
vn 0.914976 -0.387728 -0.111744
vn 0.951366 -0.021762 -0.307294
vn 0.951366 -0.021762 -0.307294
vn 0.951366 -0.021762 -0.307294
vn 0.951366 -0.021762 -0.307294
vn 0.463245 0.882540 -0.080789
vn 0.463245 0.882540 -0.080789
vn 0.463245 0.882540 -0.080789
vn 0.463245 0.882540 -0.080789
vn 0.999365 -0.034762 0.007813
vn 0.998839 -0.046699 0.011843
vn 0.999974 -0.007111 -0.001373
vn 0.999974 -0.007111 -0.001373
vn 0.999326 -0.034641 -0.012177
vn 0.998465 -0.052223 -0.018466
vn 1.000000 0.000000 0.000000
vn 1.000000 0.000000 0.000000
vn 0.979468 -0.033880 0.198732
vn 0.979411 -0.029515 0.199710
vn 0.978756 -0.006410 0.204927
vn 0.978756 -0.006410 0.204927
vn 0.901709 0.000000 0.432344
vn 0.894632 -0.034520 0.445469
vn 0.895656 -0.029941 0.443738
vn 0.901709 0.000000 0.432344
vn 0.925154 -0.094246 -0.367705
vn 0.934765 -0.067359 -0.348824
vn 0.928047 -0.086438 -0.362294
vn 0.925154 -0.094246 -0.367705
vn 0.994455 -0.097456 -0.039526
vn 0.998115 -0.050512 -0.034854
vn 0.997249 -0.064673 -0.036228
vn 0.994455 -0.097456 -0.039526
vn 0.859408 -0.111218 -0.499047
vn 0.899872 -0.041842 -0.434142
vn 0.904158 -0.033390 -0.425892
vn 0.859408 -0.111218 -0.499047
vn 0.946045 -0.040503 -0.321493
vn 0.945875 -0.038915 -0.322190
vn 0.949545 -0.150841 -0.274975
vn 0.949545 -0.150841 -0.274975
vn -0.930380 0.016268 -0.366237
vn -0.932792 -0.016938 -0.360017
vn -0.934423 -0.077861 -0.347551
vn -0.934423 -0.077861 -0.347551
vn -0.995927 -0.036930 -0.082251
vn -0.995412 -0.019380 -0.093697
vn -0.995768 -0.067998 -0.061833
vn -0.995768 -0.067998 -0.061833
vn -0.995481 -0.064123 -0.070044
vn -0.996666 -0.043433 -0.069071
vn -0.988210 -0.134594 -0.072974
vn -0.988210 -0.134594 -0.072974
vn -0.962152 -0.160628 0.220143
vn -0.965292 -0.136312 0.222780
vn -0.960537 -0.171738 0.218801
vn -0.960537 -0.171738 0.218801
vn -0.967097 -0.252938 -0.027318
vn -0.962866 -0.268543 -0.027803
vn -0.961103 -0.274767 -0.027989
vn -0.961103 -0.274767 -0.027989
vn -0.895821 -0.216264 -0.388244
vn -0.914836 -0.170404 -0.366112
vn -0.918731 -0.160085 -0.360979
vn -0.895821 -0.216264 -0.388244
vn -0.987329 -0.116136 -0.108139
vn -0.986480 -0.119189 -0.112475
vn -0.973084 -0.158655 -0.167140
vn -0.973084 -0.158655 -0.167140
vn -0.935216 -0.059912 0.348973
vn -0.937233 -0.044896 0.345801
vn -0.925528 -0.116465 0.360323
vn -0.925528 -0.116465 0.360323
vn -0.879601 -0.060251 0.471881
vn -0.878525 -0.063696 0.473431
vn -0.844028 -0.158630 0.512301
vn -0.844028 -0.158630 0.512301
vn 0.998913 0.046606 0.000000
vn 0.998913 0.046606 0.000000
vn 0.998913 0.046606 0.000000
vn 0.998913 0.046606 0.000000
vn 1.000000 0.000000 0.000000
vn 1.000000 0.000000 0.000000
vn 1.000000 0.000000 0.000000
vn 1.000000 0.000000 0.000000
vn 0.997891 0.064917 0.000000
vn 0.997891 0.064917 0.000000
vn 0.997891 0.064917 0.000000
vn 0.997891 0.064917 0.000000
vn 1.000000 0.000000 0.000000
vn 1.000000 0.000000 0.000000
vn 1.000000 0.000000 0.000000
vn 1.000000 0.000000 0.000000
vn 0.995365 0.096167 0.000000
vn 0.995365 0.096167 0.000000
vn 0.995365 0.096167 0.000000
vn 0.995365 0.096167 0.000000
vn 0.998772 0.049537 0.000000
vn 0.998772 0.049537 0.000000
vn 0.998772 0.049537 0.000000
vn 0.998772 0.049537 0.000000
vn -0.994379 0.105881 0.000000
vn -0.994379 0.105881 0.000000
vn -0.994379 0.105881 0.000000
vn -0.994379 0.105881 0.000000
vn -0.999748 0.022433 0.000000
vn -0.999748 0.022433 0.000000
vn -0.999748 0.022433 0.000000
vn -0.999748 0.022433 0.000000
vn -0.996684 -0.080058 -0.014589
vn -0.996684 -0.080058 -0.014589
vn -0.996684 -0.080058 -0.014589
vn -0.996684 -0.080058 -0.014589
vn -0.968798 -0.247853 0.000000
vn -0.968798 -0.247853 0.000000
vn -0.968798 -0.247853 0.000000
vn -0.968798 -0.247853 0.000000
vn -0.837110 -0.067664 -0.542834
vn -0.837110 -0.067664 -0.542834
vn -0.837110 -0.067664 -0.542834
vn -0.837110 -0.067664 -0.542834
vn -0.892117 -0.103190 0.439863
vn -0.892117 -0.103190 0.439863
vn -0.892117 -0.103190 0.439863
vn -0.892117 -0.103190 0.439863
s off
g pCube2
usemtl initialShadingGroup
f 3/1/1 4/2/2 6/3/3 5/4/4
f 7/5/5 8/6/6 2/7/7 1/8/8
f 2/7/9 8/6/10 63/9/11 64/10/12
f 7/11/13 1/12/14 65/13/15 66/14/16
f 5/4/17 6/3/18 10/15/19 9/16/20
f 62/17/21 63/9/22 8/6/23 11/18/24
f 8/6/25 7/5/26 12/19/27 11/18/28
f 7/11/29 66/14/30 67/20/31 12/21/32
f 9/16/33 10/15/34 14/22/35 13/23/36
f 51/24/37 61/25/38 50/26/39
f 11/18/40 12/19/41 16/27/42 15/28/43
f 12/21/44 67/20/45 68/29/46 16/30/47
f 13/23/48 14/22/49 18/31/50 17/32/51
f 52/33/52 51/24/53 53/34/54 54/35/55
f 15/28/56 16/27/57 20/36/58 19/37/59
f 16/30/60 68/29/61 20/38/62
f 17/32/63 18/31/64 22/39/65 21/40/66
f 54/35/67 53/34/68 55/41/69 56/42/70
f 19/37/71 20/36/72 24/43/73 23/44/74
f 20/38/75 17/32/76 21/40/77 24/45/78
f 28/46/79 30/47/80 29/48/81 27/49/82
f 31/50/83 25/51/84 26/52/85 32/53/86
f 59/54/87 60/55/88 27/49/89 29/48/90
f 31/56/91 72/57/92 73/58/93 25/59/94
f 30/47/95 34/60/96 33/61/97 29/48/98
f 29/48/99 33/61/100 58/62/101 59/54/102
f 32/53/103 35/63/104 36/64/105 31/50/106
f 31/56/107 36/65/108 71/66/109 72/57/110
f 34/60/111 38/67/112 37/68/113 33/61/114
f 33/61/115 37/68/116 57/69/117 58/62/118
f 35/63/119 39/70/120 40/71/121 36/64/122
f 36/65/123 40/72/124 70/73/125 71/66/126
f 38/67/127 42/74/128 41/75/129 37/68/130
f 37/68/131 41/75/132 57/69/133
f 39/70/134 43/76/135 44/77/136 40/71/137
f 45/78/138 46/79/139 69/80/140
f 42/74/141 21/40/142 22/39/143 41/75/144
f 41/75/145 22/39/146 23/44/147 43/76/148
f 43/76/149 23/44/150 24/43/151 44/77/152
f 44/81/153 24/45/154 21/40/155 42/74/156
f 40/72/157 44/81/158 46/79/159 45/78/160
f 44/81/161 42/74/162 47/82/163 46/79/164
f 42/74/165 38/67/166 48/83/167 47/82/168
f 69/80/169 70/73/170 40/72/171 45/78/172
f 61/25/173 62/17/174 11/18/175 50/26/176
f 11/18/177 15/28/178 51/24/179 50/26/180
f 14/22/181 10/15/182 49/84/183 52/33/184
f 15/28/185 19/37/186 53/34/187 51/24/188
f 18/31/189 14/22/190 52/33/191 54/35/192
f 19/37/193 23/44/194 55/41/195 53/34/196
f 23/44/197 22/39/198 56/42/199 55/41/200
f 22/39/201 18/31/202 54/35/203 56/42/204
f 57/69/205 41/75/206 43/76/207 39/70/208
f 58/62/209 57/69/210 39/70/211 35/63/212
f 59/54/213 58/62/214 35/63/215 32/53/216
f 26/52/217 60/55/218 59/54/219 32/53/220
f 49/84/221 61/25/222 51/24/223 52/33/224
f 10/15/225 62/17/226 61/25/227 49/84/228
f 6/3/229 63/9/230 62/17/231 10/15/232
f 64/10/233 63/9/234 6/3/235 4/2/236
f 66/14/237 65/13/238 3/1/239 5/4/240
f 67/20/241 66/14/242 5/4/243 9/16/244
f 68/29/245 67/20/246 9/16/247 13/23/248
f 20/38/249 68/29/250 13/23/251 17/32/252
f 69/80/253 46/79/254 47/82/255 48/83/256
f 38/67/257 70/73/258 69/80/259 48/83/260
f 71/66/261 70/73/262 38/67/263 34/60/264
f 72/57/265 71/66/266 34/60/267 30/47/268
f 73/58/269 72/57/270 30/47/271 28/46/272
f 74/85/273 75/86/274 77/87/275 76/88/276
f 77/87/277 75/86/278 78/89/279 79/90/280
f 80/91/281 81/92/282 83/93/283 82/94/284
f 83/93/285 81/92/286 84/95/287 85/96/288
f 86/97/289 87/98/290 89/99/291 88/100/292
f 89/99/293 87/98/294 90/101/295 91/102/296
f 92/103/297 93/104/298 95/105/299 94/106/300
f 95/105/301 93/104/302 96/107/303 97/108/304
f 98/109/305 99/110/306 101/111/307 100/112/308
f 101/111/309 99/110/310 102/113/311 103/114/312
f 99/110/313 98/109/314 104/115/315 105/116/316
f 100/112/317 101/111/318 107/117/319 106/118/320
