# This file uses centimeters as units for non-parametric coordinates.

mtllib riverSource.mtl
g default
v -0.801319 -0.029383 -1.236634
v -0.801319 0.230860 -1.230765
v -0.801319 0.413033 -0.518372
v -0.801319 0.487513 0.000067
v -0.801319 0.413033 0.518507
v -0.801319 0.230860 1.231529
v -0.801319 -0.029383 1.237398
v 0.186346 -0.029383 -1.525711
v 0.186346 0.230860 -1.518471
v 0.186346 0.413033 -0.629149
v 0.186346 0.487513 0.000000
v 0.186346 0.413033 0.629149
v 0.186346 0.230860 1.519235
v 0.186346 -0.029383 1.526475
v 0.187029 0.398259 -1.770212
v 0.170302 -0.029383 -1.992607
v 0.186346 0.721944 -0.800573
v 0.186346 0.793584 0.000000
v 0.186346 0.721943 0.800573
v 0.185886 0.398259 1.752412
v 0.167097 -0.029383 1.973660
v 0.048155 -0.029383 1.902408
v 0.066944 0.398259 1.730866
v 0.047695 0.721943 0.800573
v 0.047695 0.793584 0.000000
v 0.047695 0.721944 -0.800573
v 0.063739 0.398259 -1.755726
v 0.047012 -0.029383 -1.929176
v -0.816222 -0.014529 -1.400779
v -0.816225 0.803985 -1.307250
v -0.277696 0.803985 -1.614352
v -0.277696 -0.014529 -1.715675
v -0.816224 1.240379 -0.945375
v -0.277696 1.240379 -1.013813
v -0.816224 1.318926 -0.000129
v -0.347665 1.318926 0.000000
v -0.816224 1.240379 0.936039
v -0.277696 1.240379 1.004076
v -0.816225 0.803985 1.303441
v -0.277696 0.803985 1.604615
v -0.816222 -0.014529 1.396970
v -0.277696 -0.014529 1.705938
v -0.277696 0.268561 1.783877
v -0.816223 0.274063 1.456293
v -0.277696 0.257349 -1.795002
v -0.816223 0.301838 -1.456221
vt 0.400000 0.688440
vt 0.425000 0.688440
vt 0.450000 0.688440
vt 0.475000 0.688440
vt 0.500000 0.688440
vt 0.525000 0.688440
vt 0.550000 0.688440
vt 0.425000 0.688440
vt 0.400000 0.688440
vt 0.450000 0.688440
vt 0.475000 0.688440
vt 0.500000 0.688440
vt 0.525000 0.688440
vt 0.550000 0.688440
vt 0.000000 0.000000
vt 0.304813 0.000000
vt 0.304813 1.000000
vt 0.000000 1.000000
vt 0.000000 1.000000
vt 0.309017 1.000000
vt 0.309017 0.000000
vt 0.000000 0.000000
vt 0.000000 1.000000
vt 0.309017 1.000000
vt 0.309017 0.000000
vt 0.000000 0.000000
vt 0.000000 1.000000
vt 0.309017 1.000000
vt 0.309017 0.000000
vt 0.000000 0.000000
vt 0.000000 1.000000
vt 0.309017 1.000000
vt 0.309017 0.000000
vt 0.000000 0.000000
vt 0.000000 1.000000
vt 0.304813 1.000000
vt 0.304813 0.000000
vt 0.000000 0.000000
vt 0.550000 0.548581
vt 0.525000 0.548581
vt 0.500000 0.548581
vt 0.475000 0.548581
vt 0.450000 0.548581
vt 0.425000 0.548581
vt 0.400000 0.548581
vt 0.400000 0.312500
vt 0.425000 0.312500
vt 0.425000 0.548581
vt 0.400000 0.548581
vt 0.450000 0.312500
vt 0.450000 0.548581
vt 0.475000 0.312500
vt 0.475000 0.548581
vt 0.500000 0.312500
vt 0.500000 0.548581
vt 0.525000 0.312500
vt 0.525000 0.548581
vt 0.550000 0.312500
vt 0.550000 0.548581
vt 0.541353 0.548581
vt 0.541185 0.312500
vt 0.408304 0.548581
vt 0.409663 0.312500
vt 0.000000 0.000000
vt 0.086745 0.000000
vt 0.113981 0.995256
vt 0.027366 1.000000
vt 0.000000 0.000000
vt 0.302168 0.000000
vt 0.723270 0.088736
vt 1.000000 0.210722
vt 0.492993 0.000000
vt 1.000000 0.000000
vt 0.000000 0.118382
vn -0.511222 0.089961 -0.854727
vn -0.509006 0.113765 -0.853212
vn -0.488404 0.261637 -0.832471
vn -0.488404 0.261637 -0.832471
vn -0.228057 0.721236 -0.654071
vn -0.228057 0.721236 -0.654071
vn -0.228057 0.721236 -0.654071
vn -0.228057 0.721236 -0.654071
vn -0.005435 0.996770 -0.080123
vn -0.005435 0.996770 -0.080123
vn -0.005435 0.996770 -0.080123
vn -0.005435 0.996770 -0.080123
vn -0.005476 0.996707 0.080897
vn -0.005476 0.996707 0.080897
vn -0.005476 0.996707 0.080897
vn -0.005476 0.996707 0.080897
vn -0.223738 0.723840 0.652685
vn -0.223738 0.723840 0.652684
vn -0.223738 0.723840 0.652684
vn -0.223738 0.723840 0.652685
vn -0.502962 0.098827 0.858640
vn -0.502509 0.105721 0.858084
vn -0.499039 -0.202319 0.842631
vn -0.499039 -0.202319 0.842631
vn 0.999559 -0.015935 -0.025077
vn 0.999559 -0.015935 -0.025077
vn 0.999559 -0.015935 -0.025077
vn 0.999559 -0.015935 -0.025077
vn 0.999999 -0.000892 0.000610
vn 1.000000 -0.000892 0.000610
vn 0.999999 -0.000892 0.000610
vn 0.999999 -0.000892 0.000610
vn 1.000000 -0.000000 0.000000
vn 1.000000 -0.000000 0.000000
vn 1.000000 -0.000000 0.000000
vn 1.000000 -0.000000 0.000000
vn 1.000000 0.000000 0.000000
vn 1.000000 0.000000 0.000000
vn 1.000000 0.000000 0.000000
vn 1.000000 0.000000 0.000000
vn 1.000000 0.000611 0.000417
vn 1.000000 0.000611 0.000417
vn 1.000000 0.000611 0.000417
vn 1.000000 0.000611 0.000417
vn 0.999323 -0.016345 0.032970
vn 0.999323 -0.016345 0.032970
vn 0.999323 -0.016345 0.032970
vn 0.999323 -0.016345 0.032970
vn 0.280207 -0.024168 -0.959635
vn 0.280207 -0.024168 -0.959635
vn 0.280207 -0.024168 -0.959635
vn 0.280207 -0.024168 -0.959635
vn 0.044648 -0.974160 -0.221402
vn 0.044648 -0.974160 -0.221402
vn 0.044648 -0.974160 -0.221402
vn 0.044648 -0.974160 -0.221402
vn 0.007205 -0.991655 -0.128720
vn 0.007205 -0.991655 -0.128720
vn 0.007205 -0.991655 -0.128720
vn 0.007205 -0.991655 -0.128720
vn 0.007223 -0.991655 0.128719
vn 0.007223 -0.991655 0.128719
vn 0.007223 -0.991655 0.128719
vn 0.007223 -0.991655 0.128719
vn 0.044700 -0.974116 0.221585
vn 0.044700 -0.974116 0.221585
vn 0.044700 -0.974116 0.221585
vn 0.044700 -0.974116 0.221585
vn 0.280207 -0.024169 0.959635
vn 0.280207 -0.024169 0.959635
vn 0.280207 -0.024169 0.959635
vn 0.280207 -0.024169 0.959635
vn -0.332176 0.405660 0.851527
vn -0.332176 0.405660 0.851527
vn -0.332176 0.405660 0.851527
vn -0.332176 0.405660 0.851527
vn -0.027215 0.945193 0.325376
vn -0.027215 0.945193 0.325376
vn -0.027215 0.945193 0.325376
vn -0.027215 0.945193 0.325376
vn 0.000000 0.996020 0.089130
vn 0.000000 0.996020 0.089130
vn 0.000000 0.996020 0.089130
vn 0.000000 0.996020 0.089130
vn 0.000000 0.996020 -0.089130
vn 0.000000 0.996020 -0.089130
vn 0.000000 0.996020 -0.089130
vn 0.000000 0.996020 -0.089130
vn -0.017634 0.947634 -0.318873
vn -0.017634 0.947634 -0.318873
vn -0.017634 0.947634 -0.318873
vn -0.017634 0.947634 -0.318873
vn -0.274447 0.412712 -0.868532
vn -0.274447 0.412712 -0.868532
vn -0.274447 0.412712 -0.868532
vn -0.274447 0.412712 -0.868532
vn -0.153946 0.223610 -0.962444
vn -0.192689 0.195855 -0.961515
vn -0.020271 0.313722 -0.949299
vn 0.792308 0.551374 -0.261219
vn 0.792308 0.551374 -0.261219
vn 0.792308 0.551374 -0.261219
vn 0.792308 0.551374 -0.261219
vn 0.824223 0.566065 -0.015071
vn 0.824223 0.566065 -0.015071
vn 0.824223 0.566065 -0.015071
vn 0.824223 0.566065 -0.015071
vn 0.824165 0.566147 0.015162
vn 0.824165 0.566147 0.015162
vn 0.824165 0.566147 0.015162
vn 0.824165 0.566147 0.015162
vn 0.791248 0.551605 0.263930
vn 0.791248 0.551605 0.263930
vn 0.791248 0.551605 0.263930
vn 0.791248 0.551605 0.263930
vn -0.229106 0.133049 0.964266
vn -0.110786 0.222182 0.968691
vn -0.145484 0.196738 0.969602
vn -0.229106 0.133049 0.964266
vn 0.026371 0.317373 0.947934
vn -0.485807 0.260137 0.834458
vn -0.485807 0.260137 0.834459
vn -0.274501 0.134673 -0.952109
vn -0.274501 0.134673 -0.952109
vn -0.515006 -0.191427 -0.835539
vn -0.515006 -0.191427 -0.835539
vn 1.000000 0.000000 0.000000
vn 1.000000 0.000000 0.000000
vn 1.000000 0.000000 0.000000
vn 1.000000 0.000000 0.000000
vn 1.000000 -0.000000 0.000000
vn 1.000000 -0.000000 0.000000
vn 1.000000 -0.000000 0.000000
vn 1.000000 -0.000000 0.000000
vn 1.000000 0.000001 0.000000
vn 1.000000 0.000001 0.000000
vn 1.000000 0.000001 0.000000
s 1
g riverSource
usemtl initialShadingGroup
f 45/62/1 46/63/2 30/47/3 31/48/4
s off
f 30/47/5 33/50/6 34/51/7 31/48/8
f 33/50/9 35/52/10 36/53/11 34/51/12
f 35/52/13 37/54/14 38/55/15 36/53/16
f 37/54/17 39/56/18 40/57/19 38/55/20
s 2
f 43/60/21 44/61/22 41/58/23 42/59/24
s off
f 9/2/25 8/1/26 16/9/27 15/8/28
f 10/3/29 9/2/30 15/8/31 17/10/32
f 11/4/33 10/3/34 17/10/35 18/11/36
f 12/5/37 11/4/38 18/11/39 19/12/40
f 13/6/41 12/5/42 19/12/43 20/13/44
f 14/7/45 13/6/46 20/13/47 21/14/48
f 13/15/49 14/16/50 7/17/51 6/18/52
f 12/19/53 13/20/54 6/21/55 5/22/56
f 11/23/57 12/24/58 5/25/59 4/26/60
f 10/27/61 11/28/62 4/29/63 3/30/64
f 9/31/65 10/32/66 3/33/67 2/34/68
f 8/35/69 9/36/70 2/37/71 1/38/72
f 23/40/73 22/39/74 21/14/75 20/13/76
f 24/41/77 23/40/78 20/13/79 19/12/80
f 25/42/81 24/41/82 19/12/83 18/11/84
f 26/43/85 25/42/86 18/11/87 17/10/88
f 27/44/89 26/43/90 17/10/91 15/8/92
f 28/45/93 27/44/94 15/8/95 16/9/96
s 3
f 27/44/97 45/62/98 31/48/99
s off
f 26/43/100 27/44/101 31/48/102 34/51/103
f 25/42/104 26/43/105 34/51/106 36/53/107
f 24/41/108 25/42/109 36/53/110 38/55/111
f 23/40/112 24/41/113 38/55/114 40/57/115
s 4
f 22/39/116 23/40/117 43/60/118 42/59/119
f 43/60/118 23/40/117 40/57/120
s 2
f 39/56/121 44/61/22 43/60/21 40/57/122
s 3
f 27/44/97 28/45/123 32/49/124 45/62/98
s 1
f 29/46/125 46/63/2 45/62/1 32/49/126
s off
f 1/64/127 2/65/128 6/66/129 7/67/130
f 2/68/131 3/69/132 5/70/133 6/71/134
f 4/72/135 5/73/136 3/74/137
