# This file uses centimeters as units for non-parametric coordinates.

mtllib RotatorChunk.mtl
g default
v 0.846725 0.117184 -1.460842
v -0.846744 0.117184 -1.466527
v -1.693438 0.117184 0.000000
v -0.846744 0.117184 1.466526
v 0.846725 0.117184 1.460842
v 1.693500 0.117184 -0.000000
v 0.846725 0.999999 -1.460842
v -0.846744 0.999999 -1.466527
v -1.693438 0.999999 0.000000
v -0.846744 0.999999 1.466526
v 0.846725 0.999999 1.460842
v 1.693460 0.999999 -0.000000
v 2.000143 0.117183 -1.716025
v 1.000071 0.117183 -1.718013
v 2.000143 0.117183 0.000000
v 2.500143 0.117183 -0.850000
v 2.000143 1.000000 -1.716025
v 1.000071 1.000000 -1.718013
v 2.000143 1.000000 0.000000
v 2.500143 1.000000 -0.850000
v 1.500142 0.117183 -0.850000
v 1.500142 1.000000 -0.850000
v 0.500000 0.117183 -2.586025
v -0.500000 0.117183 -2.586025
v -1.000000 0.117183 -1.723013
v 0.500000 1.000000 -2.586025
v -0.500000 1.000000 -2.586025
v -1.000000 1.000000 -1.723013
v 0.000000 0.117183 -1.720000
v 0.000000 1.000000 -1.720000
v -1.000000 0.117183 1.723013
v -0.500000 0.117183 2.586025
v 0.500000 0.117183 2.586025
v 1.000071 0.117183 1.718013
v -1.000000 1.000000 1.723013
v -0.500000 1.000000 2.586025
v 0.500000 1.000000 2.586025
v 1.000071 1.000000 1.718013
v 0.000000 0.117183 1.720000
v 0.000000 1.000000 1.720000
v 2.000142 0.117183 1.716025
v 2.500143 0.117183 0.850000
v 2.000142 1.000000 1.716025
v 2.500143 1.000000 0.850000
v 1.500142 0.117183 0.850000
v 1.500142 1.000000 0.850000
v -2.000000 0.117183 -1.726026
v -2.500000 0.117183 -0.860000
v -2.000000 0.117183 -0.000000
v -2.000000 1.000000 -1.726026
v -2.500000 1.000000 -0.860000
v -2.000000 1.000000 -0.000000
v -1.500000 0.117183 -0.860000
v -1.500000 1.000000 -0.860000
v -2.500000 0.117183 0.860000
v -2.000000 0.117183 1.726025
v -2.500000 1.000000 0.860000
v -2.000000 1.000000 1.726025
v -1.500000 0.117183 0.860000
v -1.500000 1.000000 0.860000
vt 0.452659 0.720299
vt 0.452659 0.817811
vt 0.366580 0.817811
vt 0.366580 0.720299
vt 0.452659 0.671546
vt 0.366580 0.671546
vt 0.343267 0.086237
vt 0.440779 0.086431
vt 0.392026 0.170873
vt 0.489531 0.170873
vt 0.328315 0.111313
vt 0.440779 0.253752
vt 0.245755 0.086043
vt 0.410879 0.253752
vt 0.294507 0.001602
vt 0.392026 0.336631
vt 0.197002 0.001602
vt 0.489531 0.336631
vt 0.148250 0.085750
vt 0.440779 0.421073
vt 0.163193 0.110758
vt 0.343267 0.421267
vt 0.099497 0.169898
vt 0.328315 0.396192
vt 0.050745 0.085456
vt 0.001992 0.169898
vt 0.050745 0.253752
vt 0.080636 0.253752
vt 0.099497 0.337606
vt 0.001992 0.337606
vt 0.050745 0.422048
vt 0.148250 0.421755
vt 0.163193 0.396746
vt 0.245755 0.421461
vt 0.197002 0.505903
vt 0.294507 0.505903
vt 0.442150 0.421073
vt 0.344638 0.421267
vt 0.393397 0.336631
vt 0.329686 0.396192
vt 0.490902 0.336631
vt 0.247126 0.421461
vt 0.442150 0.253752
vt 0.295878 0.505903
vt 0.412247 0.253752
vt 0.198373 0.505903
vt 0.393397 0.170873
vt 0.149621 0.421755
vt 0.490902 0.170873
vt 0.164564 0.396746
vt 0.442150 0.086431
vt 0.100868 0.337606
vt 0.344638 0.086237
vt 0.052116 0.422048
vt 0.329686 0.111313
vt 0.003363 0.337606
vt 0.052116 0.253752
vt 0.082007 0.253752
vt 0.100868 0.169898
vt 0.003363 0.169898
vt 0.052116 0.085456
vt 0.149621 0.085750
vt 0.164564 0.110758
vt 0.247126 0.086043
vt 0.198373 0.001602
vt 0.295878 0.001602
vt 0.998008 0.509894
vt 0.998008 0.607399
vt 0.911929 0.607399
vt 0.911929 0.509894
vt 0.998008 0.656152
vt 0.911929 0.656152
vt 0.998008 0.753657
vt 0.911929 0.753657
vt 0.998008 0.802409
vt 0.911929 0.802409
vt 0.001992 0.660150
vt 0.086628 0.660150
vt 0.086628 0.746229
vt 0.001992 0.746229
vt 0.635286 0.607399
vt 0.635286 0.509894
vt 0.721365 0.509894
vt 0.721365 0.607399
vt 0.635286 0.656152
vt 0.721365 0.656152
vt 0.635286 0.753657
vt 0.721365 0.753657
vt 0.093788 0.660150
vt 0.178423 0.660150
vt 0.178423 0.746229
vt 0.093788 0.746229
vt 0.271941 0.707079
vt 0.271941 0.609567
vt 0.358020 0.609567
vt 0.358020 0.707079
vt 0.271941 0.560814
vt 0.358020 0.560814
vt 0.851811 0.201672
vt 0.851811 0.117230
vt 0.937890 0.117230
vt 0.937890 0.201672
vt 0.851811 0.285527
vt 0.937890 0.285527
vt 0.851811 0.369381
vt 0.937890 0.369381
vt 1.253944 0.253304
vt 1.253944 0.169450
vt 1.340023 0.169450
vt 1.340023 0.253304
vt 1.253944 0.110311
vt 1.340023 0.110311
vt 1.253944 0.337159
vt 1.340023 0.337159
vt 1.253944 0.396298
vt 1.340023 0.396298
vt 1.252738 0.643560
vt 1.252738 0.560998
vt 1.338817 0.560998
vt 1.338817 0.643560
vt 1.338817 0.478438
vt 1.252738 0.478438
vt 1.338817 0.414727
vt 1.252738 0.414727
vt 1.121060 0.643560
vt 1.121059 0.560998
vt 1.207139 0.560998
vt 1.207138 0.643560
vt 1.121060 0.478438
vt 1.207138 0.478438
vt 1.121059 0.414727
vt 1.207139 0.414727
vt 1.126851 0.402804
vt 1.126851 0.319924
vt 1.212930 0.319924
vt 1.212930 0.402804
vt 1.126851 0.237045
vt 1.212930 0.237045
vt 0.463221 0.628291
vt 0.463221 0.545411
vt 0.549300 0.545411
vt 0.549300 0.628291
vt 0.463221 0.711170
vt 0.549300 0.711170
vt 0.233473 0.746229
vt 0.218521 0.746229
vt 0.218521 0.660150
vt 0.233473 0.660150
vt 0.185388 0.660150
vt 0.210464 0.660150
vt 0.210464 0.746229
vt 0.185388 0.746229
vn 0.001987 0.000000 -0.999998
vn 0.001987 0.000000 -0.999998
vn 0.001987 0.000000 -0.999998
vn 0.001987 0.000000 -0.999998
vn 0.861934 0.000000 0.507020
vn 0.861934 0.000000 0.507020
vn 0.861934 0.000000 0.507020
vn 0.861934 0.000000 0.507020
vn 0.866025 0.000000 -0.500000
vn 0.866025 0.000000 -0.500000
vn 0.866025 0.000000 -0.500000
vn 0.866025 0.000000 -0.500000
vn 0.000000 -1.000000 0.000000
vn 0.000000 -1.000000 0.000000
vn 0.000000 -1.000000 0.000000
vn -0.000002 -1.000000 0.000001
vn -0.000002 -1.000000 0.000001
vn -0.000002 -1.000000 0.000001
vn -0.000002 -1.000000 0.000001
vn -0.000002 -1.000000 0.000001
vn -0.000002 -1.000000 0.000001
vn 0.000000 -1.000000 0.000000
vn 0.000000 -1.000000 0.000000
vn 0.000000 1.000000 0.000000
vn 0.000000 1.000000 0.000000
vn 0.000000 1.000000 0.000000
vn -0.000002 1.000000 0.000001
vn -0.000002 1.000000 0.000001
vn -0.000002 1.000000 0.000001
vn -0.000002 1.000000 0.000001
vn -0.000002 1.000000 0.000001
vn -0.000002 1.000000 0.000001
vn 0.000000 1.000000 0.000000
vn 0.000000 1.000000 0.000000
vn 0.000000 0.000000 -1.000000
vn 0.000000 0.000000 -1.000000
vn 0.000000 0.000000 -1.000000
vn 0.000000 0.000000 -1.000000
vn -0.865269 0.000000 -0.501307
vn -0.865269 0.000000 -0.501307
vn -0.865269 0.000000 -0.501307
vn -0.865269 0.000000 -0.501307
vn 0.866490 0.000000 -0.499194
vn 0.866490 0.000000 -0.499194
vn 0.866490 0.000000 -0.499194
vn 0.866490 0.000000 -0.499194
vn 0.000000 -1.000000 -0.000000
vn 0.000000 -1.000000 -0.000000
vn 0.000000 -1.000000 -0.000000
vn 0.000000 -1.000000 0.000000
vn 0.000000 -1.000000 0.000000
vn 0.000000 -1.000000 0.000000
vn -0.000000 -1.000000 0.000003
vn -0.000000 -1.000000 0.000003
vn -0.000000 -1.000000 0.000003
vn -0.000000 -1.000000 0.000003
vn -0.000000 -1.000000 0.000003
vn -0.000000 -1.000000 0.000003
vn 0.000000 -1.000000 0.000000
vn 0.000000 -1.000000 0.000000
vn 0.000000 -1.000000 0.000000
vn 0.000000 1.000000 0.000000
vn 0.000000 1.000000 0.000000
vn 0.000000 1.000000 0.000000
vn 0.000000 1.000000 -0.000000
vn 0.000000 1.000000 -0.000000
vn 0.000000 1.000000 -0.000000
vn -0.000000 1.000000 0.000003
vn -0.000000 1.000000 0.000003
vn -0.000000 1.000000 0.000003
vn -0.000000 1.000000 0.000003
vn -0.000000 1.000000 0.000003
vn -0.000000 1.000000 0.000003
vn 0.000000 1.000000 0.000000
vn -0.865269 0.000000 0.501307
vn -0.865269 0.000000 0.501307
vn -0.865269 0.000000 0.501307
vn -0.865269 0.000000 0.501307
vn 0.000000 0.000000 1.000000
vn 0.000000 0.000000 1.000000
vn 0.000000 0.000000 1.000000
vn 0.000000 0.000000 1.000000
vn 0.866490 0.000000 0.499194
vn 0.866490 0.000000 0.499194
vn 0.866490 0.000000 0.499194
vn 0.866490 0.000000 0.499194
vn 0.858899 0.000000 -0.512145
vn 0.858899 0.000000 -0.512145
vn 0.858899 0.000000 -0.512145
vn 0.858899 0.000000 -0.512145
vn -0.000000 -1.000000 -0.000003
vn -0.000000 -1.000000 -0.000003
vn -0.000000 -1.000000 -0.000003
vn 0.000000 -1.000000 0.000000
vn 0.000000 -1.000000 0.000000
vn 0.000000 -1.000000 0.000000
vn 0.000000 -1.000000 0.000000
vn 0.000000 -1.000000 0.000000
vn 0.000000 -1.000000 0.000000
vn 0.000000 -1.000000 0.000000
vn 0.000000 -1.000000 0.000000
vn 0.000000 -1.000000 0.000000
vn -0.000000 -1.000000 -0.000003
vn -0.000000 -1.000000 -0.000003
vn -0.000000 -1.000000 -0.000003
vn -0.000000 1.000000 -0.000003
vn -0.000000 1.000000 -0.000003
vn -0.000000 1.000000 -0.000003
vn 0.000000 1.000000 0.000000
vn 0.000000 1.000000 0.000000
vn 0.000000 1.000000 0.000000
vn 0.000000 1.000000 0.000000
vn 0.000000 1.000000 0.000000
vn 0.000000 1.000000 0.000000
vn 0.000000 1.000000 0.000000
vn -0.000000 1.000000 -0.000003
vn -0.000000 1.000000 -0.000003
vn -0.000000 1.000000 -0.000003
vn -0.858899 0.000000 0.512145
vn -0.858899 0.000000 0.512145
vn -0.858899 0.000000 0.512145
vn -0.858899 0.000000 0.512145
vn 0.001987 0.000000 0.999998
vn 0.001987 0.000000 0.999998
vn 0.001987 0.000000 0.999998
vn 0.001987 0.000000 0.999998
vn 0.866025 0.000000 0.500000
vn 0.866025 0.000000 0.500000
vn 0.866025 0.000000 0.500000
vn 0.866025 0.000000 0.500000
vn 0.861934 0.000000 -0.507020
vn 0.861934 0.000000 -0.507020
vn 0.861934 0.000000 -0.507020
vn 0.861934 0.000000 -0.507020
vn -0.000002 -1.000000 -0.000001
vn -0.000002 -1.000000 -0.000001
vn -0.000002 -1.000000 -0.000001
vn -0.000002 -1.000000 -0.000001
vn -0.000002 -1.000000 -0.000001
vn -0.000002 -1.000000 -0.000001
vn 0.000000 -1.000000 0.000000
vn 0.000000 -1.000000 0.000000
vn 0.000000 -1.000000 0.000000
vn 0.000000 -1.000000 0.000000
vn 0.000000 -1.000000 0.000000
vn 0.000000 -1.000000 0.000000
vn 0.000000 -1.000000 0.000000
vn -0.000002 1.000000 -0.000001
vn -0.000002 1.000000 -0.000001
vn -0.000002 1.000000 -0.000001
vn -0.000002 1.000000 -0.000001
vn -0.000002 1.000000 -0.000001
vn -0.000002 1.000000 -0.000001
vn 0.000000 1.000000 0.000000
vn 0.000000 1.000000 0.000000
vn 0.000000 1.000000 0.000000
vn 0.000000 1.000000 0.000000
vn 0.000000 1.000000 0.000000
vn 0.000000 1.000000 0.000000
vn 0.000000 1.000000 0.000000
vn 0.003013 0.000000 -0.999996
vn 0.003013 0.000000 -0.999996
vn 0.003013 0.000000 -0.999996
vn 0.003013 0.000000 -0.999996
vn -0.866025 0.000000 -0.500000
vn -0.866025 0.000000 -0.500000
vn -0.866025 0.000000 -0.500000
vn -0.866025 0.000000 -0.500000
vn -0.864507 0.000000 0.502620
vn -0.864507 0.000000 0.502620
vn -0.864507 0.000000 0.502620
vn -0.864507 0.000000 0.502620
vn 0.000000 -1.000000 0.000000
vn 0.000000 -1.000000 0.000000
vn 0.000000 -1.000000 0.000000
vn 0.000000 -1.000000 0.000000
vn 0.000000 -1.000000 0.000000
vn 0.000002 -1.000000 0.000001
vn 0.000002 -1.000000 0.000001
vn 0.000002 -1.000000 0.000001
vn 0.000002 -1.000000 0.000001
vn 0.000002 -1.000000 0.000001
vn 0.000002 -1.000000 0.000001
vn 0.000000 1.000000 0.000000
vn 0.000000 1.000000 0.000000
vn 0.000000 1.000000 0.000000
vn 0.000000 1.000000 0.000000
vn 0.000000 1.000000 0.000000
vn 0.000002 1.000000 0.000001
vn 0.000002 1.000000 0.000001
vn 0.000002 1.000000 0.000001
vn 0.000002 1.000000 0.000001
vn 0.000002 1.000000 0.000001
vn 0.000002 1.000000 0.000001
vn -0.864507 0.000000 -0.502621
vn -0.864507 0.000000 -0.502621
vn -0.864507 0.000000 -0.502621
vn -0.864507 0.000000 -0.502621
vn -0.866025 0.000000 0.500000
vn -0.866025 0.000000 0.500000
vn -0.866025 0.000000 0.500000
vn -0.866025 0.000000 0.500000
vn 0.003013 0.000000 0.999996
vn 0.003013 0.000000 0.999996
vn 0.003013 0.000000 0.999996
vn 0.003013 0.000000 0.999996
vn 0.000002 -1.000000 -0.000001
vn 0.000002 -1.000000 -0.000001
vn 0.000002 -1.000000 -0.000001
vn 0.000000 -1.000000 0.000000
vn 0.000000 -1.000000 0.000000
vn 0.000000 -1.000000 0.000000
vn 0.000000 -1.000000 0.000000
vn 0.000000 -1.000000 0.000000
vn 0.000002 -1.000000 -0.000001
vn 0.000002 -1.000000 -0.000001
vn 0.000002 -1.000000 -0.000001
vn 0.000002 1.000000 -0.000001
vn 0.000002 1.000000 -0.000001
vn 0.000002 1.000000 -0.000001
vn 0.000000 1.000000 0.000000
vn 0.000000 1.000000 0.000000
vn 0.000000 1.000000 0.000000
vn 0.000000 1.000000 0.000000
vn 0.000000 1.000000 0.000000
vn 0.000002 1.000000 -0.000001
vn 0.000002 1.000000 -0.000001
vn 0.000002 1.000000 -0.000001
vn 1.000000 0.000000 0.000000
vn 0.866893 0.000000 0.498494
vn 0.866893 0.000000 0.498494
vn 1.000000 0.000000 0.000000
vn 0.866893 0.000000 -0.498494
vn 1.000000 0.000000 0.000000
vn 1.000000 0.000000 0.000000
vn 0.866893 0.000000 -0.498494
vn 0.496526 0.000000 -0.868022
vn 0.866893 0.000000 -0.498494
vn 0.866893 0.000000 -0.498494
vn 0.496526 0.000000 -0.868022
vn 0.496526 0.000000 -0.868022
vn -0.003078 0.000000 -0.999995
vn -0.003078 0.000000 -0.999995
vn 0.496526 0.000000 -0.868022
vn 0.866893 0.000000 0.498494
vn 0.496525 0.000000 0.868022
vn 0.496525 0.000000 0.868022
vn 0.866893 0.000000 0.498494
vn 0.496525 0.000000 0.868022
vn -0.003078 0.000000 0.999995
vn -0.003078 0.000000 0.999995
vn 0.496525 0.000000 0.868022
vn -0.003078 0.000000 0.999995
vn -0.500673 0.000000 0.865637
vn -0.500673 0.000000 0.865637
vn -0.003078 0.000000 0.999995
vn -0.500673 0.000000 0.865637
vn -0.867145 -0.000005 0.498057
vn -0.867145 -0.000005 0.498057
vn -0.500673 0.000000 0.865637
vn -0.867145 -0.000005 0.498057
vn -1.000000 -0.000010 0.000000
vn -1.000000 -0.000010 0.000000
vn -0.867145 -0.000005 0.498057
vn -1.000000 -0.000010 0.000000
vn -0.867145 -0.000005 -0.498057
vn -0.867145 -0.000005 -0.498057
vn -1.000000 -0.000010 0.000000
vn -0.867145 -0.000005 -0.498057
vn -0.500673 0.000000 -0.865637
vn -0.500673 0.000000 -0.865637
vn -0.867145 -0.000005 -0.498057
vn -0.500673 0.000000 -0.865637
vn -0.003078 0.000000 -0.999995
vn -0.003078 0.000000 -0.999995
vn -0.500673 0.000000 -0.865637
s off
g pCylinder8
usemtl initialShadingGroup
f 13/1/1 14/2/2 18/3/3 17/4/4
f 15/139/5 16/140/6 20/141/7 19/142/8
f 16/5/9 13/1/10 17/4/11 20/6/12
s 1
f 14/7/13 13/8/14 21/9/15
s off
f 1/11/16 14/7/17 21/9/18
f 15/12/19 6/14/20 21/9/21
s 1
f 16/10/22 15/12/23 21/9/15
f 13/8/14 16/10/22 21/9/15
s 2
f 17/37/24 18/38/25 22/39/26
s off
f 18/38/27 7/40/28 22/39/29
f 12/45/30 19/43/31 22/39/32
s 2
f 19/43/33 20/41/34 22/39/26
f 20/41/34 17/37/24 22/39/26
s off
f 23/67/35 24/68/36 27/69/37 26/70/38
f 24/68/39 25/71/40 28/72/41 27/69/42
f 14/77/43 23/78/44 26/79/45 18/80/46
f 24/17/47 23/15/48 29/13/49
f 25/19/50 24/17/51 29/13/52
f 2/21/53 25/19/54 29/13/55
f 14/7/56 1/11/57 29/13/58
f 23/15/59 14/7/60 29/13/61
s 3
f 26/44/62 27/46/63 30/42/64
s off
f 27/46/65 28/48/66 30/42/67
f 28/48/68 8/50/69 30/42/70
f 7/40/71 18/38/72 30/42/73
s 3
f 18/38/74 26/44/62 30/42/64
s off
f 31/85/75 32/81/76 36/84/77 35/86/78
f 32/81/79 33/82/80 37/83/81 36/84/82
f 33/89/83 34/90/84 38/91/85 37/92/86
f 34/145/87 5/146/88 11/147/89 38/148/90
f 31/32/91 4/33/92 39/34/93
f 32/35/94 31/32/95 39/34/96
f 33/36/97 32/35/98 39/34/99
f 34/22/100 33/36/101 39/34/102
f 5/24/103 34/22/104 39/34/105
f 10/63/106 35/62/107 40/64/108
s 4
f 35/62/109 36/65/110 40/64/111
f 36/65/110 37/66/112 40/64/111
s off
f 37/66/113 38/53/114 40/64/115
f 38/53/116 11/55/117 40/64/118
f 5/149/119 34/150/120 38/151/121 11/152/122
f 34/93/123 41/94/124 43/95/125 38/96/126
f 41/94/127 42/97/128 44/98/129 43/95/130
f 42/143/131 15/139/132 19/142/133 44/144/134
f 6/14/135 15/12/136 45/16/137
f 34/22/138 5/24/139 45/16/140
s 5
f 41/20/141 34/22/142 45/16/143
f 42/18/144 41/20/141 45/16/143
s off
f 15/12/145 42/18/146 45/16/147
f 19/43/148 12/45/149 46/47/150
f 11/55/151 38/53/152 46/47/153
s 6
f 38/53/154 43/51/155 46/47/156
f 43/51/155 44/49/157 46/47/156
s off
f 44/49/158 19/43/159 46/47/160
f 25/71/161 47/73/162 50/74/163 28/72/164
f 47/73/165 48/75/166 51/76/167 50/74/168
f 48/105/169 49/103/170 52/104/171 51/106/172
s 7
f 47/25/173 25/19/174 53/23/175
f 48/26/176 47/25/173 53/23/175
f 49/27/177 48/26/176 53/23/175
s off
f 3/28/178 49/27/179 53/23/180
f 25/19/181 2/21/182 53/23/183
s 8
f 28/48/184 50/54/185 54/52/186
f 50/54/185 51/56/187 54/52/186
f 51/56/187 52/57/188 54/52/186
s off
f 52/57/189 9/58/190 54/52/191
f 8/50/192 28/48/193 54/52/194
f 49/103/195 55/99/196 57/102/197 52/104/198
f 55/99/199 56/100/200 58/101/201 57/102/202
f 56/87/203 31/85/204 35/86/205 58/88/206
f 49/27/207 3/28/208 59/29/209
s 9
f 55/30/210 49/27/211 59/29/212
f 56/31/213 55/30/210 59/29/212
f 31/32/214 56/31/213 59/29/212
s off
f 4/33/215 31/32/216 59/29/217
f 9/58/218 52/57/219 60/59/220
s 10
f 52/57/221 57/60/222 60/59/223
f 57/60/222 58/61/224 60/59/223
f 58/61/224 35/62/225 60/59/223
s off
f 35/62/226 10/63/227 60/59/228
f 3/107/229 53/108/230 54/109/231 9/110/232
f 59/113/233 3/107/234 9/110/235 60/114/236
f 4/115/237 59/113/238 60/114/239 10/116/240
f 10/117/241 40/118/242 39/119/243 4/120/244
f 53/108/245 2/111/246 8/112/247 54/109/248
f 2/125/249 29/126/250 30/127/251 8/128/252
f 29/126/253 1/129/254 7/130/255 30/127/256
f 1/129/257 21/131/258 22/132/259 7/130/260
f 21/133/261 6/134/262 12/135/263 22/136/264
f 6/134/265 45/137/266 46/138/267 12/135/268
f 45/123/269 5/121/270 11/122/271 46/124/272
f 5/121/273 39/119/274 40/118/275 11/122/276
