# This file uses centimeters as units for non-parametric coordinates.

mtllib grdiHex_01.mtl
g default
v 0.500000 1.000000 -0.866025
v -0.500000 1.000000 -0.866026
v -1.000000 1.000000 0.000000
v 1.000000 1.000000 0.000000
v 0.500000 1.000000 0.000000
v -0.500000 1.000000 0.000000
v 0.002351 1.000000 0.000000
v -0.001170 1.000000 -0.866025
v 0.500000 1.000000 -0.425224
v 0.000949 1.000000 -0.425224
v -0.500000 1.000000 -0.425224
v 0.500000 1.000000 -0.633943
v 0.000457 1.000000 -0.633943
v -0.500000 1.000000 -0.633943
v 0.633993 1.000000 -0.633943
v -0.633993 1.000000 -0.633943
v 0.755290 1.000000 -0.423850
v -0.755290 1.000000 -0.423850
v 0.870946 1.000000 -0.223529
v 0.500000 1.000000 -0.223529
v -0.500000 1.000000 -0.223529
v 0.001443 1.000000 -0.223529
v -0.870946 1.000000 -0.223529
v 0.633908 1.000000 -0.425224
v 0.633908 1.000000 -0.223529
v 0.633908 1.000000 0.000000
v 0.870502 1.000000 0.000000
v 0.753871 1.000000 -0.223529
v 0.753871 1.000000 0.000000
v 0.255394 1.000000 -0.866025
v 0.255394 1.000000 0.000000
v 0.255394 1.000000 -0.425224
v 0.255394 1.000000 -0.633943
v 0.255394 1.000000 -0.223529
v -0.254602 1.000000 0.000000
v -0.254602 1.000000 -0.866025
v -0.254602 1.000000 -0.425224
v -0.254602 1.000000 -0.633943
v -0.254602 1.000000 -0.223529
v -0.634648 1.000000 -0.425224
v -0.634648 1.000000 -0.223529
v -0.634648 1.000000 0.000000
v -0.755905 1.000000 -0.223529
v -0.755905 1.000000 0.000000
v -0.871621 1.000000 0.000000
v -0.254602 0.000981 -0.866025
v -0.500000 0.000981 -0.866026
v -0.633993 0.000981 -0.633943
v 0.870946 0.000981 -0.223529
v 1.000000 0.000981 0.000000
v 0.001921 0.000981 0.000000
v -0.001170 0.000981 -0.866025
v 0.500000 0.000981 -0.866025
v 0.255394 0.000981 -0.866025
v 0.633993 0.000981 -0.633943
v -0.755290 0.000981 -0.423850
v 0.755290 0.000981 -0.423850
v -0.870946 0.000981 -0.223529
v -1.000000 0.000981 0.000000
v -0.254602 1.000000 0.866026
v -0.500000 1.000000 0.866026
v -0.633993 1.000000 0.633943
v 0.870946 1.000000 0.223529
v -0.254602 1.000000 0.633943
v -0.634648 1.000000 0.223529
v -0.500000 1.000000 0.223529
v -0.001170 1.000000 0.866026
v 0.000457 1.000000 0.633943
v 0.500000 1.000000 0.866025
v 0.255394 1.000000 0.866025
v 0.255394 1.000000 0.633943
v 0.500000 1.000000 0.633943
v -0.500000 1.000000 0.425224
v -0.254602 1.000000 0.223529
v -0.254602 1.000000 0.425224
v 0.000949 1.000000 0.425224
v 0.001443 1.000000 0.223529
v 0.255394 1.000000 0.223529
v 0.255394 1.000000 0.425224
v 0.633993 1.000000 0.633943
v -0.755290 1.000000 0.423850
v -0.500000 1.000000 0.633943
v 0.500000 1.000000 0.425224
v 0.755290 1.000000 0.423850
v -0.634648 1.000000 0.425224
v 0.633908 1.000000 0.425224
v -0.870946 1.000000 0.223529
v 0.753871 1.000000 0.223529
v 0.500000 1.000000 0.223529
v 0.633908 1.000000 0.223529
v -0.755905 1.000000 0.223529
v -0.254602 0.000981 0.866026
v -0.500000 0.000981 0.866026
v -0.633993 0.000981 0.633943
v 0.870946 0.000981 0.223529
v -0.001170 0.000981 0.866026
v 0.500000 0.000981 0.866025
v 0.255394 0.000981 0.866025
v 0.633993 0.000981 0.633943
v -0.755290 0.000981 0.423850
v 0.755290 0.000981 0.423850
v -0.870946 0.000981 0.223529
v 0.500000 0.669535 -0.866025
v 0.633993 0.669535 -0.633943
v 0.755290 0.669535 -0.423850
v 0.870946 0.669535 -0.223529
v 1.000000 0.669535 0.000000
v 0.870946 0.669535 0.223529
v 0.755290 0.669535 0.423850
v 0.633993 0.669535 0.633943
v 0.500000 0.669535 0.866025
v 0.255394 0.669535 0.866025
v -0.001170 0.669535 0.866026
v -0.254602 0.669535 0.866026
v -0.500000 0.669535 0.866026
v -0.633993 0.669535 0.633943
v -0.755290 0.669535 0.423850
v -0.870946 0.669535 0.223529
v -1.000000 0.669535 0.000000
v -0.870946 0.669535 -0.223529
v -0.755290 0.669535 -0.423850
v -0.633993 0.669535 -0.633943
v -0.500000 0.669535 -0.866026
v -0.254602 0.669535 -0.866025
v -0.001170 0.669535 -0.866025
v 0.255394 0.669535 -0.866025
v 0.500000 0.335465 -0.866025
v 0.633993 0.335465 -0.633943
v 0.755290 0.335465 -0.423850
v 0.870946 0.335465 -0.223529
v 1.000000 0.335465 0.000000
v 0.870946 0.335465 0.223529
v 0.755290 0.335465 0.423850
v 0.633993 0.335465 0.633943
v 0.500000 0.335465 0.866025
v 0.255394 0.335465 0.866025
v -0.001170 0.335465 0.866026
v -0.254602 0.335465 0.866026
v -0.500000 0.335465 0.866026
v -0.633993 0.335465 0.633943
v -0.755290 0.335465 0.423850
v -0.870946 0.335465 0.223529
v -1.000000 0.335465 0.000000
v -0.870946 0.335465 -0.223529
v -0.755290 0.335465 -0.423850
v -0.633993 0.335465 -0.633943
v -0.500000 0.335465 -0.866026
v -0.254602 0.335465 -0.866025
v -0.001170 0.335465 -0.866025
v 0.255394 0.335465 -0.866025
vt 0.375000 0.688440
vt 0.416667 0.688440
vt 0.458333 0.688440
vt 0.583333 0.688440
vt 0.625000 0.688440
vt 0.343750 0.843750
vt 0.421875 0.979066
vt 0.578125 0.979066
vt 0.656250 0.843750
vt 0.578125 0.843750
vt 0.421875 0.843750
vt 0.500522 0.843750
vt 0.500000 0.979066
vt 0.395833 0.688440
vt 0.578125 0.897525
vt 0.500314 0.897650
vt 0.421875 0.897525
vt 0.578125 0.916551
vt 0.500241 0.916551
vt 0.421875 0.916551
vt 0.599061 0.942804
vt 0.613834 0.688440
vt 0.400939 0.942804
vt 0.427833 0.688440
vt 0.618014 0.909977
vt 0.603726 0.688440
vt 0.381986 0.909977
vt 0.437941 0.688440
vt 0.636085 0.878676
vt 0.594088 0.688440
vt 0.578125 0.878676
vt 0.421875 0.878676
vt 0.500387 0.878676
vt 0.363915 0.878676
vt 0.447579 0.688440
vt 0.600633 0.904497
vt 0.602132 0.878676
vt 0.603804 0.843750
vt 0.636821 0.843750
vt 0.619099 0.878676
vt 0.620309 0.843750
vt 0.558790 0.979066
vt 0.380156 0.688440
vt 0.558790 0.843750
vt 0.558790 0.897650
vt 0.558790 0.916551
vt 0.558790 0.878676
vt 0.441334 0.843750
vt 0.441334 0.979066
vt 0.411478 0.688440
vt 0.441334 0.897650
vt 0.441334 0.916551
vt 0.441334 0.878676
vt 0.400888 0.904017
vt 0.400839 0.878676
vt 0.400785 0.843750
vt 0.380940 0.878676
vt 0.379772 0.843750
vt 0.362995 0.843750
vt 0.411478 0.688440
vt 0.416667 0.688440
vt 0.427833 0.688440
vt 0.594088 0.688440
vt 0.583333 0.688440
vt 0.636085 0.878676
vt 0.494406 0.879889
vt 0.656250 0.843750
vt 0.441334 0.979066
vt 0.500000 0.979066
vt 0.395833 0.688440
vt 0.578125 0.979066
vt 0.558790 0.979066
vt 0.380156 0.688440
vt 0.375000 0.688440
vt 0.625000 0.688440
vt 0.613834 0.688440
vt 0.437941 0.688440
vt 0.400939 0.942804
vt 0.421875 0.979066
vt 0.603726 0.688440
vt 0.599061 0.942804
vt 0.618014 0.909977
vt 0.447579 0.688440
vt 0.458333 0.688440
vt 0.381986 0.909977
vt 0.363915 0.878676
vt 0.343750 0.843750
vt 0.411478 0.688440
vt 0.416667 0.688440
vt 0.427833 0.688440
vt 0.594088 0.688440
vt 0.583333 0.688440
vt 0.636085 0.878676
vt 0.636821 0.843750
vt 0.656250 0.843750
vt 0.441334 0.979066
vt 0.441334 0.916551
vt 0.400839 0.878676
vt 0.400785 0.843750
vt 0.421875 0.843750
vt 0.421875 0.878676
vt 0.500000 0.979066
vt 0.500241 0.916551
vt 0.395833 0.688440
vt 0.578125 0.979066
vt 0.558790 0.979066
vt 0.558790 0.916551
vt 0.578125 0.916551
vt 0.380156 0.688440
vt 0.375000 0.688440
vt 0.421875 0.897525
vt 0.441334 0.878676
vt 0.441334 0.897650
vt 0.500314 0.897650
vt 0.500387 0.878676
vt 0.558790 0.878676
vt 0.558790 0.897650
vt 0.625000 0.688440
vt 0.613834 0.688440
vt 0.437941 0.688440
vt 0.400939 0.942804
vt 0.421875 0.916551
vt 0.421875 0.979066
vt 0.578125 0.897525
vt 0.603726 0.688440
vt 0.599061 0.942804
vt 0.400888 0.904017
vt 0.600633 0.904497
vt 0.618014 0.909977
vt 0.447579 0.688440
vt 0.619099 0.878676
vt 0.441334 0.843750
vt 0.500522 0.843750
vt 0.578125 0.878676
vt 0.558790 0.843750
vt 0.578125 0.843750
vt 0.458333 0.688440
vt 0.602132 0.878676
vt 0.603804 0.843750
vt 0.620309 0.843750
vt 0.381986 0.909977
vt 0.380940 0.878676
vt 0.379772 0.843750
vt 0.363915 0.878676
vt 0.362995 0.843750
vt 0.343750 0.843750
vt 0.411478 0.688440
vt 0.416667 0.688440
vt 0.427833 0.688440
vt 0.583333 0.688440
vt 0.594088 0.688440
vt 0.636085 0.878676
vt 0.656250 0.843750
vt 0.507667 0.879889
vt 0.441334 0.979066
vt 0.500000 0.979066
vt 0.395833 0.688440
vt 0.578125 0.979066
vt 0.558790 0.979066
vt 0.375000 0.688440
vt 0.380156 0.688440
vt 0.625000 0.688440
vt 0.613834 0.688440
vt 0.437941 0.688440
vt 0.400939 0.942804
vt 0.421875 0.979066
vt 0.603726 0.688440
vt 0.599061 0.942804
vt 0.618014 0.909977
vt 0.447579 0.688440
vt 0.458333 0.688440
vt 0.381986 0.909977
vt 0.363915 0.878676
vt 0.343750 0.843750
vt 0.625000 0.596846
vt 0.375000 0.596846
vt 0.613834 0.596846
vt 0.603726 0.596846
vt 0.594088 0.596846
vt 0.583333 0.596846
vt 0.583333 0.596846
vt 0.594088 0.596846
vt 0.603726 0.596846
vt 0.613834 0.596846
vt 0.375000 0.596846
vt 0.625000 0.596846
vt 0.380156 0.596846
vt 0.395833 0.596846
vt 0.411478 0.596846
vt 0.416667 0.596846
vt 0.427833 0.596846
vt 0.437941 0.596846
vt 0.447579 0.596846
vt 0.458333 0.596846
vt 0.458333 0.596846
vt 0.447579 0.596846
vt 0.437941 0.596846
vt 0.427833 0.596846
vt 0.416667 0.596846
vt 0.411478 0.596846
vt 0.395833 0.596846
vt 0.380156 0.596846
vt 0.625000 0.402247
vt 0.375000 0.402247
vt 0.613834 0.402247
vt 0.603726 0.402247
vt 0.594088 0.402247
vt 0.583333 0.402247
vt 0.583333 0.402247
vt 0.594088 0.402247
vt 0.603726 0.402247
vt 0.613834 0.402247
vt 0.375000 0.402247
vt 0.625000 0.402247
vt 0.380156 0.402247
vt 0.395833 0.402247
vt 0.411478 0.402247
vt 0.416667 0.402247
vt 0.427833 0.402247
vt 0.437941 0.402247
vt 0.447579 0.402247
vt 0.458333 0.402247
vt 0.458333 0.402247
vt 0.447579 0.402247
vt 0.437941 0.402247
vt 0.427833 0.402247
vt 0.416667 0.402247
vt 0.411478 0.402247
vt 0.395833 0.402247
vt 0.380156 0.402247
vn 0.000000 0.000000 -1.000000
vn 0.000000 -0.000000 -1.000000
vn 0.000000 -0.000000 -1.000000
vn 0.000000 0.000000 -1.000000
vn -0.866025 0.000000 -0.500000
vn -0.866025 0.000000 -0.500000
vn -0.866025 -0.000000 -0.500000
vn -0.866025 -0.000000 -0.500000
vn 0.866026 -0.000000 -0.500000
vn 0.866026 -0.000000 -0.500000
vn 0.866026 -0.000000 -0.500000
vn 0.866026 -0.000000 -0.500000
vn 0.000000 1.000000 0.000000
vn 0.000000 1.000000 0.000000
vn 0.000000 1.000000 0.000000
vn 0.000000 1.000000 0.000000
vn 0.000000 1.000000 0.000000
vn 0.000000 1.000000 0.000000
vn 0.000000 1.000000 0.000000
vn 0.000000 1.000000 -0.000000
vn 0.000000 1.000000 0.000000
vn 0.000000 1.000000 0.000000
vn 0.000000 1.000000 0.000000
vn 0.000000 1.000000 0.000000
vn 0.000000 1.000000 0.000000
vn 0.000000 1.000000 0.000000
vn 0.000000 1.000000 0.000000
vn 0.000000 0.000000 -1.000000
vn 0.000000 0.000000 -1.000000
vn 0.000000 0.000000 -1.000000
vn 0.000000 0.000000 -1.000000
vn 0.000000 1.000000 0.000000
vn 0.000000 1.000000 0.000000
vn 0.000000 1.000000 0.000000
vn 0.000000 1.000000 0.000000
vn 0.000000 1.000000 0.000000
vn 0.000000 1.000000 0.000000
vn 0.000000 1.000000 -0.000000
vn 0.866026 0.000000 -0.500000
vn 0.866025 0.000000 -0.500000
vn 0.866025 0.000000 -0.500000
vn 0.866025 0.000000 -0.500000
vn -0.866025 0.000000 -0.500000
vn -0.866025 0.000000 -0.500000
vn 0.000000 1.000000 0.000000
vn 0.000000 1.000000 0.000000
vn 0.000000 1.000000 0.000000
vn 0.000000 1.000000 0.000000
vn 0.866025 0.000000 -0.500000
vn 0.866026 0.000000 -0.500000
vn 0.000000 1.000000 0.000000
vn 0.000000 1.000000 0.000000
vn 0.000000 1.000000 0.000000
vn 0.000000 1.000000 0.000000
vn -0.866026 -0.000000 -0.500000
vn -0.866026 -0.000000 -0.500000
vn 0.000000 1.000000 0.000000
vn 0.000000 1.000000 0.000000
vn 0.000000 1.000000 0.000000
vn 0.000000 1.000000 0.000000
vn 0.000000 1.000000 0.000000
vn 0.000000 1.000000 0.000000
vn -0.866026 -0.000000 -0.500000
vn -0.866026 -0.000000 -0.500000
vn 0.000000 1.000000 0.000000
vn 0.000000 1.000000 0.000000
vn 0.000000 1.000000 0.000000
vn 0.000001 -0.000000 -1.000000
vn 0.000000 -0.000000 -1.000000
vn 0.000000 1.000000 0.000000
vn 0.000000 1.000000 0.000000
vn 0.000000 1.000000 0.000000
vn 0.000000 1.000000 0.000000
vn 0.000000 1.000000 0.000000
vn 0.000000 1.000000 0.000000
vn 0.000000 -1.000000 -0.000000
vn 0.000000 -1.000000 -0.000000
vn 0.000000 -1.000000 -0.000000
vn 0.000000 -1.000000 0.000000
vn 0.000000 -1.000000 0.000000
vn 0.000000 -1.000000 -0.000000
vn 0.000000 -1.000000 0.000000
vn 0.000000 -1.000000 -0.000000
vn 0.000000 -1.000000 -0.000000
vn 0.000000 -1.000000 -0.000000
vn 0.000000 -1.000000 0.000000
vn 0.000000 -1.000000 -0.000000
vn 0.000000 -1.000000 0.000000
vn 0.000000 -1.000000 0.000000
vn 0.000000 1.000000 0.000000
vn 0.000000 1.000000 0.000000
vn 0.000000 1.000000 0.000000
vn 0.000000 1.000000 0.000000
vn 0.000000 1.000000 0.000000
vn 0.000000 1.000000 0.000000
vn 0.000000 1.000000 0.000000
vn 0.000000 1.000000 0.000000
vn 0.000000 1.000000 0.000000
vn 0.000000 1.000000 0.000000
vn 0.000000 1.000000 0.000000
vn 0.000000 1.000000 0.000000
vn 0.000000 1.000000 -0.000000
vn 0.000000 1.000000 -0.000000
vn 0.000000 1.000000 0.000000
vn 0.000000 1.000000 0.000000
vn 0.000000 1.000000 0.000000
vn 0.000000 1.000000 -0.000000
vn 0.000000 1.000000 0.000000
vn 0.000000 1.000000 0.000000
vn 0.000000 1.000000 0.000000
vn 0.000000 1.000000 0.000000
vn 0.000000 1.000000 0.000000
vn 0.000000 1.000000 0.000000
vn 0.000000 1.000000 0.000000
vn 0.000000 1.000000 0.000000
vn 0.000000 1.000000 0.000000
vn 0.000000 1.000000 0.000000
vn 0.000000 1.000000 0.000000
vn 0.000000 1.000000 0.000000
vn 0.000000 1.000000 0.000000
vn 0.000000 1.000000 0.000000
vn 0.000000 1.000000 0.000000
vn 0.000000 1.000000 0.000000
vn 0.000000 1.000000 0.000000
vn 0.000000 1.000000 -0.000000
vn 0.000000 1.000000 -0.000000
vn 0.000000 1.000000 0.000000
vn 0.000000 1.000000 -0.000000
vn 0.000000 1.000000 0.000000
vn 0.000000 1.000000 0.000000
vn 0.000000 1.000000 0.000000
vn 0.000000 1.000000 0.000000
vn 0.000000 1.000000 0.000000
vn 0.000000 1.000000 0.000000
vn -0.866025 0.000000 0.500000
vn -0.866025 0.000000 0.500000
vn -0.866025 0.000000 0.500000
vn -0.866025 0.000000 0.500000
vn 0.866026 -0.000000 0.500000
vn 0.866026 -0.000000 0.500000
vn 0.866026 -0.000000 0.500000
vn 0.866026 -0.000000 0.500000
vn 0.000000 -1.000000 0.000000
vn 0.000000 -1.000000 -0.000000
vn 0.000000 -1.000000 0.000000
vn 0.000000 -1.000000 -0.000000
vn 0.000000 -1.000000 -0.000000
vn 0.000000 -1.000000 -0.000000
vn 0.000000 0.000000 1.000000
vn 0.000000 0.000000 1.000000
vn 0.000000 -0.000000 1.000000
vn 0.000000 -0.000000 1.000000
vn 0.000000 -1.000000 0.000000
vn 0.000000 0.000000 1.000000
vn 0.000000 0.000000 1.000000
vn 0.000000 0.000000 1.000000
vn 0.000000 0.000000 1.000000
vn 0.866026 0.000000 0.500000
vn 0.866026 0.000000 0.500000
vn 0.866026 0.000000 0.500000
vn 0.866026 0.000000 0.500000
vn -0.866025 0.000000 0.500000
vn -0.866025 0.000000 0.500000
vn 0.000000 -1.000000 0.000000
vn 0.000000 -1.000000 -0.000000
vn 0.866026 0.000000 0.500000
vn 0.866026 0.000000 0.500000
vn 0.000000 -1.000000 0.000000
vn 0.000000 -1.000000 0.000000
vn -0.866026 -0.000000 0.500000
vn -0.866026 -0.000000 0.500000
vn -0.866026 -0.000000 0.500000
vn -0.866026 -0.000000 0.500000
vn 0.000000 -0.000000 1.000000
vn 0.000000 -0.000000 1.000000
vn 0.000000 -1.000000 0.000000
vn 0.000000 -1.000000 -0.000000
vn 0.000000 -1.000000 -0.000000
vn 0.866026 0.000000 -0.500000
vn 0.866026 0.000000 -0.500000
vn 0.866025 0.000000 -0.500000
vn 0.866026 0.000000 -0.500000
vn 0.866025 0.000000 -0.500000
vn 0.866026 0.000000 -0.500000
vn 0.866026 0.000000 -0.500000
vn 0.866026 0.000000 -0.500000
vn 0.866026 0.000000 -0.500000
vn 0.866026 0.000000 -0.500000
vn 0.866026 0.000000 0.500000
vn 0.866026 0.000000 0.500000
vn 0.866026 0.000000 0.500000
vn 0.866026 0.000000 0.500000
vn 0.866026 0.000000 0.500000
vn 0.866026 0.000000 0.500000
vn 0.866025 0.000000 0.500000
vn 0.866026 0.000000 0.500000
vn 0.866026 0.000000 0.500000
vn 0.866026 0.000000 0.500000
vn 0.000000 0.000000 1.000000
vn 0.000000 0.000000 1.000000
vn 0.000000 0.000000 1.000000
vn 0.000000 0.000000 1.000000
vn 0.000000 0.000000 1.000000
vn 0.000000 0.000000 1.000000
vn 0.000000 0.000000 1.000000
vn 0.000000 0.000000 1.000000
vn 0.000000 0.000000 1.000000
vn 0.000000 0.000000 1.000000
vn -0.866025 0.000000 0.500000
vn -0.866025 0.000000 0.500000
vn -0.866025 0.000000 0.500000
vn -0.866025 0.000000 0.500000
vn -0.866025 0.000000 0.500000
vn -0.866025 0.000000 0.500000
vn -0.866026 0.000000 0.500000
vn -0.866026 0.000000 0.500000
vn -0.866026 0.000000 0.500000
vn -0.866026 0.000000 0.500000
vn -0.866026 0.000000 -0.500000
vn -0.866026 0.000000 -0.500000
vn -0.866026 0.000000 -0.499999
vn -0.866026 0.000000 -0.500000
vn -0.866025 0.000000 -0.500000
vn -0.866025 0.000000 -0.500000
vn -0.866025 0.000000 -0.500000
vn -0.866025 0.000000 -0.500000
vn -0.866025 0.000000 -0.500000
vn -0.866025 0.000000 -0.500000
vn 0.000000 0.000000 -1.000000
vn 0.000000 0.000000 -1.000000
vn 0.000001 0.000000 -1.000000
vn 0.000001 0.000000 -1.000000
vn 0.000000 0.000000 -1.000000
vn 0.000000 0.000000 -1.000000
vn 0.000000 0.000000 -1.000000
vn 0.000000 0.000000 -1.000000
vn 0.000000 0.000000 -1.000000
vn 0.000000 0.000000 -1.000000
s 1
g pCylinder1
usemtl initialShadingGroup
f 52/70/1 46/60/2 148/228/3 149/229/4
s 2
f 146/226/5 147/227/6 47/61/7 48/62/8
s 3
f 130/207/9 131/209/10 50/64/11 49/63/12
s 4
f 19/29/13 27/39/14 4/9/15
f 41/55/16 42/56/17 6/11/18 21/32/19
f 33/46/20 30/42/21 8/13/22 13/19/23
f 13/19/23 8/13/22 36/49/24 38/52/25
f 1/8/26 30/42/21 33/46/20 12/18/27
s 1
f 150/230/28 127/204/29 53/74/30 54/73/31
s 4
f 11/17/32 21/32/19 39/53/33 37/51/34
f 10/16/35 22/33/36 34/47/37 32/45/38
s 3
f 127/203/39 128/205/40 55/76/41 53/75/42
s 2
f 145/225/43 146/226/5 48/62/8 56/77/44
s 4
f 16/23/45 14/20/46 2/7/47
f 12/18/27 33/46/20 32/45/38 9/15/48
f 10/16/35 32/45/38 33/46/20 13/19/23
f 37/51/34 10/16/35 13/19/23 38/52/25
s 3
f 55/76/41 128/205/40 129/206/49 57/80/50
s 4
f 12/18/27 15/21/51 1/8/26
f 16/23/45 40/54/52 11/17/32 14/20/46
f 15/21/51 24/36/53 17/25/54
s 2
f 144/224/55 145/225/43 56/77/44 58/83/56
s 3
f 57/80/50 129/206/49 130/207/9 49/63/12
s 4
f 19/29/13 17/25/54 28/40/57
f 40/54/52 41/55/16 21/32/19 11/17/32
f 7/12/58 22/33/36 39/53/33 35/48/59
f 31/44/60 34/47/37 22/33/36 7/12/58
f 20/31/61 34/47/37 31/44/60 5/10/62
s 2
f 143/222/63 144/224/55 58/83/56 59/84/64
s 4
f 9/15/48 24/36/53 15/21/51 12/18/27
f 25/37/65 24/36/53 9/15/48 20/31/61
f 5/10/62 26/38/66 25/37/65 20/31/61
f 28/40/57 29/41/67 27/39/14 19/29/13
f 28/40/57 17/25/54 24/36/53 25/37/65
f 25/37/65 26/38/66 29/41/67 28/40/57
f 32/45/38 34/47/37 20/31/61 9/15/48
s 1
f 54/73/31 52/70/1 149/229/4 150/230/28
f 147/227/68 148/228/3 46/60/2 47/61/69
s 4
f 38/52/25 36/49/24 2/7/47 14/20/46
f 37/51/34 39/53/33 22/33/36 10/16/35
f 37/51/34 38/52/25 14/20/46 11/17/32
f 35/48/59 39/53/33 21/32/19 6/11/18
f 18/27/70 40/54/52 16/23/45
f 18/27/70 43/57/71 41/55/16 40/54/52
f 43/57/71 44/58/72 42/56/17 41/55/16
f 23/34/73 43/57/71 18/27/70
f 23/34/73 45/59/74 44/58/72 43/57/71
f 3/6/75 45/59/74 23/34/73
s 10
f 49/65/76 50/67/77 51/66/78
f 53/71/79 51/66/78 54/72/80
f 48/78/81 47/79/82 51/66/78
f 51/66/78 53/71/79 55/81/83
f 55/81/83 57/82/84 51/66/78
f 49/65/76 51/66/78 57/82/84
f 51/66/78 52/69/85 54/72/80
f 51/66/78 46/68/86 52/69/85
f 51/66/78 47/79/82 46/68/86
f 56/85/87 48/78/81 51/66/78
f 58/86/88 56/85/87 51/66/78
f 59/87/89 58/86/88 51/66/78
s 13
f 63/93/90 4/95/91 27/94/92
f 65/98/93 66/101/94 6/100/95 42/99/96
f 69/105/97 72/108/98 71/107/99 70/106/100
f 73/111/101 75/113/102 74/112/103 66/101/94
f 76/114/104 79/117/105 78/116/106 77/115/107
f 62/121/108 61/123/109 82/122/110
f 72/108/98 83/124/111 79/117/105 71/107/99
f 72/108/98 69/105/97 80/126/112
f 62/121/108 82/122/110 73/111/101 85/127/113
f 80/126/112 84/129/114 86/128/115
f 63/93/90 88/131/116 84/129/114
f 85/127/113 73/111/101 66/101/94 65/98/93
f 89/134/117 5/136/118 31/135/119 78/116/106
f 83/124/111 72/108/98 80/126/112 86/128/115
f 90/138/120 89/134/117 83/124/111 86/128/115
f 5/136/118 89/134/117 90/138/120 26/139/121
f 88/131/116 63/93/90 27/94/92 29/140/122
f 88/131/116 90/138/120 86/128/115 84/129/114
f 90/138/120 88/131/116 29/140/122 26/139/121
f 79/117/105 83/124/111 89/134/117 78/116/106
f 71/107/99 68/103/123 67/102/124 70/106/100
f 76/114/104 68/103/123 71/107/99 79/117/105
f 31/135/119 7/133/125 77/115/107 78/116/106
f 68/103/123 64/97/126 60/96/127 67/102/124
f 76/114/104 77/115/107 74/112/103 75/113/102
f 76/114/104 75/113/102 64/97/126 68/103/123
f 7/133/125 35/132/128 74/112/103 77/115/107
f 64/97/126 82/122/110 61/123/109 60/96/127
f 75/113/102 73/111/101 82/122/110 64/97/126
f 35/132/128 6/100/95 66/101/94 74/112/103
f 81/141/129 62/121/108 85/127/113
f 81/141/129 85/127/113 65/98/93 91/142/130
f 91/142/130 65/98/93 42/99/96 44/143/131
f 87/144/132 81/141/129 91/142/130
f 87/144/132 91/142/130 44/143/131 45/145/133
f 3/146/134 87/144/132 45/145/133
s 21
f 140/219/135 94/149/136 93/148/137 139/218/138
s 22
f 132/210/139 95/151/140 50/150/141 131/208/142
s 23
f 95/152/143 51/154/144 50/153/145
f 51/154/144 98/159/146 96/156/147
f 51/154/144 96/156/147 92/155/148
s 25
f 96/157/149 137/216/150 138/217/151 92/147/152
s 23
f 97/158/153 98/159/146 51/154/144
s 25
f 136/215/154 98/161/155 97/160/156 135/213/157
s 22
f 135/214/158 97/162/159 99/163/160 134/212/161
s 21
f 141/220/162 100/164/163 94/149/136 140/219/135
s 23
f 94/165/164 51/154/144 93/166/165
s 22
f 99/163/160 101/167/166 133/211/167 134/212/161
s 23
f 51/154/144 99/168/168 97/158/153
f 99/168/168 51/154/144 101/169/169
s 21
f 142/221/170 102/170/171 100/164/163 141/220/162
s 22
f 101/167/166 95/151/140 132/210/139 133/211/167
s 23
f 95/152/143 101/169/169 51/154/144
s 21
f 143/223/172 59/171/173 102/170/171 142/221/170
s 25
f 98/161/155 136/215/154 137/216/150 96/157/149
f 139/218/174 93/148/175 92/147/152 138/217/151
s 23
f 51/154/144 92/155/148 93/166/165
f 100/172/176 51/154/144 94/165/164
f 102/173/177 51/154/144 100/172/176
f 59/174/178 51/154/144 102/173/177
s 3
f 1/5/179 15/22/180 104/177/181 103/175/182
f 105/178/183 104/177/181 15/22/180 17/26/184
f 17/26/184 19/30/185 106/179/186 105/178/183
f 107/181/187 106/179/186 19/30/185 4/4/188
s 22
f 108/182/189 107/180/190 4/92/191 63/91/192
f 84/125/193 109/183/194 108/182/189 63/91/192
f 110/184/195 109/183/194 84/125/193 80/119/196
f 69/118/197 111/186/198 110/184/195 80/119/196
s 25
f 112/187/199 111/185/200 69/110/201 70/109/202
f 70/109/202 67/104/203 113/188/204 112/187/199
f 67/104/203 60/88/205 114/189/206 113/188/204
f 60/88/205 61/89/207 115/190/208 114/189/206
s 21
f 61/89/209 62/90/210 116/191/211 115/190/212
f 62/90/210 81/120/213 117/192/214 116/191/211
f 81/120/213 87/130/215 118/193/216 117/192/214
f 87/130/215 3/137/217 119/195/218 118/193/216
s 2
f 23/35/219 120/196/220 119/194/221 3/3/222
f 18/28/223 121/197/224 120/196/220 23/35/219
f 16/24/225 122/198/226 121/197/224 18/28/223
f 2/2/227 123/199/228 122/198/226 16/24/225
s 1
f 36/50/229 124/200/230 123/199/231 2/2/232
f 36/50/229 8/14/233 125/201/234 124/200/230
f 8/14/233 30/43/235 126/202/236 125/201/234
f 103/176/237 126/202/236 30/43/235 1/1/238
s 3
f 128/205/40 127/203/39 103/175/182 104/177/181
f 129/206/49 128/205/40 104/177/181 105/178/183
f 106/179/186 130/207/9 129/206/49 105/178/183
f 107/181/187 131/209/10 130/207/9 106/179/186
s 22
f 108/182/189 132/210/139 131/208/142 107/180/190
f 133/211/167 132/210/139 108/182/189 109/183/194
f 134/212/161 133/211/167 109/183/194 110/184/195
f 111/186/198 135/214/158 134/212/161 110/184/195
s 25
f 112/187/199 136/215/154 135/213/157 111/185/200
f 137/216/150 136/215/154 112/187/199 113/188/204
f 114/189/206 138/217/151 137/216/150 113/188/204
f 115/190/208 139/218/174 138/217/151 114/189/206
s 21
f 116/191/211 140/219/135 139/218/138 115/190/212
f 117/192/214 141/220/162 140/219/135 116/191/211
f 118/193/216 142/221/170 141/220/162 117/192/214
f 119/195/218 143/223/172 142/221/170 118/193/216
s 2
f 120/196/220 144/224/55 143/222/63 119/194/221
f 121/197/224 145/225/43 144/224/55 120/196/220
f 122/198/226 146/226/5 145/225/43 121/197/224
f 123/199/228 147/227/6 146/226/5 122/198/226
s 1
f 124/200/230 148/228/3 147/227/68 123/199/231
f 149/229/4 148/228/3 124/200/230 125/201/234
f 126/202/236 150/230/28 149/229/4 125/201/234
f 103/176/237 127/204/29 150/230/28 126/202/236
