# author: headus 3D tools
#  using: ply2obj v1.8
#   from: uvlayout v2.09.03
mtllib genericTree_02.mtl
# 108 vertices
v 0.1250000 0.0040000 -0.4530000
v -0.4290470 0.0040000 -0.5925849
v -0.7383340 0.0040000 0.1160770
v 0.0909551 0.0040000 0.4928710
v 0.3667720 0.0040000 0.0030660
v 0.1591940 0.6948760 -0.3467800
v -0.2695080 0.6948760 -0.3467800
v -0.5947830 0.6650120 0.0865370
v 0.1365590 0.6477170 0.4152750
v 0.3180199 0.6650120 0.0305410
v 0.0665180 1.9128842 -0.1255520
v 0.1431479 2.3316392 -0.1413001
v 0.3187549 2.4301782 -0.0870210
v 0.6599040 2.5637762 0.0019140
v 0.8647050 2.6928364 0.0692540
v 1.0765580 2.9491340 0.1962459
v 1.2851630 3.4489432 0.4382590
v 1.4111080 4.0894304 0.5618541
v -0.1765490 2.0246080 -0.1430101
v -0.1125320 2.4012580 -0.0652470
v 0.0796450 2.7256152 0.0190830
v 0.3667219 2.9044350 0.0849560
v 0.7163050 2.8823398 0.1493150
v 0.8972000 3.0804362 0.2503670
v 1.0909220 3.5147084 0.4929330
v 1.2299150 4.0817060 0.5559792
v -0.3164620 1.7700710 0.0631400
v -0.1782660 2.6196490 0.0880239
v -0.0645460 2.7318774 0.1690739
v 0.3994669 2.9103550 0.2611890
v 0.6212069 2.9370054 0.3297330
v 0.7886729 3.1099334 0.4040421
v 0.9763180 3.4820404 0.6233480
v 1.1168722 4.0791848 0.6561210
v -0.2917740 1.4023080 0.3252740
v -0.2133069 1.9396688 0.2867480
v -0.1691550 2.4170674 0.2858190
v -0.0264950 2.6352238 0.3168999
v 0.3209399 2.8166182 0.3924940
v 0.6680299 2.7897354 0.4736160
v 0.8536590 2.9969182 0.5428540
v 1.0505290 3.3632860 0.7310481
v 1.1780640 4.0848028 0.7940951
v 0.0921510 1.4319669 0.3000290
v 0.0297590 1.8861260 0.3042058
v 0.0819090 2.2141794 0.2700540
v 0.2575159 2.3127172 0.3243330
v 0.5986699 2.4463152 0.4132680
v 0.8034700 2.5753742 0.4806080
v 1.0213290 2.8431940 0.5672461
v 1.2339280 3.2568732 0.7402910
v 1.3453380 4.0933604 0.8638870
v 0.1696709 1.8727342 0.0980560
v 0.2094590 2.1947722 0.0564950
v 0.3562029 2.2686804 0.0994440
v 0.6801989 2.3937554 0.1833909
v 0.9050480 2.5331382 0.2566630
v 1.1357000 2.8249072 0.3743139
v 1.3539551 3.3098662 0.5779180
v 1.4653380 4.0954652 0.7317871
v -0.0727200 3.1896650 0.1025940
v -0.0177010 3.7031684 0.4231020
v 0.1419989 4.1127012 0.6005481
v -0.1882410 3.1077880 0.2585780
v -0.1686990 3.6636600 0.5452780
v 0.0244580 4.1169892 0.7076012
v 0.2639489 4.0848900 0.5950330
v 0.1762268 3.2457270 0.3522240
v 0.2013299 3.5723344 0.5498530
v 0.3433840 4.0481532 0.7480210
v 0.1477679 3.2613852 0.1558950
v 0.1481430 3.6617972 0.4248310
v -0.1186350 3.0329550 0.4438450
v -0.1000800 3.5602320 0.6638580
v 0.1271710 4.0842844 0.8641379
v 0.0952580 3.1598674 0.5119230
v 0.1073520 3.5084044 0.6659911
v 0.2606799 4.0609152 0.8605990
v -0.4263470 2.3972172 -0.0691680
v -0.5047120 2.2450720 0.0645939
v -0.3342660 2.6632352 0.0303230
v -0.3467650 2.5409490 -0.0577670
v -0.4195450 2.3426670 0.1735389
v -0.4058620 2.5699544 0.1469620
v -0.5756549 2.8201062 -0.1699741
v -0.7376240 2.8331730 -0.0849710
v -0.4567930 2.8354414 0.0267580
v -0.4784229 2.8290000 -0.1326240
v -0.7129599 2.8650672 0.0829310
v -0.5860200 2.8423686 0.1363710
v -0.5942490 3.0644944 -0.2922810
v -0.7130700 3.0864162 -0.2216270
v -0.5713500 3.0874124 -0.0441380
v -0.5144750 3.0677840 -0.2002420
v -0.7651560 3.1165994 0.0066200
v -0.6629250 3.1083220 0.0444990
v -0.5681619 3.2920144 -0.3571070
v -0.6204089 3.3507012 -0.3459171
v -0.4820209 3.3189812 -0.2406470
v -0.5159190 3.2770070 -0.2993120
v -0.6104200 3.3859852 -0.2411641
v -0.5201740 3.3804444 -0.1997300
v -0.4944220 0.0040000 0.6215043
v -0.3850989 0.6210750 0.5680570
v -0.4132410 1.4233911 0.0748660
v -0.2542140 1.3932640 -0.2044820
v 0.0805670 1.4770229 -0.1989391
v 0.2404440 1.4753751 0.0577740
# 108 normals
vn 0.528932 0.171245 -0.831197
vn -0.515595 0.295886 -0.804096
vn -0.478789 0.255020 -0.839926
vn 0.554569 0.174144 -0.813679
vn -0.961698 0.262864 -0.076451
vn -0.964170 0.249008 -0.091223
vn -0.374199 0.214826 0.902063
vn -0.455350 0.180706 0.871666
vn 0.572209 0.053073 0.818379
vn 0.577580 0.112983 0.808460
vn 0.999084 0.040621 0.012238
vn 0.996460 0.080327 0.020967
vn -0.491943 0.192272 -0.849112
vn 0.504120 0.177501 -0.845114
vn 0.432247 0.081273 -0.898065
vn -0.351737 0.015199 -0.935879
vn -0.051853 0.267533 -0.962125
vn 0.181621 0.079961 -0.980071
vn -0.137093 0.293231 -0.946072
vn 0.195294 0.015260 -0.980559
vn 0.235030 0.464170 -0.853842
vn 0.304737 -0.054660 -0.950833
vn -0.003296 0.584752 -0.811085
vn 0.476561 -0.044284 -0.877892
vn -0.226546 0.556491 -0.799274
vn 0.566593 0.068760 -0.820973
vn -0.365531 0.375816 -0.851492
vn 0.577611 0.111060 -0.808613
vn -0.338430 0.402429 -0.850485
vn 0.603522 0.244308 -0.758896
vn -0.972655 0.216963 -0.082494
vn -0.006531 -0.150217 -0.988555
vn -0.806629 0.305378 -0.505951
vn 0.930080 0.221663 0.292651
vn 0.935329 -0.087316 -0.342764
vn -0.358909 0.917933 -0.168956
vn -0.950833 0.057468 -0.304279
vn 0.521455 0.805103 0.282335
vn -0.406000 0.889703 0.208661
vn -0.836629 0.547458 0.011719
vn -0.945706 0.319630 0.057316
vn -0.907557 0.414271 -0.068028
vn -0.424709 0.239852 0.872948
vn -0.711011 0.695355 0.103491
vn 0.329183 0.707959 0.624702
vn -0.276170 0.096594 0.956205
vn -0.374718 -0.152292 0.914454
vn -0.004547 -0.027925 0.999573
vn -0.320271 0.075078 0.944272
vn -0.513734 -0.031221 0.857322
vn -0.493103 -0.058048 0.867942
vn -0.475859 0.220778 0.851279
vn 0.524599 0.146585 0.838522
vn 0.370414 0.040988 0.927852
vn -0.387322 -0.007233 0.921901
vn 0.245620 -0.158274 0.956327
vn -0.014680 -0.438442 0.898553
vn 0.014710 -0.512910 0.858237
vn 0.191723 -0.528475 0.826924
vn 0.330403 -0.507905 0.795367
vn 0.361533 -0.340383 0.867881
vn 0.386956 0.032076 0.921504
vn 0.990783 0.134316 0.010193
vn 0.995819 0.042086 0.080846
vn 0.899133 -0.424648 -0.105231
vn 0.433651 -0.881340 -0.187054
vn 0.465696 -0.866813 -0.178172
vn 0.700543 -0.706861 -0.097540
vn 0.873772 -0.482268 -0.061863
vn 0.955197 -0.275926 0.106208
vn 0.972410 0.056736 0.226088
vn -0.968657 0.002899 -0.248306
vn -0.376030 0.294726 -0.878441
vn -0.966459 0.252457 -0.046481
vn -0.406519 0.483642 -0.775041
vn -0.832357 0.547000 0.088110
vn -0.223799 0.685406 -0.692852
vn 0.409723 0.448361 -0.794329
vn 0.964109 0.206556 0.166636
vn 0.567265 0.310535 -0.762589
vn 0.976622 -0.195324 0.088842
vn 0.640573 0.369682 -0.673015
vn 0.989593 -0.053073 0.133462
vn -0.566685 -0.340811 0.750015
vn -0.605170 -0.201062 0.770189
vn -0.361228 0.072423 0.929653
vn 0.264512 -0.266587 0.926692
vn 0.318287 -0.401575 0.858664
vn 0.393823 -0.145120 0.907618
vn -0.991821 0.068303 -0.107642
vn -0.920161 -0.374046 -0.114936
vn -0.361320 -0.187664 -0.913294
vn 0.304431 0.235457 -0.922938
vn 0.656137 0.745163 0.119117
vn -0.648080 -0.127846 0.750656
vn -0.104712 0.280931 0.953916
vn -0.906763 -0.354209 -0.228346
vn -0.234481 -0.357840 -0.903803
vn 0.797076 0.123573 -0.590948
vn 0.821522 0.448239 0.352347
vn -0.803394 -0.133400 0.580114
vn 0.153665 0.244796 0.957212
vn -0.886376 -0.045993 -0.460660
vn -0.065617 -0.362052 -0.929775
vn 0.961027 -0.038760 -0.273424
vn 0.841909 0.289752 0.455075
vn -0.885338 0.327138 0.330068
vn 0.144021 0.502075 0.852683
# 162 uv coords
vt 0.780730 0.815315
vt 0.706514 0.831916
vt 0.849336 0.793528
vt 0.725714 0.594784
vt 0.713521 0.514861
vt 0.729757 0.477907
vt 0.766065 0.420021
vt 0.786190 0.381836
vt 0.809399 0.325618
vt 0.836652 0.224543
vt 0.676465 0.588683
vt 0.665435 0.447330
vt 0.691918 0.388587
vt 0.750795 0.356360
vt 0.774664 0.307706
vt 0.799161 0.213626
vt 0.323347 0.298828
vt 0.296051 0.394526
vt 0.289316 0.529345
vt 0.347960 0.575996
vt 0.416005 0.576660
vt 0.453506 0.614600
vt 0.503478 0.679258
vt 0.771741 0.590546
vt 0.758354 0.529334
vt 0.770368 0.496635
vt 0.802591 0.441445
vt 0.823818 0.400841
vt 0.846082 0.338767
vt 0.869624 0.243371
vt 0.600042 0.388510
vt 0.540954 0.300144
vt 0.621379 0.355144
vt 0.568584 0.285062
vt 0.262487 0.602642
vt 0.236395 0.699946
vt 0.293264 0.635947
vt 0.273226 0.703401
vt 0.608129 0.538789
vt 0.611222 0.511733
vt 0.232001 0.449496
vt 0.215164 0.486404
vt 0.548090 0.480418
vt 0.565149 0.471835
vt 0.137894 0.499121
vt 0.160269 0.508182
vt 0.518006 0.441782
vt 0.537582 0.434196
vt 0.106821 0.528111
vt 0.119674 0.538509
vt 0.372775 0.161384
vt 0.688657 0.703723
vt 0.742500 0.676884
vt 0.792004 0.661029
vt 0.025042 0.000000
vt 0.061814 0.001522
vt 0.095938 0.033418
vt 0.064424 0.079556
vt 0.000000 0.045361
vt 0.024581 0.078409
vt 0.126059 0.160960
vt 0.108011 0.201543
vt 0.039484 0.133232
vt 0.092815 0.131504
vt 0.023477 0.183216
vt 0.058760 0.222072
vt 0.122287 0.056393
vt 0.144919 0.061409
vt 0.107196 0.096982
vt 0.106864 0.073705
vt 0.149660 0.093430
vt 0.126722 0.111056
vt 0.663122 0.519262
vt 0.273572 0.479270
vt 0.382919 0.333448
vt 0.339534 0.401887
vt 0.454364 0.210430
vt 0.327083 0.459131
vt 0.264746 0.351475
vt 0.273829 0.291888
vt 0.280865 0.153487
vt 0.398403 0.054060
vt 0.495457 0.100783
vt 0.351119 0.483811
vt 0.218330 0.423630
vt 0.299602 0.033071
vt 0.405940 0.516057
vt 0.258458 0.535522
vt 0.241579 0.517411
vt 0.214727 0.516096
vt 0.117177 0.478320
vt 0.440497 0.539775
vt 0.226140 0.594212
vt 0.179387 0.530636
vt 0.071099 0.511217
vt 0.481932 0.585580
vt 0.397987 0.608400
vt 0.363592 0.602552
vt 0.323304 0.653672
vt 0.206463 0.703279
vt 0.128821 0.557416
vt 0.068752 0.585312
vt 0.054192 0.570126
vt 0.036596 0.557856
vt 0.533340 0.657046
vt 0.428775 0.637626
vt 0.299268 0.714168
vt 0.262715 0.810955
vt 0.238799 0.806733
vt 0.206432 0.796302
vt 0.081544 0.595274
vt 0.569388 0.804581
vt 0.537416 0.805113
vt 0.482031 0.701568
vt 0.287426 0.808361
vt 0.510854 0.807235
vt 0.814054 0.579085
vt 0.840189 0.647456
vt 0.918086 0.763045
vt 0.893351 0.902611
vt 0.808255 0.935793
vt 0.632584 0.700479
vt 0.643191 0.642783
vt 0.802527 0.535425
vt 0.713835 0.966505
vt 0.609819 0.833499
vt 0.983055 0.858658
vt 0.599113 0.574907
vt 0.810744 0.512572
vt 0.579597 0.947780
vt 0.520895 0.499122
vt 0.609838 0.486838
vt 0.632939 0.481584
vt 0.630613 0.457579
vt 0.842853 0.457517
vt 0.498387 0.456332
vt 0.589978 0.458986
vt 0.574140 0.412446
vt 0.864809 0.413594
vt 0.480816 0.405399
vt 0.494967 0.406739
vt 0.508361 0.404171
vt 0.562590 0.419673
vt 0.510733 0.319014
vt 0.695177 0.356658
vt 0.723209 0.331304
vt 0.634696 0.323410
vt 0.884538 0.346888
vt 0.514081 0.393716
vt 0.481752 0.232158
vt 0.507977 0.222441
vt 0.745735 0.291681
vt 0.526427 0.211578
vt 0.594227 0.271107
vt 0.853760 0.107296
vt 0.885277 0.102008
vt 0.904498 0.256557
vt 0.767383 0.211300
vt 0.822391 0.110614
vt 0.548270 0.189718
vt 0.917128 0.104302
vt 0.796289 0.107550
# 104 polygons
usemtl initialShadingGroup
s 1
g burntTree_02
f 1/121/1 2/125/2 7/2/3 6/1/4
f 2/125/2 3/130/5 8/126/6 7/2/3
f 104/51/7 103/82/8 4/83/9 9/77/10
f 4/127/9 5/120/11 10/3/12 9/119/10
f 5/120/11 1/121/1 6/1/4 10/3/12
f 106/52/13 107/53/14 6/1/4 7/2/3
f 11/4/15 19/11/16 20/73/17 12/5/18
f 12/5/18 20/73/17 21/12/19 13/6/20
f 22/13/21 14/7/22 13/6/20 21/12/19
f 14/7/22 22/13/21 23/14/23 15/8/24
f 15/8/24 23/14/23 24/15/25 16/9/26
f 16/9/26 24/15/25 25/16/27 17/10/28
f 17/10/28 25/16/27 26/159/29 18/155/30
f 105/122/31 106/52/13 7/2/3 8/126/6
f 97/67/32 98/68/33 99/69/34 100/70/35
f 20/73/17 28/133/36 29/134/37 21/12/19
f 22/13/21 30/145/38 31/146/39 23/14/23
f 23/14/23 31/146/39 32/152/40 24/15/25
f 24/15/25 32/152/40 33/158/41 25/16/27
f 25/16/27 33/158/41 34/162/42 26/159/29
f 35/17/43 105/80/31 8/81/6 104/51/7
f 98/68/33 101/71/44 102/72/45 99/69/34
f 28/89/36 37/74/46 38/19/47 29/88/37
f 30/98/38 39/20/48 40/21/49 31/97/39
f 31/97/39 40/21/49 41/22/50 32/106/40
f 32/106/40 41/22/50 42/23/51 33/114/41
f 33/114/41 42/23/51 43/113/52 34/116/42
f 35/17/43 44/75/53 45/76/54 36/18/55
f 36/18/55 45/76/54 46/78/56 37/74/46
f 37/74/46 46/78/56 47/84/57 38/19/47
f 48/87/58 39/20/48 38/19/47 47/84/57
f 39/20/48 48/87/58 49/92/59 40/21/49
f 40/21/49 49/92/59 50/96/60 41/22/50
f 41/22/50 50/96/60 51/105/61 42/23/51
f 42/23/51 51/105/61 52/112/62 43/113/52
f 10/3/12 108/54/63 44/118/53 9/119/10
f 45/117/54 53/24/64 54/25/65 46/124/56
f 46/124/56 54/25/65 55/26/66 47/129/57
f 56/27/67 48/135/58 47/129/57 55/26/66
f 48/135/58 56/27/67 57/28/68 49/139/59
f 49/139/59 57/28/68 58/29/69 50/148/60
f 50/148/60 58/29/69 59/30/70 51/157/61
f 51/157/61 59/30/70 60/156/71 52/161/62
f 6/1/4 107/53/14 108/54/63 10/3/12
f 53/24/64 11/4/15 12/5/18 54/25/65
f 54/25/65 12/5/18 13/6/20 55/26/66
f 13/6/20 14/7/22 56/27/67 55/26/66
f 56/27/67 14/7/22 15/8/24 57/28/68
f 57/28/68 15/8/24 16/9/26 58/29/69
f 58/29/69 16/9/26 17/10/28 59/30/70
f 59/30/70 17/10/28 18/155/30 60/156/71
f 21/12/19 29/134/37 64/138/72 61/31/73
f 61/31/73 64/138/72 65/144/74 62/32/75
f 62/32/75 65/144/74 66/150/76 63/151/77
f 30/145/38 22/13/21 71/33/78 68/147/79
f 68/147/79 71/33/78 72/34/80 69/154/81
f 69/154/81 72/34/80 67/153/82 70/160/83
f 61/31/73 71/33/78 22/13/21 21/12/19
f 62/32/75 72/34/80 71/33/78 61/31/73
f 67/153/82 72/34/80 62/32/75 63/151/77
f 29/88/37 38/19/47 73/35/84 64/93/72
f 64/93/72 73/35/84 74/36/85 65/100/74
f 65/100/74 74/36/85 75/109/86 66/110/76
f 73/35/84 38/19/47 39/20/48 76/37/87
f 74/36/85 73/35/84 76/37/87 77/38/88
f 75/109/86 74/36/85 77/38/88 78/108/89
f 39/20/48 30/98/38 68/99/79 76/37/87
f 76/37/87 68/99/79 69/107/81 77/38/88
f 77/38/88 69/107/81 70/115/83 78/108/89
f 70/59/83 67/55/82 75/58/86 78/60/89
f 67/55/82 63/56/77 66/57/76 75/58/86
f 60/65/71 18/63/30 43/62/52 52/66/62
f 34/61/42 43/62/52 18/63/30 26/64/29
f 19/11/16 27/123/90 80/128/91 79/39/92
f 28/133/36 20/73/17 82/40/93 81/132/94
f 20/73/17 19/11/16 79/39/92 82/40/93
f 27/79/90 36/18/55 83/41/95 80/85/91
f 36/18/55 37/74/46 84/42/96 83/41/95
f 37/74/46 28/89/36 81/90/94 84/42/96
f 79/39/92 80/128/91 86/131/97 85/43/98
f 81/132/94 82/40/93 88/44/99 87/137/100
f 82/40/93 79/39/92 85/43/98 88/44/99
f 80/85/91 83/41/95 89/45/101 86/91/97
f 83/41/95 84/42/96 90/46/102 89/45/101
f 84/42/96 81/90/94 87/94/100 90/46/102
f 85/43/98 86/131/97 92/136/103 91/47/104
f 87/137/100 88/44/99 94/48/105 93/143/106
f 88/44/99 85/43/98 91/47/104 94/48/105
f 86/91/97 89/45/101 95/49/107 92/95/103
f 89/45/101 90/46/102 96/50/108 95/49/107
f 90/46/102 87/94/100 93/101/106 96/50/108
f 91/47/104 92/136/103 98/140/33 97/141/32
f 93/143/106 94/48/105 100/142/35 99/149/34
f 94/48/105 91/47/104 97/141/32 100/142/35
f 92/95/103 95/49/107 101/103/44 98/104/33
f 95/49/107 96/50/108 102/102/45 101/103/44
f 96/50/108 93/101/106 99/111/34 102/102/45
f 8/81/6 3/86/5 103/82/8 104/51/7
f 44/75/53 35/17/43 104/51/7 9/77/10
f 105/80/31 35/17/43 36/18/55 27/79/90
f 106/52/13 105/122/31 27/123/90 19/11/16
f 107/53/14 106/52/13 19/11/16 11/4/15
f 108/54/63 107/53/14 11/4/15 53/24/64
f 44/118/53 108/54/63 53/24/64 45/117/54
