# author: headus 3D tools
#  using: ply2obj v1.8
#   from: uvlayout v2.09.03
mtllib genericTree_01.mtl
# 84 vertices
v 0.2010000 0.0040000 -0.3440000
v -0.3077010 0.0040000 -0.3440000
v -0.5086680 0.0040000 0.0002649
v -0.3098410 0.0040000 0.3446430
v 0.1988591 0.0040000 0.3446430
v 0.3976860 0.0040000 0.0002649
v 0.1588590 0.4547680 -0.2363220
v -0.2698410 0.4547680 -0.2363220
v -0.4286670 0.3879640 0.0305380
v -0.2698410 0.3211590 0.2973979
v 0.1588590 0.3211590 0.2973979
v 0.3176849 0.3879640 0.0305380
v 0.0239711 0.7080540 -0.1582820
v 0.0987500 1.0490000 -0.1255551
v 0.2896680 1.4864552 -0.1413030
v 0.4354980 1.6253110 -0.0870241
v 0.7330860 1.8390270 0.0019110
v 0.8996680 2.0146682 0.0692509
v 1.0416590 2.3153488 0.1962430
v 1.1203620 2.8511972 0.4382570
v 1.0842200 3.5029460 0.5618510
v -0.2242610 0.6829060 -0.1569521
v -0.1238169 1.1604111 -0.1430130
v 0.0624272 1.5931019 -0.0652500
v 0.1308300 1.8525420 0.0190800
v 0.3648499 2.0967242 0.0849530
v 0.7090630 2.1616520 0.1493120
v 0.8354289 2.3982896 0.2503640
v 0.9158960 2.8669522 0.4929309
v 0.9105480 3.4507120 0.5559769
v -0.3483770 0.6817500 0.0594900
v -0.2561960 1.2076432 0.0631370
v -0.0651760 1.5773141 0.0880210
v -0.0104400 1.8229992 0.1690710
v 0.3951180 2.1105486 0.2611859
v 0.6034099 2.1911360 0.3297300
v 0.7229790 2.4000686 0.4040390
v 0.8129090 2.8069910 0.6233450
v 0.8016320 3.4203500 0.6561180
v -0.2242610 0.7057420 0.2746009
v -0.1660089 1.1434650 0.2867450
v 0.0328850 1.4610641 0.2858160
v 0.0503030 1.7387370 0.3168969
v 0.3421749 2.0003212 0.3924909
v 0.6851519 2.0599942 0.4736130
v 0.8138639 2.3066030 0.5428510
v 0.9141520 2.7102432 0.7310448
v 0.8595390 3.4409088 0.7940923
v 0.0239700 0.7308890 0.2732700
v 0.0565580 1.0320542 0.3042030
v 0.2593380 1.3575090 0.2700510
v 0.4051690 1.4963640 0.3243300
v 0.7027569 1.7100800 0.4132650
v 0.8693380 1.8857220 0.4806048
v 1.0143049 2.1990532 0.5672430
v 1.1181500 2.6524228 0.7402880
v 1.0195189 3.4905108 0.8638840
v 0.1480861 0.7320450 0.0568290
v 0.1889371 0.9848220 0.0980530
v 0.3877290 1.3702041 0.0564919
v 0.5116730 1.4780651 0.0994410
v 0.7947428 1.6792850 0.1833880
v 0.9782010 1.8698810 0.2566599
v 1.1296500 2.2095782 0.3743109
v 1.2213720 2.7334160 0.5779151
v 1.1352820 3.5221884 0.7317838
v -0.2346610 2.0742322 0.1025910
v -0.5940110 2.0529942 0.4230990
v -0.8530980 1.9075654 0.6005450
v -0.2249319 1.9329742 0.2585750
v -0.5026770 1.9264282 0.5452749
v -0.7506160 1.8498390 0.7075979
v -0.9487002 1.9882194 0.5950300
v -0.1528630 2.3159502 0.3522210
v -0.5510320 2.3044800 0.5498499
v -1.0024330 2.0573010 0.7480190
v -0.1810520 2.2998100 0.1558920
v -0.6152750 2.2225920 0.4248280
v -0.1247960 1.9534212 0.4438420
v -0.4309810 2.0277502 0.6638549
v -0.8268867 1.9260130 0.8641350
v -0.1217390 2.2021104 0.5119200
v -0.4574980 2.2399060 0.6659880
v -0.9348000 2.0080232 0.8605962
# 100 normals
vn 0.391595 0.252609 -0.884728
vn -0.388696 0.250565 -0.886590
vn -0.415675 0.279039 -0.865562
vn 0.439022 0.321644 -0.838827
vn -0.976164 0.208387 -0.060154
vn -0.975218 0.220778 -0.003571
vn -0.450894 0.173473 0.875481
vn -0.432644 0.148263 0.889184
vn 0.450894 0.173473 0.875481
vn 0.458951 0.191387 0.867515
vn 0.975951 0.210462 -0.056369
vn 0.954587 0.297626 0.011384
vn -0.520784 0.238754 -0.819569
vn 0.409174 0.236892 -0.881035
vn -0.481536 0.201947 -0.852774
vn 0.417231 -0.105963 -0.902460
vn -0.375938 0.317524 -0.870506
vn 0.273332 -0.032198 -0.961301
vn -0.170360 0.266221 -0.948727
vn 0.216780 0.056614 -0.974547
vn 0.055637 0.609717 -0.790576
vn 0.308826 0.022249 -0.950833
vn -0.147623 0.565861 -0.811085
vn 0.472746 0.074681 -0.877892
vn -0.356955 0.483275 -0.799274
vn 0.532076 0.206525 -0.820973
vn -0.447079 0.273790 -0.851492
vn 0.532290 0.250229 -0.808613
vn -0.394922 0.111091 -0.911921
vn 0.603430 0.184093 -0.775774
vn -0.978392 0.205823 0.018830
vn -0.945614 0.320393 -0.054630
vn -0.911677 0.396020 -0.109351
vn -0.862693 -0.413966 -0.290331
vn 0.127999 0.964903 0.228957
vn -0.613136 0.761796 0.208661
vn -0.945920 0.323903 0.011719
vn -0.995422 0.076146 0.057316
vn -0.997314 -0.024507 -0.068577
vn -0.506775 0.092932 0.856986
vn -0.575475 0.170390 0.799854
vn -0.426967 0.116218 0.896631
vn -0.279528 -0.285357 0.916621
vn 0.011628 0.106726 0.994171
vn -0.328908 -0.006256 0.944272
vn -0.490173 -0.157175 0.857322
vn -0.463468 -0.178050 0.867942
vn -0.461607 -0.125282 0.878166
vn 0.373039 0.067814 0.925288
vn 0.366416 -0.145395 0.918910
vn 0.384850 -0.309315 0.869499
vn 0.097937 -0.434475 0.895257
vn 0.141000 -0.493316 0.858237
vn 0.316303 -0.464720 0.826924
vn 0.445614 -0.410548 0.795367
vn 0.434444 -0.240524 0.867881
vn 0.419062 -0.078496 0.904444
vn 0.976103 0.204908 0.072026
vn 0.942013 -0.333272 0.036837
vn 0.826192 -0.538180 -0.166361
vn 0.637948 -0.746902 -0.187054
vn 0.665354 -0.724867 -0.178172
vn 0.853446 -0.511872 -0.097540
vn 0.965788 -0.251511 -0.061863
vn 0.993835 -0.031466 0.106208
vn 0.972105 0.063908 0.225569
vn -0.429897 -0.855490 -0.288409
vn -0.369560 -0.030611 -0.928585
vn 0.015382 -0.995056 -0.097357
vn -0.487151 -0.365928 -0.792926
vn 0.324055 -0.944516 0.053073
vn -0.251541 -0.522920 -0.814381
vn -0.107703 0.689739 -0.715895
vn 0.200665 0.970701 0.131875
vn -0.557529 0.558811 -0.613685
vn -0.228621 0.965086 0.127113
vn -0.622017 0.479491 -0.618873
vn -0.411127 0.888177 0.205060
vn 0.130837 -0.561954 0.816639
vn 0.441799 -0.362235 0.820607
vn 0.422084 -0.049625 0.905085
vn 0.397272 0.346823 0.849570
vn 0.248611 0.548617 0.798205
vn 0.039034 0.614784 0.787646
vn -0.634133 -0.767839 0.090368
vn -0.634133 -0.767839 0.090368
vn -0.634133 -0.767839 0.090368
vn -0.634133 -0.767839 0.090368
vn -0.612098 -0.782152 0.115608
vn -0.612098 -0.782152 0.115608
vn -0.612098 -0.782152 0.115608
vn -0.612098 -0.782152 0.115608
vn -0.287188 0.957517 -0.022066
vn -0.287188 0.957517 -0.022066
vn -0.287188 0.957517 -0.022066
vn -0.287188 0.957517 -0.022066
vn -0.287188 0.957517 -0.022066
vn -0.287188 0.957517 -0.022066
vn -0.287188 0.957517 -0.022066
vn -0.287188 0.957517 -0.022066
# 107 uv coords
vt 0.751525 0.214957
vt 0.839572 0.276445
vt 0.511742 0.111828
vt 0.621234 0.131501
vt 0.722882 0.294005
vt 0.792022 0.322295
vt 0.712605 0.422185
vt 0.647689 0.528093
vt 0.633354 0.605018
vt 0.567772 0.683399
vt 0.465721 0.704089
vt 0.390382 0.749002
vt 0.262578 0.831345
vt 0.118759 0.900729
vt 0.558007 0.737654
vt 0.485570 0.760703
vt 0.409660 0.792785
vt 0.295649 0.865917
vt 0.142879 0.925156
vt 0.515162 0.209997
vt 0.523280 0.336304
vt 0.427249 0.350293
vt 0.358428 0.347006
vt 0.580634 0.242852
vt 0.556975 0.330988
vt 0.479649 0.401205
vt 0.446212 0.436418
vt 0.393846 0.510998
vt 0.354812 0.553762
vt 0.290495 0.609957
vt 0.196439 0.684146
vt 0.730716 0.664099
vt 0.856057 0.686656
vt 0.719049 0.760263
vt 0.834937 0.772614
vt 0.715978 0.716693
vt 0.845299 0.731165
vt 0.277356 0.307219
vt 0.199597 0.234595
vt 0.043277 0.018920
vt 0.091839 0.020896
vt 0.136970 0.063054
vt 0.095327 0.124001
vt 0.010185 0.078840
vt 0.042707 0.122524
vt 0.042754 0.815392
vt 0.070535 0.848621
vt 0.221380 0.732229
vt 0.331761 0.652045
vt 0.400709 0.593459
vt 0.444496 0.549059
vt 0.504334 0.482191
vt 0.537134 0.448218
vt 0.609053 0.344011
vt 0.663731 0.379228
vt 0.649927 0.269990
vt 0.690714 0.168418
vt 0.591664 0.491056
vt 0.554287 0.533197
vt 0.481967 0.600053
vt 0.436160 0.643857
vt 0.364523 0.698437
vt 0.233343 0.784913
vt 0.497066 0.815333
vt 0.430590 0.836871
vt 0.574350 0.782546
vt 0.328077 0.898905
vt 0.136697 0.960144
vt 0.065346 0.888887
vt 0.245081 0.569841
vt 0.300860 0.518283
vt 0.696321 0.541267
vt 0.689363 0.598283
vt 0.757297 0.619298
vt 0.714276 0.807990
vt 0.304855 0.430517
vt 0.003044 0.820879
vt 0.150600 0.654380
vt 0.761400 0.465263
vt 0.948458 0.687192
vt 0.959462 0.720090
vt 0.868221 0.635063
vt 0.978549 0.764345
vt 0.826261 0.813685
vt 0.215699 0.332899
vt 0.844018 0.366446
vt 0.949006 0.645211
vt 0.980265 0.802468
vt 0.312694 0.267216
vt 0.355163 0.300000
vt 0.152280 0.262435
vt 0.410032 0.287763
vt 0.820107 0.110568
vt 0.923332 0.186354
vt 0.904768 0.325606
vt 0.233682 0.207864
vt 0.113520 0.119548
vt 0.147744 0.125445
vt 0.510150 0.298663
vt 0.732648 0.071780
vt 0.988322 0.266405
vt 0.196017 0.137032
vt 0.449207 0.204073
vt 0.639962 0.046598
vt 0.513006 0.026131
vt 0.430210 0.128895
vt 0.409693 0.028074
# 80 polygons
usemtl initialShadingGroup
s 1
g burntTree_01
f 1/93/1 2/94/2 8/2/3 7/1/4
f 2/94/2 3/101/5 9/95/6 8/2/3
f 3/107/5 4/105/7 10/3/8 9/106/6
f 4/105/7 5/104/9 11/4/10 10/3/8
f 5/104/9 6/100/11 12/57/12 11/4/10
f 6/100/11 1/93/1 7/1/4 12/57/12
f 7/1/4 8/2/3 22/6/13 13/5/14
f 13/5/14 22/6/13 23/7/15 14/55/16
f 14/55/16 23/7/15 24/8/17 15/58/18
f 15/58/18 24/8/17 25/9/19 16/59/20
f 26/10/21 17/60/22 16/59/20 25/9/19
f 17/60/22 26/10/21 27/11/23 18/61/24
f 18/61/24 27/11/23 28/12/25 19/62/26
f 19/62/26 28/12/25 29/13/27 20/63/28
f 20/63/28 29/13/27 30/14/29 21/69/30
f 8/2/3 9/95/6 31/86/31 22/6/13
f 22/6/13 31/86/31 32/79/32 23/7/15
f 23/7/15 32/79/32 33/72/33 24/8/17
f 24/8/17 33/72/33 34/73/34 25/9/19
f 26/10/21 35/15/35 36/16/36 27/11/23
f 27/11/23 36/16/36 37/17/37 28/12/25
f 28/12/25 37/17/37 38/18/38 29/13/27
f 29/13/27 38/18/38 39/19/39 30/14/29
f 9/106/6 10/3/8 40/20/40 31/103/31
f 31/103/31 40/20/40 41/21/41 32/99/32
f 32/99/32 41/21/41 42/22/42 33/92/33
f 33/92/33 42/22/42 43/23/43 34/90/34
f 35/15/35 44/66/44 45/64/45 36/16/36
f 36/16/36 45/64/45 46/65/46 37/17/37
f 37/17/37 46/65/46 47/67/47 38/18/38
f 38/18/38 47/67/47 48/68/48 39/19/39
f 10/3/8 11/4/10 49/24/49 40/20/40
f 40/20/40 49/24/49 50/25/50 41/21/41
f 41/21/41 50/25/50 51/26/51 42/22/42
f 42/22/42 51/26/51 52/27/52 43/23/43
f 53/28/53 44/76/44 43/23/43 52/27/52
f 44/76/44 53/28/53 54/29/54 45/71/45
f 45/71/45 54/29/54 55/30/55 46/70/46
f 46/70/46 55/30/55 56/31/56 47/78/47
f 47/78/47 56/31/56 57/46/57 48/77/48
f 11/4/10 12/57/12 58/56/58 49/24/49
f 49/24/49 58/56/58 59/54/59 50/25/50
f 50/25/50 59/54/59 60/53/60 51/26/51
f 51/26/51 60/53/60 61/52/61 52/27/52
f 62/51/62 53/28/53 52/27/52 61/52/61
f 53/28/53 62/51/62 63/50/63 54/29/54
f 54/29/54 63/50/63 64/49/64 55/30/55
f 55/30/55 64/49/64 65/48/65 56/31/56
f 56/31/56 65/48/65 66/47/66 57/46/57
f 12/57/12 7/1/4 13/5/14 58/56/58
f 58/56/58 13/5/14 14/55/16 59/54/59
f 59/54/59 14/55/16 15/58/18 60/53/60
f 60/53/60 15/58/18 16/59/20 61/52/61
f 16/59/20 17/60/22 62/51/62 61/52/61
f 62/51/62 17/60/22 18/61/24 63/50/63
f 63/50/63 18/61/24 19/62/26 64/49/64
f 64/49/64 19/62/26 20/63/28 65/48/65
f 65/48/65 20/63/28 21/69/30 66/47/66
f 25/9/19 34/73/34 70/74/67 67/32/68
f 67/32/68 70/74/67 71/82/69 68/33/70
f 68/33/70 71/82/69 72/87/71 69/80/72
f 35/15/35 26/10/21 77/36/73 74/34/74
f 74/34/74 77/36/73 78/37/75 75/35/76
f 75/35/76 78/37/75 73/81/77 76/83/78
f 67/32/68 77/36/73 26/10/21 25/9/19
f 68/33/70 78/37/75 77/36/73 67/32/68
f 73/81/77 78/37/75 68/33/70 69/80/72
f 34/90/34 43/23/43 79/38/79 70/89/67
f 70/89/67 79/38/79 80/39/80 71/96/69
f 71/96/69 80/39/80 81/98/81 72/102/71
f 79/38/79 43/23/43 44/76/44 82/85/82
f 80/39/80 79/38/79 82/85/82 83/91/83
f 81/98/81 80/39/80 83/91/83 84/97/84
f 44/66/44 35/15/35 74/34/74 82/75/82
f 82/75/82 74/34/74 75/35/76 83/84/83
f 83/84/83 75/35/76 76/83/78 84/88/84
s off
f 76/44/85 73/40/86 81/43/87 84/45/88
f 73/40/89 69/41/90 72/42/91 81/43/92
f 66/47/93 21/69/94 48/77/95 57/46/96
f 39/19/97 48/68/98 21/69/99 30/14/100
