# This file uses centimeters as units for non-parametric coordinates.

mtllib icicle_01.mtl
g default
v 0.048603 -2.404275 0.402832
v 0.223791 -2.404275 -0.265275
v 0.035072 -0.005366 0.617803
v 0.271052 -0.005366 -0.282141
v -0.095864 -0.005366 -1.051149
v -0.048603 -2.404275 -0.836178
v 0.068021 -5.046347 0.094305
v 0.155962 -6.104112 -0.241070
v 0.019226 -5.046347 -0.527650
v -0.135468 -1.317343 -1.181525
v -0.029586 -1.317343 -1.585320
v -0.143645 -0.005533 -1.051599
v -0.001023 -0.005533 -1.595513
v -0.222781 -0.005533 -2.060292
v -0.194217 -1.317343 -1.930366
v -0.123731 -2.914176 -1.367995
v -0.070581 -3.553475 -1.570691
v -0.153222 -2.914176 -1.743896
v -0.135468 -1.699802 -2.065918
v -0.029586 -1.699802 -2.469713
v -0.143645 -0.007140 -1.935992
v -0.001023 -0.007140 -2.479907
v -0.222781 -0.007140 -2.944685
v -0.194217 -1.699802 -2.814759
v -0.123731 -3.760237 -2.252388
v -0.070581 -4.585141 -2.455084
v -0.153222 -3.760237 -2.628289
v -0.075620 -0.948848 -2.998732
v -0.016515 -0.948848 -3.224135
v -0.080184 -0.003985 -2.926206
v -0.000571 -0.003985 -3.229825
v -0.124359 -0.003985 -3.489269
v -0.108414 -0.948848 -3.416743
v -0.069068 -2.099005 -3.102822
v -0.039399 -2.559475 -3.215969
v -0.085530 -2.099005 -3.312654
v 0.040622 -2.009506 -3.655767
v 0.187046 -2.009506 -4.214175
v 0.029314 -0.004485 -3.476093
v 0.226546 -0.004485 -4.228271
v -0.080123 -0.004485 -4.871013
v -0.040622 -2.009506 -4.691339
v 0.056853 -4.217764 -3.913636
v 0.130354 -5.101850 -4.193944
v 0.016070 -4.217764 -4.433470
v 0.022079 -1.835343 -5.013888
v 0.101661 -1.835343 -5.317388
v 0.015932 -0.004096 -4.916234
v 0.123130 -0.004096 -5.325049
v -0.043548 -0.004096 -5.674384
v -0.022079 -1.835343 -5.576730
v 0.030900 -3.852213 -5.154042
v 0.070848 -4.659676 -5.306392
v 0.008734 -3.852213 -5.436576
v 0.040622 -2.009506 1.823534
v 0.187046 -2.009506 1.265126
v 0.029314 -0.004485 2.003208
v 0.226546 -0.004485 1.251030
v -0.080123 -0.004485 0.608289
v -0.040622 -2.009506 0.787963
v 0.056853 -4.217764 1.565665
v 0.130354 -5.101850 1.285357
v 0.016070 -4.217764 1.045832
v -0.075620 -0.948848 2.427438
v -0.016515 -0.948848 2.202035
v -0.080184 -0.003985 2.499964
v -0.000571 -0.003985 2.196345
v -0.124359 -0.003985 1.936901
v -0.108414 -0.948848 2.009427
v -0.069068 -2.099005 2.323349
v -0.039399 -2.559475 2.210202
v -0.085530 -2.099005 2.113517
v 0.022079 -1.835343 3.100309
v 0.101661 -1.835343 2.796809
v 0.015932 -0.004096 3.197963
v 0.123130 -0.004096 2.789148
v -0.043548 -0.004096 2.439813
v -0.022079 -1.835343 2.537467
v 0.030900 -3.852213 2.960155
v 0.070848 -4.659676 2.807805
v 0.008734 -3.852213 2.677621
vt 0.036597 0.571245
vt 0.136837 0.571245
vt 0.139368 0.931168
vt 0.004344 0.931168
vt 0.082887 0.174838
vt 0.133206 0.016135
vt 0.222493 0.571245
vt 0.254747 0.931168
vt 0.176203 0.174838
vt 0.769435 0.353114
vt 0.830019 0.353114
vt 0.831548 0.549934
vt 0.749941 0.549934
vt 0.797412 0.113532
vt 0.827824 0.017614
vt 0.881788 0.353114
vt 0.901282 0.549934
vt 0.853811 0.113532
vt 0.615183 0.449041
vt 0.675766 0.449041
vt 0.677296 0.703001
vt 0.595689 0.703001
vt 0.643160 0.139901
vt 0.673571 0.016135
vt 0.727536 0.449041
vt 0.747029 0.703001
vt 0.699559 0.139901
vt 0.913236 0.262030
vt 0.947055 0.262030
vt 0.947908 0.403794
vt 0.902355 0.403794
vt 0.928853 0.089465
vt 0.945830 0.020378
vt 0.975953 0.262030
vt 0.986834 0.403794
vt 0.960336 0.089465
vt 0.396587 0.480099
vt 0.480369 0.480099
vt 0.482484 0.780924
vt 0.369630 0.780924
vt 0.435277 0.148780
vt 0.477333 0.016135
vt 0.551961 0.480099
vt 0.578918 0.780924
vt 0.513271 0.148780
vt 0.257819 0.439887
vt 0.303355 0.439887
vt 0.304505 0.714641
vt 0.243168 0.714641
vt 0.278847 0.137284
vt 0.301705 0.016135
vt 0.342266 0.439887
vt 0.356918 0.714641
vt 0.321238 0.137284
vt 0.399354 0.480099
vt 0.483135 0.480099
vt 0.485250 0.780924
vt 0.372396 0.780924
vt 0.438044 0.148780
vt 0.480100 0.016135
vt 0.554727 0.480099
vt 0.581685 0.780924
vt 0.516038 0.148780
vt 0.912550 0.262030
vt 0.946368 0.262030
vt 0.947222 0.403794
vt 0.901668 0.403794
vt 0.928167 0.089465
vt 0.945143 0.020378
vt 0.975266 0.262030
vt 0.986148 0.403794
vt 0.959649 0.089465
vt 0.257063 0.439887
vt 0.302599 0.439887
vt 0.303749 0.714641
vt 0.242411 0.714641
vt 0.278091 0.137284
vt 0.300949 0.016135
vt 0.341510 0.439887
vt 0.356161 0.714641
vt 0.320482 0.137284
vn 0.967154 -0.017271 0.253603
vn 0.967154 -0.017271 0.253603
vn 0.967154 -0.017271 0.253603
vn 0.967154 -0.017271 0.253603
vn 0.902337 -0.020804 -0.430530
vn 0.902337 -0.020804 -0.430530
vn 0.902337 -0.020804 -0.430530
vn 0.902337 -0.020804 -0.430530
vn 0.961858 -0.019575 0.272848
vn 0.961858 -0.019575 0.272848
vn 0.961858 -0.019575 0.272848
vn 0.961858 -0.019575 0.272848
vn 0.890530 -0.023835 -0.454299
vn 0.890530 -0.023835 -0.454299
vn 0.890530 -0.023835 -0.454299
vn 0.890530 -0.023835 -0.454299
vn 0.967122 -0.019088 0.253595
vn 0.967122 -0.019088 0.253595
vn 0.967122 -0.019088 0.253595
vn 0.967122 -0.019088 0.253595
vn 0.902293 -0.022992 -0.430509
vn 0.902293 -0.022992 -0.430509
vn 0.902293 -0.022992 -0.430509
vn 0.902293 -0.022992 -0.430509
vn 0.961858 -0.019575 0.272848
vn 0.961858 -0.019575 0.272848
vn 0.961858 -0.019575 0.272848
vn 0.961858 -0.019575 0.272848
vn 0.890530 -0.023835 -0.454299
vn 0.890530 -0.023835 -0.454299
vn 0.890530 -0.023835 -0.454299
vn 0.890530 -0.023835 -0.454299
vn 0.967193 -0.014794 0.253613
vn 0.967193 -0.014794 0.253613
vn 0.967193 -0.014794 0.253613
vn 0.967193 -0.014794 0.253613
vn 0.902389 -0.017821 -0.430555
vn 0.902389 -0.017821 -0.430555
vn 0.902389 -0.017821 -0.430555
vn 0.902389 -0.017821 -0.430555
vn 0.961932 -0.015171 0.272869
vn 0.961932 -0.015171 0.272869
vn 0.961932 -0.015171 0.272869
vn 0.961932 -0.015171 0.272869
vn 0.890631 -0.018474 -0.454351
vn 0.890631 -0.018474 -0.454351
vn 0.890631 -0.018474 -0.454351
vn 0.890631 -0.018474 -0.454351
vn 0.967193 -0.014794 0.253613
vn 0.967193 -0.014794 0.253613
vn 0.967193 -0.014794 0.253613
vn 0.967193 -0.014794 0.253613
vn 0.902389 -0.017821 -0.430555
vn 0.902389 -0.017821 -0.430555
vn 0.902389 -0.017821 -0.430555
vn 0.902389 -0.017821 -0.430555
vn 0.961932 -0.015171 0.272869
vn 0.961932 -0.015171 0.272869
vn 0.961932 -0.015171 0.272869
vn 0.961932 -0.015171 0.272869
vn 0.890632 -0.018474 -0.454350
vn 0.890632 -0.018474 -0.454350
vn 0.890632 -0.018474 -0.454350
vn 0.890632 -0.018474 -0.454350
vn 0.967154 -0.017271 0.253603
vn 0.967154 -0.017271 0.253603
vn 0.967154 -0.017271 0.253603
vn 0.967154 -0.017271 0.253603
vn 0.902337 -0.020804 -0.430530
vn 0.902337 -0.020804 -0.430530
vn 0.902337 -0.020804 -0.430530
vn 0.902337 -0.020804 -0.430530
vn 0.961858 -0.019575 0.272848
vn 0.961858 -0.019575 0.272848
vn 0.961858 -0.019575 0.272848
vn 0.961858 -0.019575 0.272848
vn 0.890530 -0.023835 -0.454299
vn 0.890530 -0.023835 -0.454299
vn 0.890531 -0.023835 -0.454299
vn 0.890530 -0.023835 -0.454299
vn 0.967247 -0.010279 0.253628
vn 0.967247 -0.010279 0.253628
vn 0.967247 -0.010279 0.253628
vn 0.967247 -0.010279 0.253628
vn 0.902463 -0.012382 -0.430590
vn 0.902463 -0.012382 -0.430590
vn 0.902463 -0.012382 -0.430590
vn 0.902463 -0.012382 -0.430590
vn 0.961977 -0.011650 0.272882
vn 0.961977 -0.011650 0.272882
vn 0.961977 -0.011650 0.272882
vn 0.961977 -0.011650 0.272882
vn 0.890693 -0.014186 -0.454383
vn 0.890693 -0.014186 -0.454383
vn 0.890693 -0.014186 -0.454383
vn 0.890693 -0.014186 -0.454383
vn 0.967154 -0.017271 0.253603
vn 0.967154 -0.017271 0.253603
vn 0.967154 -0.017271 0.253603
vn 0.967154 -0.017271 0.253603
vn 0.902337 -0.020804 -0.430530
vn 0.902337 -0.020804 -0.430530
vn 0.902337 -0.020804 -0.430530
vn 0.902337 -0.020804 -0.430530
vn 0.961858 -0.019575 0.272848
vn 0.961858 -0.019575 0.272848
vn 0.961858 -0.019575 0.272848
vn 0.961858 -0.019575 0.272848
vn 0.890530 -0.023835 -0.454299
vn 0.890530 -0.023835 -0.454299
vn 0.890530 -0.023835 -0.454299
vn 0.890530 -0.023835 -0.454299
vn 0.967193 -0.014794 0.253613
vn 0.967193 -0.014794 0.253613
vn 0.967193 -0.014794 0.253613
vn 0.967193 -0.014794 0.253613
vn 0.902389 -0.017821 -0.430555
vn 0.902389 -0.017821 -0.430555
vn 0.902389 -0.017821 -0.430555
vn 0.902389 -0.017821 -0.430555
vn 0.961932 -0.015171 0.272869
vn 0.961932 -0.015171 0.272869
vn 0.961932 -0.015171 0.272869
vn 0.961932 -0.015171 0.272869
vn 0.890631 -0.018474 -0.454351
vn 0.890631 -0.018474 -0.454351
vn 0.890631 -0.018474 -0.454351
vn 0.890631 -0.018474 -0.454351
vn 0.967247 -0.010279 0.253627
vn 0.967247 -0.010279 0.253627
vn 0.967247 -0.010279 0.253627
vn 0.967247 -0.010279 0.253627
vn 0.902463 -0.012382 -0.430590
vn 0.902463 -0.012382 -0.430590
vn 0.902463 -0.012382 -0.430590
vn 0.902463 -0.012382 -0.430590
vn 0.961977 -0.011650 0.272881
vn 0.961977 -0.011650 0.272881
vn 0.961977 -0.011650 0.272881
vn 0.961977 -0.011650 0.272881
vn 0.890694 -0.014186 -0.454382
vn 0.890694 -0.014186 -0.454382
vn 0.890694 -0.014186 -0.454382
vn 0.890694 -0.014186 -0.454382
s off
g icicle_01:icicle_01
usemtl initialShadingGroup
f 1/1/1 2/2/2 4/3/3 3/4/4
f 2/2/5 6/7/6 5/8/7 4/3/8
f 2/2/9 1/1/10 7/5/11 8/6/12
f 6/7/13 2/2/14 8/6/15 9/9/16
f 10/10/17 11/11/18 13/12/19 12/13/20
f 11/11/21 15/16/22 14/17/23 13/12/24
f 11/11/25 10/10/26 16/14/27 17/15/28
f 15/16/29 11/11/30 17/15/31 18/18/32
f 19/19/33 20/20/34 22/21/35 21/22/36
f 20/20/37 24/25/38 23/26/39 22/21/40
f 20/20/41 19/19/42 25/23/43 26/24/44
f 24/25/45 20/20/46 26/24/47 27/27/48
f 28/28/49 29/29/50 31/30/51 30/31/52
f 29/29/53 33/34/54 32/35/55 31/30/56
f 29/29/57 28/28/58 34/32/59 35/33/60
f 33/34/61 29/29/62 35/33/63 36/36/64
f 37/37/65 38/38/66 40/39/67 39/40/68
f 38/38/69 42/43/70 41/44/71 40/39/72
f 38/38/73 37/37/74 43/41/75 44/42/76
f 42/43/77 38/38/78 44/42/79 45/45/80
f 46/46/81 47/47/82 49/48/83 48/49/84
f 47/47/85 51/52/86 50/53/87 49/48/88
f 47/47/89 46/46/90 52/50/91 53/51/92
f 51/52/93 47/47/94 53/51/95 54/54/96
f 55/55/97 56/56/98 58/57/99 57/58/100
f 56/56/101 60/61/102 59/62/103 58/57/104
f 56/56/105 55/55/106 61/59/107 62/60/108
f 60/61/109 56/56/110 62/60/111 63/63/112
f 64/64/113 65/65/114 67/66/115 66/67/116
f 65/65/117 69/70/118 68/71/119 67/66/120
f 65/65/121 64/64/122 70/68/123 71/69/124
f 69/70/125 65/65/126 71/69/127 72/72/128
f 73/73/129 74/74/130 76/75/131 75/76/132
f 74/74/133 78/79/134 77/80/135 76/75/136
f 74/74/137 73/73/138 79/77/139 80/78/140
f 78/79/141 74/74/142 80/78/143 81/81/144
