# This file uses centimeters as units for non-parametric coordinates.

mtllib petal_01.mtl
g default
v 0.394698 1.132866 2.495942
v 2.100825 1.132866 1.305301
v 0.812769 1.495141 2.543971
v 2.001680 1.495141 1.714275
v 1.355878 2.316871 2.667835
v 1.930578 2.316871 2.266774
v 1.559889 3.003559 2.415036
v 1.622920 3.003559 2.371050
v 1.601004 0.852759 0.847339
v -0.015485 0.274466 0.090454
v 0.137279 0.852759 1.868817
v -1.890872 1.132866 1.651717
v -0.005139 1.132866 2.530641
v -1.722755 1.495141 2.037498
v -0.408686 1.495141 2.649974
v -1.557536 2.316871 2.569487
v -0.922337 2.316871 2.865548
v -1.236514 3.003559 2.619203
v -1.166848 3.003559 2.651674
v 0.140396 0.852759 1.868546
v -0.015485 0.274466 0.090454
v -1.477417 0.852759 1.114497
v -2.290619 1.132866 -0.791807
v -2.144142 1.132866 1.283534
v -2.546368 1.495141 -0.457617
v -2.444295 1.495141 0.988580
v -2.931366 2.316871 -0.055019
v -2.882026 2.316871 0.644049
v -2.819071 3.003559 0.249804
v -2.813659 3.003559 0.326475
v -1.494595 0.852759 1.089525
v -0.015485 0.274466 0.090454
v -1.620262 0.852759 -0.690957
v -0.379570 1.132866 -2.322442
v -2.108165 1.132866 -1.164661
v -0.796645 1.495141 -2.378461
v -2.001213 1.495141 -1.571663
v -1.337285 2.316871 -2.512693
v -1.919553 2.316871 -2.122700
v -1.546095 3.003559 -2.263844
v -1.609956 3.003559 -2.221071
v -1.617197 0.852759 -0.697220
v -0.015485 0.274466 0.090454
v -0.134196 0.852759 -1.690506
v 1.889646 1.132866 -1.434374
v 0.021203 1.132866 -2.349480
v 1.728995 1.495141 -1.823323
v 0.426974 1.495141 -2.461013
v 1.574060 2.316871 -2.358398
v 0.944685 2.316871 -2.666646
v 1.254055 3.003559 -2.414292
v 1.185028 3.003559 -2.448100
v -0.137067 0.852759 -1.690313
v -0.015485 0.274466 0.090454
v 1.465913 0.852759 -0.905223
v 2.260270 1.132866 0.971115
v 2.112333 1.132866 -1.104123
v 2.515783 1.495141 0.636745
v 2.412694 1.495141 -0.809380
v 2.900498 2.316871 0.233876
v 2.850667 2.316871 -0.465157
v 2.787988 3.003559 -0.070868
v 2.782523 3.003559 -0.147535
v 1.462923 0.852759 -0.909657
v -0.015485 0.274466 0.090454
v 1.589841 0.852759 0.870737
vt 0.602807 0.184248
vt 0.182964 0.602897
vt 0.030325 0.029978
vt 0.792747 0.305202
vt 0.303376 0.793181
vt 0.783925 0.444710
vt 0.442908 0.784757
vt 0.445091 0.782728
vt 0.786108 0.442681
vt 0.890756 0.723803
vt 0.725914 0.888177
vt 0.978437 0.958498
vt 0.960357 0.976526
vt 0.602807 0.184248
vt 0.182964 0.602897
vt 0.030325 0.029978
vt 0.792747 0.305202
vt 0.303376 0.793181
vt 0.783925 0.444710
vt 0.442908 0.784757
vt 0.445091 0.782728
vt 0.786108 0.442681
vt 0.890756 0.723803
vt 0.725914 0.888177
vt 0.978437 0.958498
vt 0.960357 0.976526
vt 0.602807 0.184248
vt 0.182964 0.602897
vt 0.030325 0.029978
vt 0.792747 0.305202
vt 0.303376 0.793181
vt 0.783925 0.444710
vt 0.442908 0.784757
vt 0.445091 0.782728
vt 0.786108 0.442681
vt 0.890756 0.723803
vt 0.725914 0.888177
vt 0.978437 0.958498
vt 0.960357 0.976526
vt 0.602807 0.184248
vt 0.182964 0.602897
vt 0.030325 0.029978
vt 0.792747 0.305202
vt 0.303376 0.793181
vt 0.783925 0.444710
vt 0.442908 0.784757
vt 0.445091 0.782728
vt 0.786108 0.442681
vt 0.890756 0.723803
vt 0.725914 0.888177
vt 0.978437 0.958498
vt 0.960357 0.976526
vt 0.602807 0.184248
vt 0.182964 0.602897
vt 0.030325 0.029978
vt 0.792747 0.305202
vt 0.303376 0.793181
vt 0.783925 0.444710
vt 0.442908 0.784757
vt 0.445091 0.782728
vt 0.786108 0.442681
vt 0.890756 0.723803
vt 0.725914 0.888177
vt 0.978437 0.958498
vt 0.960357 0.976526
vt 0.602807 0.184248
vt 0.182964 0.602897
vt 0.030325 0.029978
vt 0.792747 0.305202
vt 0.303376 0.793181
vt 0.783925 0.444710
vt 0.442908 0.784757
vt 0.445091 0.782728
vt 0.786108 0.442681
vt 0.890756 0.723803
vt 0.725914 0.888177
vt 0.978437 0.958498
vt 0.960357 0.976526
vn -0.214325 0.927224 -0.307116
vn -0.214325 0.927224 -0.307116
vn -0.200525 0.936603 -0.287342
vn -0.298305 0.853402 -0.427456
vn -0.298305 0.853402 -0.427456
vn -0.478865 0.547571 -0.686188
vn -0.478865 0.547571 -0.686188
vn -0.530159 0.376564 -0.759691
vn -0.530159 0.376564 -0.759691
vn -0.567373 -0.130742 -0.813016
vn -0.567373 -0.130742 -0.813016
vn 0.158213 0.927224 -0.339447
vn 0.158213 0.927224 -0.339447
vn 0.148026 0.936603 -0.317591
vn 0.220207 0.853402 -0.472455
vn 0.220207 0.853402 -0.472455
vn 0.353495 0.547571 -0.758424
vn 0.353495 0.547571 -0.758424
vn 0.391361 0.376564 -0.839664
vn 0.391361 0.376564 -0.839664
vn 0.418831 -0.130742 -0.898603
vn 0.418831 -0.130742 -0.898603
vn 0.373578 0.927224 -0.026367
vn 0.373578 0.927224 -0.026367
vn 0.349524 0.936603 -0.024669
vn 0.519959 0.853402 -0.036699
vn 0.519959 0.853402 -0.036699
vn 0.834683 0.547571 -0.058912
vn 0.834683 0.547571 -0.058912
vn 0.924092 0.376564 -0.065222
vn 0.924092 0.376564 -0.065222
vn 0.988956 -0.130742 -0.069800
vn 0.988956 -0.130742 -0.069800
vn 0.208410 0.927224 0.311161
vn 0.208410 0.927224 0.311161
vn 0.194991 0.936603 0.291126
vn 0.290072 0.853402 0.433085
vn 0.290072 0.853402 0.433085
vn 0.465649 0.547571 0.695225
vn 0.465649 0.547571 0.695225
vn 0.515527 0.376564 0.769695
vn 0.515527 0.376564 0.769695
vn 0.551714 -0.130742 0.823723
vn 0.551714 -0.130742 0.823723
vn -0.164726 0.927224 0.336334
vn -0.164726 0.927224 0.336334
vn -0.154120 0.936603 0.314679
vn -0.229272 0.853403 0.468122
vn -0.229272 0.853402 0.468122
vn -0.368047 0.547571 0.751470
vn -0.368047 0.547571 0.751470
vn -0.407471 0.376564 0.831966
vn -0.407471 0.376564 0.831966
vn -0.436073 -0.130742 0.890363
vn -0.436073 -0.130742 0.890363
vn -0.373559 0.927224 0.026630
vn -0.373559 0.927224 0.026630
vn -0.349506 0.936603 0.024915
vn -0.519933 0.853402 0.037064
vn -0.519933 0.853402 0.037064
vn -0.834641 0.547571 0.059499
vn -0.834641 0.547571 0.059499
vn -0.924046 0.376564 0.065872
vn -0.924046 0.376564 0.065872
vn -0.988907 -0.130741 0.070496
vn -0.988907 -0.130741 0.070496
s 1
g polySurface5
usemtl initialShadingGroup
f 11/1/1 9/2/2 10/3/3
f 9/2/2 11/1/1 1/4/4 2/5/5
f 2/5/5 1/4/4 3/6/6 4/7/7
f 4/8/7 3/9/6 5/10/8 6/11/9
f 6/11/9 5/10/8 7/12/10 8/13/11
s 2
f 22/14/12 20/15/13 21/16/14
f 20/15/13 22/14/12 12/17/15 13/18/16
f 13/18/16 12/17/15 14/19/17 15/20/18
f 15/21/18 14/22/17 16/23/19 17/24/20
f 17/24/20 16/23/19 18/25/21 19/26/22
s 3
f 33/27/23 31/28/24 32/29/25
f 31/28/24 33/27/23 23/30/26 24/31/27
f 24/31/27 23/30/26 25/32/28 26/33/29
f 26/34/29 25/35/28 27/36/30 28/37/31
f 28/37/31 27/36/30 29/38/32 30/39/33
s 4
f 44/40/34 42/41/35 43/42/36
f 42/41/35 44/40/34 34/43/37 35/44/38
f 35/44/38 34/43/37 36/45/39 37/46/40
f 37/47/40 36/48/39 38/49/41 39/50/42
f 39/50/42 38/49/41 40/51/43 41/52/44
s 5
f 55/53/45 53/54/46 54/55/47
f 53/54/46 55/53/45 45/56/48 46/57/49
f 46/57/49 45/56/48 47/58/50 48/59/51
f 48/60/51 47/61/50 49/62/52 50/63/53
f 50/63/53 49/62/52 51/64/54 52/65/55
s 6
f 66/66/56 64/67/57 65/68/58
f 64/67/57 66/66/56 56/69/59 57/70/60
f 57/70/60 56/69/59 58/71/61 59/72/62
f 59/73/62 58/74/61 60/75/63 61/76/64
f 61/76/64 60/75/63 62/77/65 63/78/66
