# author: headus 3D tools
#  using: ply2obj v1.8
#   from: uvlayout v2.09.03
mtllib platform_01.mtl
# 53 vertices
v 0.9000000 0.5210000 -0.5660000
v 0.6292270 0.5210000 -0.9157880
v -0.2978320 0.5210000 -0.9157880
v -0.8494970 0.5210000 -0.7255979
v -0.9184810 0.5210000 -0.0000310
v -0.8941840 0.5210000 0.7957590
v -0.2978320 0.5210000 0.9157261
v 0.5973080 0.5210000 0.9157261
v 0.8489280 0.5210000 0.4957151
v 0.7391630 0.5210000 -0.0000310
v 0.9350480 1.0755120 -0.5878160
v 0.6538380 1.0755120 -0.9510880
v -0.3089562 1.0755120 -0.9510880
v -0.8818860 1.0755120 -0.7535659
v -0.9535290 1.0755120 -0.0000310
v -0.9282958 1.0755120 0.8264341
v -0.3089562 1.0755120 0.9510259
v 0.6206881 1.0755120 0.9510259
v 0.8820080 1.0755120 0.5148241
v 0.7680110 1.0755120 -0.0000310
v 0.0000610 1.0755120 -0.0000310
v 0.6804730 0.3211270 -0.4293531
v 0.4750760 0.3211270 -0.6946880
v -0.2281541 0.3211270 -0.6946880
v -0.6466260 0.3211270 -0.5504171
v -0.6989540 0.3211270 -0.0000310
v -0.6805240 0.3211270 0.6036240
v -0.2281541 0.3211270 0.6946261
v 0.4508630 0.3211270 0.6946261
v 0.6417320 0.3211270 0.3760220
v 0.5584681 0.3211270 -0.0000310
v 0.0085940 0.1303160 -0.0000310
v 0.9350480 1.1163630 -0.5878160
v 0.6538380 1.1163630 -0.9510880
v -0.3089562 1.1163630 -0.9510880
v -0.8818860 1.1163630 -0.7535659
v -0.9535290 1.1163630 -0.0000310
v -0.9282958 1.1163630 0.8264341
v -0.3089562 1.1163630 0.9510259
v 0.6206881 1.1163630 0.9510259
v 0.8820080 1.1163630 0.5148241
v 0.7680110 1.1163630 -0.0000310
v 0.0000610 1.1163630 -0.0000310
v 1.0557509 0.8241070 -0.6111470
v 0.7082961 0.8241070 -1.0621119
v -0.3314021 0.8241070 -1.0850630
v -0.9728910 0.8241070 -0.8251919
v -1.0909240 0.8241070 -0.0044480
v -1.0107142 0.8241070 0.8960521
v -0.3225381 0.8241070 1.0874088
v 0.6797661 0.8241070 1.0552861
v 1.0083249 0.8241070 0.5353289
v 0.9014959 0.8241070 0.0039070
# 53 normals
vn 0.953488 -0.272020 -0.129250
vn 0.273637 -0.285143 -0.918483
vn 0.239303 0.533663 -0.810993
vn 0.849203 0.516786 -0.108436
vn -0.123817 -0.288104 -0.949460
vn -0.103705 0.590063 -0.800586
vn -0.791583 -0.286944 -0.539309
vn -0.705091 0.522584 -0.479155
vn -0.956693 -0.289721 -0.027925
vn -0.787890 0.615241 -0.023042
vn -0.790911 -0.290698 0.538424
vn -0.713483 0.505860 0.484588
vn -0.078252 -0.291033 0.953397
vn -0.064610 0.603125 0.794940
vn 0.332387 -0.283922 0.899286
vn 0.294055 0.523958 0.799213
vn 0.949216 -0.271470 0.158671
vn 0.832753 0.537051 0.133919
vn 0.964018 -0.261582 0.046847
vn 0.795978 0.604010 0.038424
vn 0.000000 1.000000 0.000000
vn 0.512635 -0.857169 -0.048434
vn 0.130379 -0.875237 -0.465605
vn -0.060764 -0.873375 -0.483092
vn -0.392572 -0.881218 -0.262864
vn -0.480590 -0.876762 -0.014192
vn -0.382195 -0.887780 0.256241
vn -0.037447 -0.875114 0.482329
vn 0.163065 -0.875542 0.454648
vn 0.513520 -0.855277 0.069035
vn 0.532503 -0.845968 0.025056
vn -0.020234 -0.999786 -0.001801
vn 0.555088 0.827413 -0.084508
vn 0.165995 0.836690 -0.521699
vn 0.000000 1.000000 0.000000
vn -0.066044 0.869590 -0.489166
vn -0.456449 0.831868 -0.315449
vn -0.471556 0.881676 -0.011964
vn -0.466703 0.823384 0.322774
vn -0.042056 0.876213 0.480040
vn 0.202283 0.832052 0.516328
vn 0.534487 0.839407 0.098425
vn 0.442349 0.896539 0.019746
vn 0.904505 0.403925 -0.136178
vn 0.275774 0.406580 -0.870933
vn -0.122780 0.385583 -0.914393
vn -0.744857 0.423823 -0.515168
vn -0.930019 0.366477 -0.023836
vn -0.742935 0.427303 0.515077
vn -0.080297 0.373863 0.923915
vn 0.331929 0.412623 0.848196
vn 0.902246 0.398645 0.164073
vn 0.917720 0.395074 0.040621
# 68 uv coords
vt 0.592846 0.885556
vt 0.654374 0.856279
vt 0.715405 0.709075
vt 0.721332 0.614302
vt 0.632483 0.525019
vt 0.312661 0.656835
vt 0.343506 0.811199
vt 0.407473 0.855688
vt 0.493785 0.864792
vt 0.784468 0.218871
vt 0.569639 0.833546
vt 0.617382 0.812672
vt 0.658927 0.700426
vt 0.668220 0.628733
vt 0.593404 0.568024
vt 0.371266 0.656870
vt 0.386087 0.777083
vt 0.438250 0.809742
vt 0.500985 0.805243
vt 0.079979 0.167159
vt 0.120169 0.097374
vt 0.293159 0.070016
vt 0.399269 0.091674
vt 0.436708 0.223551
vt 0.452625 0.372231
vt 0.348264 0.415157
vt 0.181067 0.440689
vt 0.121141 0.373071
vt 0.118082 0.274298
vt 0.262294 0.251650
vt 0.365345 0.472240
vt 0.163006 0.490968
vt 0.496050 0.397636
vt 0.070518 0.397226
vt 0.495716 0.212356
vt 0.056296 0.285880
vt 0.435024 0.053057
vt 0.025963 0.159126
vt 0.295280 0.011137
vt 0.089069 0.052664
vt 0.979549 0.343956
vt 0.869144 0.384973
vt 0.697954 0.412122
vt 0.960070 0.191049
vt 0.637092 0.339414
vt 0.924909 0.054391
vt 0.643057 0.241270
vt 0.813657 0.034729
vt 0.595157 0.137889
vt 0.636361 0.062785
vt 1.185854 0.436670
vt 0.514729 0.687558
vt 1.171262 0.534269
vt 0.210975 0.680183
vt 0.194184 0.558896
vt 0.266106 0.865338
vt 0.361315 0.943166
vt 0.478874 0.971861
vt 0.618294 0.978429
vt 0.723250 0.921522
vt 0.814131 0.730157
vt 0.810492 0.586435
vt 1.050954 0.279546
vt 0.711310 0.456144
vt 0.952472 0.280806
vt 0.592435 0.348508
vt 0.437854 0.537393
vt 0.411520 0.488200
# 60 polygons
usemtl initialShadingGroup
s 1
g plat_01
f 1/1/1 2/2/2 12/60/3 11/59/4
f 2/2/2 3/3/5 13/61/6 12/60/3
f 3/3/5 4/4/7 14/62/8 13/61/6
f 4/4/7 5/5/9 15/64/10 14/62/8
f 5/5/9 6/68/11 16/66/12 15/64/10
f 6/68/11 7/6/13 17/54/14 16/55/12
f 7/6/13 8/7/15 18/56/16 17/54/14
f 8/7/15 9/8/17 19/57/18 18/56/16
f 9/8/17 10/9/19 20/58/20 19/57/18
f 10/9/19 1/1/1 11/59/4 20/58/20
f 11/49/4 12/50/3 21/10/21
f 12/50/3 13/48/6 21/10/21
f 13/48/6 14/46/8 21/10/21
f 14/46/8 15/44/10 21/10/21
f 15/44/10 16/41/12 21/10/21
f 16/41/12 17/42/14 21/10/21
f 17/42/14 18/43/16 21/10/21
f 18/43/16 19/45/18 21/10/21
f 19/45/18 20/47/20 21/10/21
f 20/47/20 11/49/4 21/10/21
f 2/2/2 1/1/1 22/11/22 23/12/23
f 3/3/5 2/2/2 23/12/23 24/13/24
f 4/4/7 3/3/5 24/13/24 25/14/25
f 5/5/9 4/4/7 25/14/25 26/15/26
f 6/68/11 5/5/9 26/15/26 27/67/27
f 7/6/13 6/68/11 27/67/27 28/16/28
f 8/7/15 7/6/13 28/16/28 29/17/29
f 9/8/17 8/7/15 29/17/29 30/18/30
f 10/9/19 9/8/17 30/18/30 31/19/31
f 1/1/1 10/9/19 31/19/31 22/11/22
f 23/12/23 22/11/22 32/52/32
f 24/13/24 23/12/23 32/52/32
f 25/14/25 24/13/24 32/52/32
f 26/15/26 25/14/25 32/52/32
f 27/67/27 26/15/26 32/52/32
f 28/16/28 27/67/27 32/52/32
f 29/17/29 28/16/28 32/52/32
f 30/18/30 29/17/29 32/52/32
f 31/19/31 30/18/30 32/52/32
f 22/11/22 31/19/31 32/52/32
s 2
f 33/20/33 34/21/34 43/30/35
f 34/21/34 35/22/36 43/30/35
f 35/22/36 36/23/37 43/30/35
f 36/23/37 37/24/38 43/30/35
f 37/24/38 38/25/39 43/30/35
f 38/25/39 39/26/40 43/30/35
f 39/26/40 40/27/41 43/30/35
f 40/27/41 41/28/42 43/30/35
f 41/28/42 42/29/43 43/30/35
f 42/29/43 33/20/33 43/30/35
f 34/21/34 33/20/33 44/38/44 45/40/45
f 35/22/36 34/21/34 45/40/45 46/39/46
f 36/23/37 35/22/36 46/39/46 47/37/47
f 37/24/38 36/23/37 47/37/47 48/35/48
f 38/25/39 37/24/38 48/35/48 49/33/49
f 39/26/40 38/25/39 49/33/49 50/31/50
f 40/27/41 39/26/40 50/31/50 51/32/51
f 41/28/42 40/27/41 51/32/51 52/34/52
f 42/29/43 41/28/42 52/34/52 53/36/53
f 33/20/33 42/29/43 53/36/53 44/38/44
