# author: headus 3D tools
#  using: ply2obj v1.8
#   from: uvlayout v2.09.03
mtllib platform_02.mtl
# 94 vertices
v 0.1560000 0.5210000 0.7880000
v -1.4202742 0.5210000 0.6284021
v -1.4892583 0.5210000 1.3539690
v -1.4649611 0.5210000 2.1497600
v -0.8686090 0.5210000 2.2697272
v 0.0265310 0.5210000 2.2697272
v 0.2781520 0.5210000 1.8497151
v 0.1683858 0.5210000 1.3539690
v 0.1910480 1.0755120 0.7661840
v 0.0830610 1.0755120 0.4029130
v -0.8797330 1.0755120 0.4029130
v -1.4526631 1.0755120 0.6004341
v -1.5243062 1.0755120 1.3539690
v -1.4990731 1.0755120 2.1804352
v -0.8797330 1.0755120 2.3050261
v 0.0499111 1.0755120 2.3050261
v 0.3112310 1.0755120 1.8688241
v 0.1972340 1.0755120 1.3539690
v 0.1096960 0.3211270 0.9246479
v -0.0957010 0.3211270 0.6593121
v -0.7989310 0.3211270 0.6593121
v -1.2174031 0.3211270 0.8035830
v -1.2697311 0.3211270 1.3539690
v -1.2513011 0.3211270 1.9576240
v -0.7704990 0.3211270 2.0236052
v -0.1199140 0.3211270 2.0486260
v 0.0444160 0.3211270 1.7071670
v 0.4062750 0.5210000 0.3244220
v 0.2922219 1.0755120 -0.1181610
v 0.4463729 1.0755120 0.3146000
v -0.6227329 1.0755120 -0.4178778
v -1.2066111 0.5210000 -0.3718623
v -1.2286841 1.0755120 -0.4085229
v 0.1551181 0.3211270 0.3859420
v 0.0425251 0.3211270 0.0698500
v -0.6257629 0.3211270 -0.1490650
v -1.0683530 0.3211270 -0.1422320
v 0.7358920 0.5210000 -0.0013610
v 0.9299700 1.0755120 -0.4151511
v 0.7730560 1.0755120 0.0166161
v 0.4157259 1.0755120 -1.2291070
v -0.0636179 0.5210000 -1.5656494
v -0.0572720 1.0755120 -1.6079692
v 0.5031160 0.3211270 -0.1139660
v 0.6177270 0.3211270 -0.4293312
v 0.2421199 0.3211270 -1.0238492
v -0.1033600 0.3211270 -1.3005720
v 1.5280319 0.5486680 -0.2576161
v 1.6569000 0.5486680 -0.4663440
v 1.6852700 1.0166560 -0.4436700
v 1.5444701 1.0166560 -0.2268960
v 1.7080653 0.5486680 -1.2470732
v 1.7384070 1.0166560 -1.2544928
v 1.2532679 0.5486680 -1.5212112
v 1.2786101 1.0166560 -1.5469440
v 1.2444170 0.3799821 -0.4500341
v 1.3827510 0.3799821 -0.7074761
v 1.4402540 0.3799821 -1.2005960
v 0.7299380 0.3799821 -1.3825052
v -0.1948160 1.0755120 1.3539690
v -1.0533633 1.0755120 1.3539690
v -0.6591520 0.3211270 1.5252330
v 0.2395820 1.1378560 0.7492421
v 0.4932849 1.1378560 0.2962500
v -1.4411682 1.1378560 0.5724060
v -1.5157102 1.1378560 1.3437769
v -1.5016023 1.1378560 2.1765132
v -0.8775631 1.1378560 2.3020502
v 0.0591350 1.1378560 2.3020491
v 0.3224370 1.1378560 1.8625381
v 0.2075750 1.1378560 1.3437769
v 0.8013070 1.1378560 0.0331630
v -1.2223003 1.1378560 -0.4453280
v 1.6994020 1.1082050 -0.4616610
v -0.0450349 1.1378560 -1.6479990
v 1.5650343 1.0785540 -0.2018480
v 1.7604420 1.0785540 -1.2844780
v 1.2971561 1.0785540 -1.5791480
v 0.2800190 0.7466750 0.7698241
v 0.5474890 0.7466750 0.2945461
v -1.6043510 0.7466750 1.3936079
v -1.5894782 0.7466750 2.2673131
v -0.9315742 0.7466750 2.3990260
v 0.0559551 0.7466750 2.3990250
v 0.3697000 0.7466750 1.9378917
v 0.2486049 0.7466750 1.3936079
v 0.8584210 0.7505479 0.0966380
v -1.5257630 0.7466750 0.5842881
v -1.2953041 0.7466760 -0.4837939
v -0.0595090 0.7470980 -1.7372530
v 1.6113021 0.6951190 -0.1750490
v 1.7646830 0.7210380 -0.5220851
v 1.8398150 0.6879359 -1.3518892
v 1.3504480 0.6882179 -1.6563572
# 94 normals
vn 0.441128 -0.351126 0.825856
vn 0.907526 -0.378838 0.181163
vn 0.458646 0.885979 0.068150
vn 0.404901 0.499115 0.766007
vn 0.863700 -0.378075 -0.332967
vn 0.499298 0.845724 -0.187969
vn 0.183208 -0.278246 -0.942837
vn 0.165476 0.572789 -0.802753
vn -0.941830 -0.298389 -0.154154
vn -0.956693 -0.289721 -0.027925
vn -0.722059 0.691418 -0.021150
vn -0.755478 0.642770 -0.126381
vn -0.787279 -0.297839 0.539706
vn -0.638284 0.636086 0.433529
vn -0.078252 -0.301349 0.950284
vn -0.045016 0.830953 0.554386
vn 0.332723 -0.295184 0.895593
vn 0.221602 0.766923 0.602149
vn 0.949429 -0.263657 0.169902
vn 0.787707 0.602759 0.126717
vn 0.983916 -0.162394 -0.074132
vn 0.766648 0.636239 -0.086126
vn 0.961362 -0.177715 0.209913
vn 0.777818 0.598883 0.190289
vn 0.000000 1.000000 0.000000
vn 0.218061 -0.927303 0.304218
vn 0.195782 -0.980407 0.019929
vn 0.210493 -0.964964 -0.156015
vn 0.044894 -0.913691 -0.403864
vn -0.282000 -0.958616 -0.038546
vn -0.276964 -0.960813 -0.008301
vn -0.277941 -0.940243 0.196271
vn -0.020112 -0.957212 0.288409
vn 0.116493 -0.940640 0.318684
vn 0.172374 -0.984405 0.032686
vn 0.638131 -0.767106 0.065556
vn 0.000000 1.000000 0.000000
vn 0.661875 0.553317 0.505616
vn 0.000000 1.000000 0.000000
vn 0.779894 -0.285998 0.556614
vn 0.000000 1.000000 0.000000
vn 0.000000 1.000000 0.000000
vn -0.720839 0.520845 -0.457059
vn -0.809894 -0.287463 -0.511231
vn 0.359366 -0.918910 0.162089
vn 0.000000 -1.000000 0.000000
vn 0.000000 -1.000000 0.000000
vn 0.000000 -1.000000 0.000000
vn 0.000000 -1.000000 0.000000
vn -0.349051 -0.921901 -0.167582
vn 0.386895 0.562809 0.730330
vn 0.037783 0.999268 -0.003021
vn 0.449216 -0.398370 0.799609
vn 0.023103 0.999542 -0.019197
vn -0.361350 0.521760 -0.772691
vn -0.415766 -0.265336 -0.869835
vn 0.215742 -0.943386 0.251663
vn 0.036349 -0.999329 0.000000
vn 0.022676 -0.999359 -0.027559
vn -0.231398 -0.914057 -0.332998
vn 0.000000 1.000000 0.000000
vn 0.000000 -1.000000 0.000000
vn 0.857108 0.512086 -0.054904
vn 0.138711 0.989562 0.038271
vn 0.094183 0.966917 0.236739
vn 0.855521 0.504944 0.113746
vn -0.292163 0.955106 -0.048648
vn 0.097204 0.992187 0.077855
vn 0.047214 0.995788 0.078160
vn -0.274400 0.944851 -0.178630
vn 0.188335 0.981719 0.026399
vn -0.132088 0.940121 -0.313984
vn 0.492431 0.373039 0.786272
vn 0.463102 0.868614 -0.175822
vn 0.177196 0.510499 -0.841360
vn -0.252335 0.967497 -0.010651
vn -0.017060 0.972655 0.231551
vn -0.628914 0.660807 0.409388
vn 0.959196 0.114875 0.258011
vn 0.758683 0.133156 0.637521
vn -0.975676 0.216719 -0.032076
vn -0.785052 0.301563 0.541018
vn -0.083959 0.250961 0.964323
vn 0.297046 0.240554 0.923976
vn 0.968504 0.134041 0.209730
vn 0.991973 0.092016 -0.086401
vn 0.409052 0.152506 0.899622
vn -0.828847 0.201489 -0.521760
vn -0.966368 0.203931 -0.156534
vn -0.377861 0.219069 -0.899561
vn 0.533449 0.149179 0.832448
vn 0.973509 0.157755 0.164927
vn 0.901575 0.232039 -0.365043
vn 0.211317 0.225874 -0.950955
# 112 uv coords
vt 0.646296 0.524625
vt 0.803236 0.723534
vt 0.873545 0.662870
vt 0.931301 0.584305
vt 0.899698 0.520396
vt 0.821873 0.443572
vt 0.765325 0.446665
vt 0.710692 0.481700
vt 0.203815 0.691461
vt 0.085348 0.647434
vt 0.668810 0.585994
vt 0.737028 0.653407
vt 0.792668 0.679805
vt 0.844470 0.638177
vt 0.893840 0.583154
vt 0.861366 0.536022
vt 0.579189 0.554477
vt 0.204054 0.766334
vt 0.078205 0.758985
vt 0.692213 0.790560
vt 0.599771 0.628499
vt 0.650753 0.710331
vt 0.696387 0.748753
vt 0.513705 0.566681
vt 0.265585 0.835808
vt 0.162652 0.908473
vt 0.485532 0.816058
vt 0.497592 0.637253
vt 0.495211 0.731667
vt 0.510972 0.786243
vt 0.357600 0.582661
vt 0.319057 0.671750
vt 0.347774 0.726260
vt 0.389727 0.622378
vt 0.352842 0.675688
vt 0.417742 0.741089
vt 0.210913 0.561092
vt 0.105177 0.523247
vt 0.805252 0.567169
vt 0.628953 0.280235
vt 0.557235 0.298100
vt 0.646174 0.056857
vt 0.743497 0.065123
vt 0.844313 0.090949
vt 0.851729 0.166421
vt 0.832242 0.277470
vt 0.776809 0.298765
vt 0.710247 0.285765
vt 0.505940 0.326410
vt 0.515159 0.054768
vt 0.403707 0.410956
vt 0.327180 0.151747
vt 0.435055 0.404782
vt 0.306689 0.384917
vt 0.289725 0.319241
vt 0.904474 0.161064
vt 0.872467 0.301997
vt 0.881498 0.060911
vt 0.795174 0.344635
vt 0.763127 0.015828
vt 0.714916 0.338420
vt 0.635291 0.332331
vt 0.571173 0.348261
vt 0.651802 0.003668
vt 0.532717 0.371919
vt 0.501159 0.006292
vt 0.452712 0.449314
vt 0.287287 0.127476
vt 0.389422 0.457543
vt 0.270326 0.414681
vt 0.239721 0.325612
vt 0.244484 0.721503
vt 0.269238 0.775620
vt 0.354900 0.879103
vt 0.320093 0.979447
vt 0.086560 0.930591
vt 0.004910 0.728865
vt 0.234072 0.652072
vt 0.023957 0.597248
vt 0.349265 0.845795
vt 0.250035 0.991405
vt 0.259361 0.577993
vt 0.047128 0.502716
vt 0.166781 0.413340
vt 0.281197 0.453468
vt 0.295023 0.518469
vt 0.085015 0.402144
vt 0.808781 0.477354
vt 0.762812 0.486007
vt 0.674571 0.540386
vt 0.613758 0.583212
vt 0.532803 0.607120
vt 0.375146 0.557553
vt 0.421169 0.597595
vt 0.402363 0.556922
vt 0.299395 0.562513
vt 0.315242 0.530246
vt 0.402585 0.497894
vt 0.504956 0.493791
vt 0.554800 0.484942
vt 0.265632 0.677638
vt 0.612413 0.458882
vt 0.467410 0.878806
vt 0.303624 0.763503
vt 0.680585 0.415376
vt 0.709772 0.858003
vt 0.757320 0.379256
vt 0.843697 0.784139
vt 0.848151 0.384554
vt 0.958428 0.483153
vt 0.930020 0.706540
vt 0.992410 0.588784
# 86 polygons
usemtl initialShadingGroup
s 1
g plat_02
f 48/93/1 49/31/2 50/96/3 51/97/4
f 49/31/2 52/32/5 53/101/6 50/96/3
f 52/32/5 54/33/7 55/104/8 53/101/6
f 2/2/9 3/3/10 13/111/11 12/108/12
f 3/3/10 4/4/13 14/112/14 13/111/11
f 4/4/13 5/5/15 15/110/16 14/112/14
f 5/5/15 6/6/17 16/109/18 15/110/16
f 6/6/17 7/7/19 17/107/20 16/109/18
f 7/7/19 8/8/21 18/105/22 17/107/20
f 8/8/21 1/1/23 9/102/24 18/105/22
f 18/82/22 60/37/25 16/85/18 17/86/20
f 49/31/2 48/93/1 56/94/26 57/34/27
f 52/32/5 49/31/2 57/34/27 58/35/28
f 54/33/7 52/32/5 58/35/28 59/36/29
f 3/3/10 2/2/9 22/13/30 23/14/31
f 4/4/13 3/3/10 23/14/31 24/15/32
f 5/5/15 4/4/13 24/15/32 25/16/33
f 6/6/17 5/5/15 25/16/33 26/88/34
f 7/7/19 6/6/17 26/88/34 27/89/35
f 8/8/21 7/7/19 27/89/35
f 1/1/23 8/8/21 27/89/35 19/90/36
f 10/9/37 9/78/24 30/72/38 29/18/39
f 9/102/24 1/1/23 28/17/40 30/100/38
f 11/10/41 10/9/37 29/18/39 31/19/42
f 2/2/9 12/108/12 33/106/43 32/20/44
f 12/79/12 11/10/41 31/19/42 33/77/43
f 1/1/23 19/90/36 34/91/45 28/17/40
f 19/90/36 20/11/46 35/21/47 34/91/45
f 20/11/46 21/12/48 36/22/49 35/21/47
f 21/12/48 22/13/30 37/23/50 36/22/49
f 22/13/30 2/2/9 32/20/44 37/23/50
f 29/18/39 30/72/38 40/73/51 39/25/52
f 30/100/38 28/17/40 38/24/53 40/99/51
f 31/19/42 29/18/39 39/25/52 41/26/54
f 32/20/44 33/106/43 43/103/55 42/27/56
f 33/77/43 31/19/42 41/26/54 43/76/55
f 28/17/40 34/91/45 44/92/57 38/24/53
f 34/91/45 35/21/47 45/28/58 44/92/57
f 35/21/47 36/22/49 46/29/59 45/28/58
f 36/22/49 37/23/50 47/30/60 46/29/59
f 37/23/50 32/20/44 42/27/56 47/30/60
f 39/25/52 40/73/51 51/80/4 50/74/3
f 40/99/51 38/24/53 48/95/1 51/98/4
f 41/26/54 39/25/52 50/74/3 53/75/6
f 42/27/56 43/103/55 55/104/8 54/33/7
f 43/76/55 41/26/54 53/75/6 55/81/8
f 38/24/53 44/92/57 56/94/26 48/95/1
f 44/92/57 45/28/58 57/34/27 56/94/26
f 45/28/58 46/29/59 58/35/28 57/34/27
f 46/29/59 47/30/60 59/36/29 58/35/28
f 47/30/60 42/27/56 54/33/7 59/36/29
f 18/82/22 9/78/24 10/9/37 60/37/25
f 60/37/25 10/9/37 11/10/41 61/38/61
f 16/85/18 60/37/25 61/38/61 15/84/16
f 61/38/61 11/10/41 12/79/12 13/83/11
f 15/84/16 61/38/61 13/83/11 14/87/14
f 24/15/32 23/14/31 62/39/62 25/16/33
f 25/16/33 62/39/62 27/89/35 26/88/34
f 62/39/62 23/14/31 22/13/30 21/12/48
f 27/89/35 62/39/62 21/12/48 20/11/46
f 20/11/46 19/90/36 27/89/35
s 3
f 71/48/63 63/40/64 69/46/65 70/47/66
f 65/42/67 64/41/68 72/49/69 73/50/70
f 73/50/70 72/49/69 74/51/71 75/52/72
f 74/51/71 72/49/69 76/53/73
f 75/52/72 74/51/71 77/54/74
f 75/52/72 77/54/74 78/55/75
f 63/40/64 64/41/68 65/42/67 66/43/76
f 69/46/65 63/40/64 66/43/76 68/45/77
f 68/45/77 66/43/76 67/44/78
f 64/41/68 63/40/64 79/62/79 80/63/80
f 67/44/78 66/43/76 81/60/81 82/58/82
f 68/45/77 67/44/78 82/58/82 83/56/83
f 69/46/65 68/45/77 83/56/83 84/57/84
f 70/47/66 69/46/65 84/57/84 85/59/85
f 71/48/63 70/47/66 85/59/85 86/61/86
f 63/40/64 71/48/63 86/61/86 79/62/79
f 72/49/69 64/41/68 80/63/80 87/65/87
f 65/42/67 73/50/70 89/66/88 88/64/89
f 73/50/70 75/52/72 90/68/90 89/66/88
f 76/53/73 72/49/69 87/65/87 91/67/91
f 74/51/71 76/53/73 91/67/91 92/69/92
f 77/54/74 74/51/71 92/69/92 93/70/93
f 75/52/72 78/55/75 94/71/94 90/68/90
f 78/55/75 77/54/74 93/70/93 94/71/94
f 66/43/76 65/42/67 88/64/89 81/60/81
