# author: headus 3D tools
#  using: ply2obj v1.8
#   from: uvlayout v2.09.03
mtllib platform_03.mtl
# 53 vertices
v 0.9280000 1.1320000 -0.5880000
v 0.9975650 1.1320000 -1.3962860
v 0.0661840 1.1320000 -0.9198590
v -0.5067460 1.1320000 -0.7223369
v -1.3794140 1.1320000 -0.0002150
v -0.7468680 1.1320000 0.7058347
v -0.1275281 1.1320000 0.8304260
v 0.8597061 1.1320000 1.4743870
v 1.0582009 1.1320000 0.5041689
v 0.9860869 1.1320000 -0.0002150
v -0.0069871 1.1320000 -0.0002150
v 1.0487029 0.8397430 -0.6113309
v 1.0520240 0.8397430 -1.5073100
v 0.0437380 0.8397430 -1.0538340
v -0.5977510 0.8397430 -0.7939630
v -1.5168090 0.8397430 -0.0046320
v -0.8292862 0.8397430 0.7754520
v -0.1411101 0.8397430 0.9668099
v 0.9187842 0.8397430 1.5786480
v 1.1845179 0.8397430 0.5246741
v 1.1195720 0.8397430 0.0037230
v 0.8929520 0.5211980 -0.5661840
v 0.9729549 0.5211980 -1.3609859
v 0.0773091 0.5211980 -0.8845589
v -0.4743572 0.5211980 -0.6943690
v -1.3443660 0.5211980 -0.0002150
v -0.7127560 0.5211980 0.6751600
v -0.1164031 0.5211980 0.7951271
v 0.8363261 0.5211980 1.4390882
v 1.0251210 0.5211980 0.4850598
v 0.9572389 0.5211980 -0.0002150
v 0.9280000 1.0757100 -0.5880000
v 0.9975650 1.0757100 -1.3962860
v 0.0661840 1.0757100 -0.9198590
v -0.5067460 1.0757100 -0.7223369
v -1.3794140 1.0757100 -0.0002150
v -0.7468680 1.0757100 0.7058347
v -0.1275281 1.0757100 0.8304260
v 0.8597061 1.0757100 1.4743870
v 1.0582009 1.0757100 0.5041689
v 0.9860869 1.0757100 -0.0002150
v -0.0069871 1.0757100 -0.0002150
v 0.6734250 0.3213250 -0.4295370
v 0.8188031 0.3213250 -1.1398859
v 0.1469861 0.3213250 -0.6634590
v -0.2714850 0.3213250 -0.5191890
v -1.1248392 0.3213250 -0.0002150
v -0.4990959 0.3213250 0.4830239
v -0.0467260 0.3213250 0.5740260
v 0.6898810 0.3213250 1.2179880
v 0.8179250 0.3213250 0.3653671
v 0.7765451 0.3213250 -0.0002150
v 0.0015460 0.1305140 -0.0002150
# 53 normals
vn 0.433376 0.901086 -0.009766
vn 0.244949 0.795123 -0.554660
vn 0.000000 1.000000 0.000000
vn -0.186108 0.885125 -0.426326
vn -0.277483 0.855582 -0.436733
vn -0.573277 0.813892 -0.094275
vn -0.279863 0.859916 0.426723
vn -0.185589 0.893426 0.408838
vn 0.157633 0.817768 0.553440
vn 0.420710 0.906153 0.042941
vn 0.425746 0.903406 -0.050601
vn 0.943966 0.329366 -0.015962
vn 0.299029 0.525880 -0.796161
vn -0.379784 0.346670 -0.857566
vn -0.523744 0.347616 -0.777605
vn -0.883141 0.450375 -0.130410
vn -0.544131 0.356101 0.759659
vn -0.411280 0.319203 0.853659
vn 0.279222 0.494018 0.823353
vn 0.926662 0.361198 0.103247
vn 0.910212 0.399286 -0.109107
vn 0.964597 -0.262772 0.020845
vn 0.348624 -0.304370 -0.886437
vn 0.334493 0.382866 -0.861076
vn 0.754654 0.655954 0.009156
vn -0.408381 -0.270097 -0.871818
vn -0.328115 0.609138 -0.721968
vn -0.505555 -0.283800 -0.814716
vn -0.445309 0.553379 -0.703717
vn -0.936092 -0.314320 -0.157358
vn -0.868980 0.472533 -0.146585
vn -0.522035 -0.293231 0.800800
vn -0.449216 0.581823 0.677867
vn -0.433162 -0.269670 0.859916
vn -0.343283 0.619545 0.705762
vn 0.271257 -0.303485 0.913386
vn 0.240219 0.463957 0.852591
vn 0.955472 -0.282366 0.084508
vn 0.725142 0.685558 0.063755
vn 0.955655 -0.267350 -0.122841
vn 0.753922 0.650400 -0.092260
vn 0.000000 1.000000 0.000000
vn 0.474608 -0.880120 0.010285
vn 0.159342 -0.910578 -0.381096
vn -0.260361 -0.837881 -0.479613
vn -0.243423 -0.856559 -0.454953
vn -0.432613 -0.897272 -0.087164
vn -0.231887 -0.875206 0.424403
vn -0.267686 -0.846060 0.460783
vn 0.091680 -0.907007 0.410822
vn 0.432613 -0.901056 0.026766
vn 0.474852 -0.876824 -0.074895
vn -0.032442 -0.999390 -0.011872
# 64 uv coords
vt 0.084649 0.207617
vt 0.071691 0.073288
vt 0.231733 0.142602
vt 0.329242 0.174301
vt 0.478393 0.288126
vt 0.382087 0.409444
vt 0.280358 0.441950
vt 0.117245 0.553741
vt 0.074748 0.396102
vt 0.079327 0.309612
vt 0.249552 0.299811
vt 0.471718 0.735936
vt 0.412018 0.609309
vt 0.513388 0.703431
vt 0.537049 0.810676
vt 0.498707 0.549970
vt 0.533755 0.594859
vt 0.631724 0.694596
vt 0.557369 0.761980
vt 0.593953 0.517859
vt 0.601543 0.563145
vt 0.774908 0.790294
vt 0.675044 0.500208
vt 0.659723 0.546753
vt 0.732362 0.757415
vt 0.790612 0.691164
vt 0.735152 0.683866
vt 0.805509 0.199620
vt 0.049289 0.038476
vt 0.244590 0.088170
vt 0.030166 0.201625
vt 0.362167 0.133266
vt 0.023763 0.311351
vt 0.524884 0.283225
vt 0.022891 0.407983
vt 0.418176 0.444820
vt 0.101025 0.592522
vt 0.298668 0.495835
vt 0.672860 0.115252
vt 0.758503 0.057546
vt 0.946265 0.012854
vt 0.512502 0.193134
vt 0.977473 0.171331
vt 0.629633 0.266571
vt 0.930919 0.268380
vt 0.703671 0.334765
vt 0.917362 0.468768
vt 0.764938 0.396308
vt 0.679259 0.875199
vt 0.802640 0.536697
vt 0.831297 0.507879
vt 0.688711 0.908563
vt 0.402362 0.801039
vt 0.286914 0.656226
vt 0.363964 0.594674
vt 0.488615 0.888281
vt 0.702112 0.975838
vt 0.333829 0.501964
vt 0.469350 0.458929
vt 0.850432 0.836866
vt 0.577101 0.424891
vt 0.886222 0.706145
vt 0.683908 0.409408
vt 0.882446 0.468455
# 60 polygons
usemtl initialShadingGroup
s 1
g plat_03
f 1/1/1 2/2/2 11/11/3
f 2/2/2 3/3/4 11/11/3
f 3/3/4 4/4/5 11/11/3
f 4/4/5 5/5/6 11/11/3
f 5/5/6 6/6/7 11/11/3
f 6/6/7 7/7/8 11/11/3
f 7/7/8 8/8/9 11/11/3
f 8/8/9 9/9/10 11/11/3
f 9/9/10 10/10/11 11/11/3
f 10/10/11 1/1/1 11/11/3
f 2/2/2 1/1/1 12/31/12 13/29/13
f 3/3/4 2/2/2 13/29/13 14/30/14
f 4/4/5 3/3/4 14/30/14 15/32/15
f 5/5/6 4/4/5 15/32/15 16/34/16
f 6/6/7 5/5/6 16/34/16 17/36/17
f 7/7/8 6/6/7 17/36/17 18/38/18
f 8/8/9 7/7/8 18/38/18 19/37/19
f 9/9/10 8/8/9 19/37/19 20/35/20
f 10/10/11 9/9/10 20/35/20 21/33/21
f 1/1/1 10/10/11 21/33/21 12/31/12
s 2
f 22/16/22 23/55/23 33/58/24 32/59/25
f 23/55/23 24/12/26 34/53/27 33/54/24
f 24/12/26 25/15/28 35/56/29 34/53/27
f 25/15/28 26/52/30 36/57/31 35/56/29
f 26/52/30 27/22/32 37/60/33 36/57/31
f 27/22/32 28/26/34 38/62/35 37/60/33
f 28/26/34 29/51/36 39/64/37 38/62/35
f 29/51/36 30/23/38 40/63/39 39/64/37
f 30/23/38 31/20/40 41/61/41 40/63/39
f 31/20/40 22/16/22 32/59/25 41/61/41
f 32/44/25 33/42/24 42/28/42
f 33/42/24 34/39/27 42/28/42
f 34/39/27 35/40/29 42/28/42
f 35/40/29 36/41/31 42/28/42
f 36/41/31 37/43/33 42/28/42
f 37/43/33 38/45/35 42/28/42
f 38/45/35 39/47/37 42/28/42
f 39/47/37 40/48/39 42/28/42
f 40/48/39 41/46/41 42/28/42
f 41/46/41 32/44/25 42/28/42
f 23/55/23 22/16/22 43/17/43 44/13/44
f 24/12/26 23/55/23 44/13/44 45/14/45
f 25/15/28 24/12/26 45/14/45 46/19/46
f 26/52/30 25/15/28 46/19/46 47/49/47
f 27/22/32 26/52/30 47/49/47 48/25/48
f 28/26/34 27/22/32 48/25/48 49/27/49
f 29/51/36 28/26/34 49/27/49 50/50/50
f 30/23/38 29/51/36 50/50/50 51/24/51
f 31/20/40 30/23/38 51/24/51 52/21/52
f 22/16/22 31/20/40 52/21/52 43/17/43
f 44/13/44 43/17/43 53/18/53
f 45/14/45 44/13/44 53/18/53
f 46/19/46 45/14/45 53/18/53
f 47/49/47 46/19/46 53/18/53
f 48/25/48 47/49/47 53/18/53
f 49/27/49 48/25/48 53/18/53
f 50/50/50 49/27/49 53/18/53
f 51/24/51 50/50/50 53/18/53
f 52/21/52 51/24/51 53/18/53
f 43/17/43 52/21/52 53/18/53
