# This file uses centimeters as units for non-parametric coordinates.

mtllib rockWall_01.mtl
g default
v 7.432290 3.029353 -3.166402
v 8.243189 3.029352 -0.062173
v 8.386225 3.029352 -7.693708
v 11.127882 3.029352 -15.796781
v 4.726341 3.029352 -22.392365
v 2.294290 3.029353 -21.548120
v 9.596558 3.029352 -19.463898
v 6.903484 3.029352 -21.083246
v 0.779725 3.029352 -15.796781
v 0.042543 3.029353 -20.310293
v 7.660355 3.029352 2.230902
v 11.127882 3.029353 15.451222
v 2.978196 3.029353 15.451222
v 9.596558 3.029352 11.784097
v 4.726341 3.029353 8.855631
v 7.911916 3.029352 7.749821
v 7.011860 5.335144 -2.964578
v 7.638183 5.335144 0.015145
v 7.748661 5.335144 -7.310305
v 4.996397 5.335145 -4.843637
v 2.679605 5.335144 -0.091032
v 9.866263 5.335144 -15.088388
v 2.723999 5.335144 -8.617236
v 4.921837 5.335144 -21.419453
v 3.043367 5.335144 -20.609079
v 8.683499 5.335144 -18.608438
v 6.603420 5.335144 -20.162855
v 1.873546 5.335144 -15.088388
v 1.304161 5.335144 -19.420891
v 7.188012 5.335144 2.216261
v 9.866263 5.335144 14.906362
v 4.021275 5.335144 4.179556
v 3.180610 5.335145 14.906362
v 8.683499 5.335144 11.386315
v 4.921837 5.335144 8.575306
v 7.382313 5.335144 7.513835
v 6.763667 10.745976 -2.543228
v 7.281030 10.745976 0.176589
v 5.190817 10.745976 0.079661
v 7.372288 10.745976 -6.509885
v 5.098833 10.745977 -4.258376
v 3.185091 10.745976 0.079661
v 9.121494 10.745976 -13.609484
v 6.358539 10.745976 -9.566756
v 7.069673 10.745976 -13.609484
v 5.017852 10.745976 -13.609484
v 3.221761 10.745976 -7.702813
v 5.037244 10.745976 -19.388302
v 3.485569 10.745976 -18.648607
v 8.144493 10.745976 -16.822493
v 6.426284 10.745976 -18.241304
v 2.519261 10.745976 -13.609484
v 2.048931 10.745976 -17.564068
v 5.871928 10.745976 3.082223
v 6.909175 10.745976 2.185698
v 9.121494 10.745976 13.768849
v 6.358539 10.745976 17.811590
v 7.069673 10.745976 13.768849
v 4.293352 10.745976 3.977723
v 3.300100 10.745976 13.768849
v 8.144493 10.745976 10.555849
v 6.426284 10.745976 9.137041
v 5.037244 10.745976 7.990037
v 7.069674 10.745976 7.021166
v 0.758606 3.505883 -0.740309
v 1.979520 3.486791 -4.468229
v 0.809918 3.461008 -7.829642
v -0.105205 3.514207 -13.435875
v 2.242039 3.386461 3.089667
v 3.239122 3.328649 6.804751
v 1.477566 5.375602 -0.676149
v 3.532545 5.438887 -4.548480
v 1.511761 5.400017 -7.479311
v 0.731879 5.370106 -12.849588
v 2.599008 5.265582 3.001463
v 3.366635 5.227804 6.563785
v 4.814780 3.029353 25.443333
v 5.486304 3.029353 25.645597
v 4.990290 5.335145 24.512899
v 5.456082 5.335145 24.739143
v 5.093681 10.745977 22.525091
v 5.521535 10.745977 22.701353
v 6.173074 10.745976 20.490141
v 7.992225 3.029352 23.838430
v 8.550135 3.029352 23.069853
v 7.384618 5.335144 23.010719
v 7.881461 5.335144 22.196667
v 7.027712 10.745976 21.209717
v 7.488302 10.745976 20.397589
v 4.628721 11.989205 4.110758
v 5.192895 11.989205 7.642254
v 6.734305 11.989205 6.789483
v 5.825925 11.989205 3.322571
v 6.612581 11.989205 2.533477
v 7.058732 12.623218 -6.322075
v 6.542069 12.623218 -2.954744
v 5.128778 12.623219 -4.410749
v 6.198152 12.623218 -8.917064
v 5.060033 12.623218 -12.348970
v 3.535318 12.623218 -7.334755
v 5.243303 12.127935 13.451366
v 7.069673 12.127935 13.451366
v 8.026393 12.127935 10.591410
v 6.496978 12.127935 9.328492
v 8.896042 12.127935 13.451366
v 5.260564 12.127935 8.307520
vt 0.657543 0.804329
vt 0.611486 0.804329
vt 0.471466 0.804329
vt 0.591758 1.000000
vt 0.637753 1.000000
vt 0.465943 1.000000
vt 0.463278 0.804329
vt 0.292911 0.804329
vt 0.821386 0.804329
vt 0.575420 0.804329
vt 0.665667 0.804329
vt 0.561142 1.000000
vt 0.638727 0.804329
vt 0.459824 1.000000
vt 0.324089 1.000000
vt 0.456068 0.804329
vt 0.457795 0.804329
vt 0.319660 0.804329
vt 0.734411 0.804329
vt 0.581451 0.804329
vt 0.233637 0.804329
vt 0.296176 0.804329
vt 0.191767 0.804329
vt 0.532101 0.804329
vt 0.624439 0.804329
vt 0.821386 0.804329
vt 0.575420 0.804329
vt 0.558909 0.804329
vt 0.675995 0.804329
vt 0.500908 0.804329
vt 0.634992 0.804329
vt 0.638727 0.804329
vt 0.391572 0.804329
vt 0.476139 0.948375
vt 0.638727 0.948375
vt 0.723897 0.948375
vt 0.587744 0.948375
vt 0.457795 0.804329
vt 0.581451 0.804329
vt 0.638727 0.804329
vt 0.421427 0.933915
vt 0.471651 0.933915
vt 0.608872 0.933915
vt 0.528005 0.933915
vt 0.598036 0.933915
vt 0.303150 0.804329
vt 0.801316 0.948375
vt 0.734411 0.804329
vt 0.477675 0.948375
vt 0.743197 -0.000000
vt 0.671008 0.000000
vt 0.633580 0.240340
vt 0.689337 0.240340
vt 0.755930 -0.000000
vt 0.699172 0.240340
vt 0.185588 0.047680
vt 0.076899 0.049670
vt 0.140903 0.244557
vt 0.323842 0.251154
vt 1.000000 -0.000000
vt 0.887687 0.240340
vt 0.081467 0.044993
vt 0.143947 0.247102
vt 0.430117 -0.000000
vt 0.213610 0.000000
vt 0.280294 0.240340
vt 0.447521 0.240340
vt 0.863677 -0.000000
vt 0.623933 -0.000000
vt 0.597220 0.240340
vt 0.782394 0.240340
vt -0.000000 0.050538
vt 0.074519 0.243984
vt 0.013153 0.000000
vt 0.078779 -0.000000
vt 0.176154 0.240340
vt 0.125466 0.240340
vt 0.691311 -0.000000
vt 0.649262 0.240340
vt 0.710995 0.240340
vt 0.770522 -0.000000
vt 1.000000 0.000000
vt 0.887687 0.240340
vt 0.495081 0.240340
vt 0.497771 0.000000
vt 0.720855 -0.000000
vt 0.666764 0.240340
vt 0.208958 0.037223
vt 0.240736 0.233089
vt 0.297721 0.031197
vt 0.309073 0.229152
vt 0.713706 -0.000000
vt 0.666559 0.240340
vt 0.274493 0.000000
vt 0.437990 0.000000
vt 0.453615 0.240340
vt 0.292512 0.240340
vt 0.863677 -0.000000
vt 0.782394 0.240340
vt 0.430117 0.000000
vt 0.447521 0.240340
vt 0.454159 0.240340
vt 0.247911 0.240340
vt 0.251863 0.240340
vt 0.367350 0.240340
vt 0.462819 0.804329
vn 0.000000 1.000000 0.000001
vn 0.000000 1.000000 0.000001
vn 0.000000 1.000000 0.000001
vn 0.000001 1.000000 0.000000
vn 0.000001 1.000000 0.000000
vn 0.000001 1.000000 0.000000
vn 0.000000 1.000000 0.000000
vn 0.000000 1.000000 0.000000
vn 0.000000 1.000000 0.000000
vn 0.000000 1.000000 0.000000
vn 0.000000 1.000000 0.000000
vn 0.000000 1.000000 0.000000
vn 0.000000 1.000000 0.000000
vn 0.000000 1.000000 0.000000
vn 0.000000 1.000000 0.000000
vn 0.000000 1.000000 0.000000
vn 0.000000 1.000000 0.000000
vn 0.000000 1.000000 0.000000
vn 0.000000 1.000000 0.000000
vn 0.000000 1.000000 0.000000
vn 0.000000 1.000000 0.000000
vn 0.000000 1.000000 0.000000
vn 0.000000 1.000000 0.000000
vn 0.000000 1.000000 0.000000
vn 0.000000 1.000000 0.000000
vn 0.000000 1.000000 0.000000
vn 0.000000 1.000000 0.000000
vn 0.000000 1.000000 0.000000
vn 0.000000 1.000000 0.000000
vn 0.000000 1.000000 0.000000
vn 0.000000 1.000000 0.000000
vn 0.000000 1.000000 0.000000
vn 0.000000 1.000000 0.000000
vn 0.000000 1.000000 0.000000
vn 0.000000 1.000000 0.000000
vn 0.000000 1.000000 0.000000
vn 0.000000 1.000000 0.000000
vn 0.000000 1.000000 0.000000
vn 0.000000 1.000000 0.000000
vn 0.000000 1.000000 0.000000
vn 0.000000 1.000000 0.000000
vn 0.000000 1.000000 0.000000
vn 0.000000 1.000000 0.000000
vn 0.000000 1.000000 0.000000
vn 0.000000 1.000000 0.000000
vn 0.000000 1.000000 0.000000
vn 0.000000 1.000000 0.000000
vn 0.000000 1.000000 0.000000
vn 0.000000 1.000000 0.000000
vn 0.000000 1.000000 0.000000
vn 0.000000 1.000000 0.000000
vn 0.000000 1.000000 0.000000
vn 0.000000 1.000000 0.000000
vn 0.000000 1.000000 0.000000
vn 0.000000 1.000000 0.000000
vn 0.000000 1.000000 0.000000
vn 0.000000 1.000000 0.000000
vn 0.000000 1.000000 0.000000
vn 0.000000 1.000000 0.000000
vn 0.000000 1.000000 0.000000
vn 0.000000 1.000000 0.000000
vn 0.000000 1.000000 -0.000001
vn 0.000000 1.000000 0.000000
vn 0.000000 1.000000 0.000000
vn 0.000000 1.000000 0.000000
vn 0.000000 1.000000 0.000000
vn 0.000000 1.000000 0.000000
vn 0.000000 1.000000 0.000000
vn 0.000000 1.000000 0.000000
vn 0.000000 1.000000 -0.000001
vn 0.000000 1.000000 -0.000001
vn 0.000000 1.000000 -0.000001
vn 0.000000 1.000000 0.000000
vn 0.000000 1.000000 0.000000
vn 0.000000 1.000000 0.000000
vn 0.000000 1.000000 0.000000
vn 0.000000 1.000000 0.000000
vn 0.000000 1.000000 0.000000
vn 0.000000 1.000000 0.000000
vn 0.000000 1.000000 0.000000
vn 0.000000 1.000000 0.000000
vn 0.000000 1.000000 0.000000
vn 0.000000 1.000000 0.000000
vn 0.000000 1.000000 0.000000
vn 0.000000 1.000000 0.000000
vn 0.000000 1.000000 0.000000
vn 0.000000 1.000000 0.000000
vn 0.000000 1.000000 0.000000
vn 0.000000 1.000000 0.000000
vn 0.000000 1.000000 0.000000
vn 0.000000 1.000000 0.000000
vn 0.000000 1.000000 0.000000
vn 0.000000 1.000000 0.000000
vn 0.000000 1.000000 0.000000
vn 0.000000 1.000000 0.000000
vn 0.000000 1.000000 0.000000
vn 0.000000 1.000000 0.000000
vn 0.000000 1.000000 0.000000
vn 0.000000 1.000000 0.000000
vn 0.000000 1.000000 0.000000
vn 0.870178 0.433125 -0.234931
vn 0.870178 0.433125 -0.234931
vn 0.966640 0.145364 -0.210893
vn 0.966640 0.145364 -0.210893
vn 0.898562 0.392488 0.196314
vn 0.867418 0.448735 0.214996
vn 0.977900 0.118661 0.172139
vn 0.977900 0.118661 0.172139
vn -0.769715 0.536783 -0.345549
vn -0.769715 0.536783 -0.345549
vn -0.807374 0.478512 -0.345215
vn -0.807374 0.478512 -0.345215
vn 0.793899 0.542343 0.274932
vn 0.793899 0.542343 0.274932
vn 0.946755 0.179593 0.267211
vn 0.946755 0.179593 0.267211
vn -0.816220 0.413385 0.403606
vn -0.816220 0.413385 0.403606
vn -0.803706 0.437769 0.403007
vn -0.803706 0.437769 0.403007
vn -0.256288 0.618739 -0.742616
vn -0.268870 0.637577 -0.721945
vn -0.357123 0.377884 -0.854205
vn -0.357123 0.377884 -0.854205
vn 0.397868 0.630956 -0.666029
vn 0.404610 0.611246 -0.680197
vn 0.546840 0.360669 -0.755568
vn 0.546840 0.360669 -0.755568
vn -0.788585 0.599326 0.137629
vn -0.788585 0.599326 0.137628
vn -0.928902 0.341111 0.144166
vn -0.928902 0.341111 0.144166
vn -0.744262 0.656454 0.123053
vn -0.744262 0.656454 0.123053
vn -0.958120 0.254971 0.130367
vn -0.958120 0.254971 0.130367
vn -0.347637 0.691983 -0.632699
vn -0.347637 0.691983 -0.632699
vn -0.502946 0.413377 -0.759055
vn -0.502946 0.413377 -0.759055
vn 0.644313 0.715483 -0.270081
vn 0.644313 0.715483 -0.270081
vn 0.885134 0.349341 -0.307407
vn 0.885134 0.349341 -0.307407
vn 0.429782 0.538062 -0.725104
vn 0.429782 0.538062 -0.725104
vn 0.557451 0.307135 -0.771308
vn 0.557451 0.307135 -0.771308
vn 0.875363 0.425200 0.230097
vn 0.875363 0.425200 0.230097
vn 0.968880 0.137717 0.205682
vn 0.968880 0.137717 0.205682
vn 0.913997 0.284404 0.289351
vn 0.688637 0.676565 0.260843
vn 0.694954 0.679273 0.235853
vn 0.915999 0.307136 0.258096
vn 0.582702 0.355424 0.730844
vn 0.582702 0.355424 0.730844
vn 0.630801 0.368647 0.682780
vn 0.685054 0.296277 0.665524
vn -0.813105 0.476814 0.333930
vn -0.813105 0.476814 0.333930
vn -0.908984 0.262955 0.323423
vn -0.908984 0.262955 0.323423
vn -0.890967 0.356024 0.281825
vn -0.925711 0.270416 0.264450
vn -0.961309 0.143740 0.234997
vn -0.961309 0.143740 0.234997
vn 0.908836 0.414939 -0.042919
vn 0.907649 0.419727 -0.001822
vn 0.990549 0.131870 -0.037724
vn 0.990549 0.131870 -0.037724
vn -0.841934 0.539497 0.009513
vn -0.836280 0.547623 0.027295
vn -0.998482 0.054178 0.009928
vn -0.998482 0.054178 0.009928
vn 0.748064 0.582321 -0.318280
vn 0.781301 0.526138 -0.335779
vn 0.924561 0.204025 -0.321808
vn 0.924561 0.204025 -0.321808
vn 0.822213 0.445691 -0.354013
vn 0.862167 0.439002 -0.252875
vn 0.935237 0.138102 -0.325975
vn 0.935237 0.138102 -0.325975
vn -0.842724 0.538332 -0.003890
vn -0.842321 0.538975 -0.001312
vn -0.998576 0.053210 -0.003848
vn -0.998576 0.053210 -0.003848
vn 0.966640 0.145364 -0.210893
vn 0.966640 0.145364 -0.210893
vn 0.978363 0.065301 -0.196322
vn 0.978363 0.065301 -0.196322
vn 0.977900 0.118661 0.172139
vn 0.977900 0.118661 0.172139
vn 0.991837 0.127234 0.008454
vn 0.982387 0.105876 0.153969
vn -0.903716 0.080146 -0.420565
vn -0.903716 0.080146 -0.420565
vn -0.903716 0.080146 -0.420565
vn -0.903716 0.080146 -0.420565
vn 0.946755 0.179593 0.267211
vn 0.946755 0.179593 0.267211
vn 0.966764 0.047235 0.251268
vn 0.966764 0.047235 0.251268
vn -0.866762 -0.020980 0.498280
vn -0.866762 -0.020980 0.498280
vn -0.852397 0.006120 0.522859
vn -0.869024 -0.007312 0.494716
vn -0.357123 0.377884 -0.854205
vn -0.357123 0.377884 -0.854205
vn -0.387784 0.336506 -0.858130
vn -0.387784 0.336506 -0.858130
vn 0.546840 0.360669 -0.755568
vn 0.546840 0.360669 -0.755568
vn 0.588658 0.296592 -0.752007
vn 0.588658 0.296592 -0.752007
vn -0.989269 0.077082 0.124116
vn -0.989269 0.077082 0.124116
vn -0.989269 0.077082 0.124116
vn -0.989269 0.077082 0.124116
vn -0.958120 0.254971 0.130367
vn -0.958120 0.254971 0.130367
vn -0.988304 0.088768 0.123995
vn -0.988304 0.088768 0.123995
vn -0.502946 0.413377 -0.759055
vn -0.502946 0.413377 -0.759055
vn -0.549172 0.330930 -0.767395
vn -0.549172 0.330930 -0.767395
vn 0.885134 0.349341 -0.307407
vn 0.885134 0.349341 -0.307407
vn 0.932791 0.200929 -0.299213
vn 0.932791 0.200929 -0.299213
vn 0.557451 0.307135 -0.771308
vn 0.557451 0.307135 -0.771308
vn 0.591814 0.279530 -0.756055
vn 0.591814 0.279530 -0.756055
vn 0.968880 0.137717 0.205682
vn 0.968880 0.137717 0.205682
vn 0.979967 0.055279 0.191334
vn 0.979967 0.055279 0.191334
vn 0.947166 0.172921 0.270138
vn 0.913997 0.284404 0.289351
vn 0.915999 0.307136 0.258096
vn 0.954143 0.167632 0.248012
vn 0.659088 0.267136 0.703023
vn 0.659088 0.267136 0.703023
vn 0.685054 0.296277 0.665524
vn 0.727177 0.254260 0.637625
vn -0.955533 0.069482 0.286582
vn -0.955533 0.069482 0.286582
vn -0.955533 0.069482 0.286582
vn -0.955533 0.069482 0.286582
vn -0.980225 0.049042 0.191713
vn -0.980225 0.049042 0.191713
vn -0.979474 0.071368 0.188512
vn -0.979334 0.074388 0.188071
vn 0.990549 0.131870 -0.037724
vn 0.990549 0.131870 -0.037724
vn 0.995998 0.082537 -0.034290
vn 0.996017 0.082310 -0.034295
vn -0.998482 0.054178 0.009928
vn -0.998482 0.054178 0.009928
vn -0.999689 0.023227 0.009133
vn -0.999689 0.023227 0.009133
vn 0.924561 0.204025 -0.321808
vn 0.924561 0.204025 -0.321808
vn 0.951216 0.063811 -0.301855
vn 0.951048 0.061836 -0.302795
vn 0.935237 0.138102 -0.325975
vn 0.935237 0.138102 -0.325975
vn 0.951539 0.037565 -0.305226
vn 0.951539 0.037565 -0.305226
vn -0.998576 0.053210 -0.003848
vn -0.998576 0.053210 -0.003848
vn -0.999108 0.042093 -0.003509
vn -0.998943 0.045826 -0.003504
vn 0.012212 0.999551 0.027345
vn 0.047091 0.998876 -0.005423
vn 0.047709 0.998860 0.001636
vn 0.030131 0.999097 0.029946
vn 0.047091 0.998876 -0.005423
vn 0.036139 0.999228 -0.015435
vn 0.039238 0.998979 -0.022396
vn 0.047709 0.998860 0.001636
vn 0.036139 0.999228 -0.015435
vn 0.032374 0.999451 -0.006982
vn 0.032374 0.999451 -0.006982
vn 0.039238 0.998979 -0.022396
vn -0.778696 0.485079 -0.397908
vn -0.548691 0.747662 -0.374084
vn -0.617667 0.685699 -0.385104
vn -0.778696 0.485079 -0.397908
vn -0.072996 0.997088 0.022056
vn 0.012212 0.999551 0.027345
vn 0.030131 0.999097 0.029946
vn -0.038660 0.999013 0.021882
vn -0.764953 0.391097 0.511753
vn -0.790039 0.134829 0.598046
vn -0.790039 0.134829 0.598046
vn -0.772014 0.356187 0.526427
vn -0.082870 0.996315 0.022101
vn -0.072996 0.997088 0.022056
vn -0.038660 0.999013 0.021882
vn -0.082870 0.996315 0.022101
vn 0.000000 1.000000 0.000000
vn 0.000000 1.000000 0.000000
vn 0.000000 1.000000 0.000000
vn 0.000000 1.000000 0.000000
vn -0.295325 0.672065 0.679052
vn -0.295325 0.672065 0.679052
vn -0.365041 0.339356 0.866939
vn -0.369715 0.336814 0.865949
vn -0.369715 0.336814 0.865949
vn -0.365041 0.339356 0.866939
vn -0.388153 0.326631 0.861771
vn -0.388153 0.326631 0.861771
vn 0.000000 1.000000 0.000000
vn 0.000000 1.000000 -0.000001
vn 0.000000 1.000000 0.000000
vn 0.630801 0.368647 0.682780
vn 0.763104 0.398774 0.508577
vn 0.822767 0.270115 0.500092
vn 0.685054 0.296277 0.665524
vn 0.685054 0.296277 0.665524
vn 0.822767 0.270115 0.500092
vn 0.840081 0.222771 0.494609
vn 0.727177 0.254260 0.637625
vn 0.000000 1.000000 0.000000
vn 0.000000 1.000000 0.000000
vn 0.000000 1.000000 0.000000
vn -0.979334 0.074388 0.188071
vn -0.979474 0.071368 0.188512
vn -0.964395 0.204889 0.167222
vn -0.964395 0.204889 0.167222
vn 0.441539 0.233792 0.866247
vn 0.441539 0.233792 0.866247
vn 0.441539 0.233792 0.866247
vn 0.441539 0.233792 0.866247
vn -0.592397 0.136376 -0.794020
vn -0.509617 0.185473 -0.840173
vn -0.509617 0.185473 -0.840173
vn -0.577191 0.145822 -0.803484
vn 0.996017 0.082310 -0.034295
vn 0.995998 0.082537 -0.034290
vn 0.968412 0.247537 -0.030062
vn 0.968412 0.247537 -0.030062
vn -0.676547 0.079935 -0.732048
vn -0.592397 0.136376 -0.794020
vn -0.577191 0.145822 -0.803484
vn -0.676547 0.079935 -0.732048
vn 0.982387 0.105876 0.153969
vn 0.991837 0.127234 0.008454
vn 0.984599 0.168953 -0.044932
vn 0.977508 0.148268 0.149983
vn -0.715903 0.067823 0.694898
vn -0.715903 0.067823 0.694898
vn -0.715903 0.067823 0.694898
vn -0.715903 0.067823 0.694898
vn 0.932479 0.186691 -0.309239
vn 0.932479 0.186692 -0.309238
vn 0.932479 0.186692 -0.309239
vn 0.932479 0.186691 -0.309239
vn -0.935015 0.211921 -0.284318
vn -0.935015 0.211921 -0.284318
vn -0.935015 0.211921 -0.284318
vn -0.935015 0.211921 -0.284318
vn -0.869024 -0.007312 0.494716
vn -0.852397 0.006120 0.522859
vn -0.825522 0.058728 0.561305
vn -0.876855 0.052773 0.477849
vn 0.932479 0.186692 -0.309238
vn 0.932479 0.186692 -0.309238
vn 0.932479 0.186692 -0.309238
vn 0.932479 0.186692 -0.309239
vn 0.000000 0.223902 0.974612
vn 0.000000 0.223902 0.974612
vn 0.000000 0.223902 0.974612
vn 0.000000 0.223902 0.974612
vn 0.634978 0.074050 -0.768973
vn 0.634979 0.074049 -0.768972
vn 0.634979 0.074049 -0.768972
vn 0.634978 0.074050 -0.768973
vn 0.000000 0.223902 0.974612
vn 0.000000 0.223902 0.974612
vn 0.000000 0.223902 0.974612
vn 0.000000 0.223902 0.974612
vn 0.952958 0.088894 -0.289773
vn 0.952958 0.088894 -0.289773
vn 0.952958 0.088894 -0.289773
vn 0.952958 0.088894 -0.289773
vn 0.634979 0.074049 -0.768972
vn 0.634981 0.074048 -0.768971
vn 0.634981 0.074048 -0.768971
vn 0.634979 0.074049 -0.768972
vn -0.998943 0.045826 -0.003504
vn -0.999108 0.042093 -0.003509
vn -0.987068 0.160268 -0.003312
vn -0.987068 0.160268 -0.003312
s off
g enviro_04:polySurface1
usemtl initialShadingGroup
f 38/1/1 37/2/2 39/3/3
f 96/4/4 95/5/5 97/6/6
f 41/7/7 39/3/8 37/2/9
f 41/7/10 42/8/11 39/3/12
f 43/9/13 44/10/14 40/11/15
f 98/12/16 97/6/17 95/5/18
f 45/13/19 44/10/20 43/9/21
f 97/6/22 99/14/23 100/15/24
f 46/16/25 48/17/26 49/18/27
f 46/16/28 45/13/29 50/19/30 51/20/31
f 52/21/32 47/22/33 46/16/34
f 46/16/35 53/23/36 52/21/37
f 53/23/38 46/16/39 49/18/40
f 44/10/41 45/13/42 46/16/43
f 97/6/44 98/12/45 99/14/46
f 50/19/47 45/13/48 43/9/49
f 51/20/50 48/17/51 46/16/52
f 54/24/53 55/25/54 38/1/55 39/3/56
f 56/26/57 57/27/58 83/28/59 89/29/60
f 83/28/61 82/30/62 88/31/63
f 58/32/64 57/27/65 56/26/66
f 59/33/67 54/24/68 39/3/69
f 42/8/70 59/33/71 39/3/72
f 101/34/73 102/35/74 103/36/75 104/37/76
f 63/38/77 62/39/78 64/40/79
f 90/41/80 91/42/81 92/43/82
f 93/44/83 90/41/84 92/43/85
f 92/43/86 94/45/87 93/44/88
f 57/27/89 58/32/90 60/46/91
f 103/36/92 102/35/93 105/47/94
f 62/39/95 61/48/96 64/40/97
f 104/37/98 106/49/99 101/34/100
f 2/50/101 1/51/102 17/52/103 18/53/104
f 1/51/105 3/54/106 19/55/107 17/52/108
f 66/56/109 65/57/110 71/58/111 72/59/112
f 3/54/113 4/60/114 22/61/115 19/55/116
f 67/62/117 66/56/118 72/59/119 73/63/120
f 5/64/121 6/65/122 25/66/123 24/67/124
f 7/68/125 8/69/126 27/70/127 26/71/128
f 68/72/129 67/62/130 73/63/131 74/73/132
f 10/74/133 9/75/134 28/76/135 29/77/136
f 6/65/137 10/74/138 29/77/139 25/66/140
f 4/60/141 7/68/142 26/71/143 22/61/144
f 8/69/145 5/64/146 24/67/147 27/70/148
f 11/78/149 2/50/150 18/53/151 30/79/152
f 87/80/153 85/81/154 12/82/155 31/83/156
f 80/84/157 78/85/158 84/86/159 86/87/160
f 65/57/161 69/88/162 75/89/163 71/58/164
f 69/88/165 70/90/166 76/91/167 75/89/168
f 16/92/169 11/78/170 30/79/171 36/93/172
f 13/94/173 77/95/174 79/96/175 33/97/176
f 12/82/177 14/98/178 34/99/179 31/83/180
f 14/98/181 16/92/182 36/93/183 34/99/184
f 15/100/185 13/94/186 33/97/187 35/101/188
f 18/53/189 17/52/190 37/2/191 38/1/192
f 17/52/193 19/55/194 40/11/195 37/2/196
f 20/102/197 21/103/198 42/8/199 41/7/200
f 19/55/201 22/61/202 43/9/203 40/11/204
f 23/104/205 20/102/206 41/7/207 47/22/208
f 24/67/209 25/66/210 49/18/211 48/17/212
f 26/71/213 27/70/214 51/20/215 50/19/216
f 28/76/217 23/104/218 47/22/219 52/21/220
f 29/77/221 28/76/222 52/21/223 53/23/224
f 25/66/225 29/77/226 53/23/227 49/18/228
f 22/61/229 26/71/230 50/19/231 43/9/232
f 27/70/233 24/67/234 48/17/235 51/20/236
f 30/79/237 18/53/238 38/1/239 55/25/240
f 89/29/241 87/80/242 31/83/243 56/26/244
f 82/30/245 80/84/246 86/87/247 88/31/248
f 21/103/249 32/105/250 59/33/251 42/8/252
f 32/105/253 35/101/254 63/38/255 59/33/256
f 36/93/257 30/79/258 55/25/259 64/40/260
f 33/97/261 79/96/262 81/106/263 60/46/264
f 31/83/265 34/99/266 61/48/267 56/26/268
f 34/99/269 36/93/270 64/40/271 61/48/272
f 35/101/273 33/97/274 60/46/275 63/38/276
f 21/103/277 20/102/278 72/59/279 71/58/280
f 20/102/281 23/104/282 73/63/283 72/59/284
f 23/104/285 28/76/286 74/73/287 73/63/288
f 28/76/289 9/75/290 68/72/291 74/73/292
f 32/105/293 21/103/294 71/58/295 75/89/296
f 15/100/297 35/101/298 76/91/299 70/90/300
f 35/101/301 32/105/302 75/89/303 76/91/304
f 81/106/305 83/28/306 57/27/307 60/46/308
f 77/95/309 78/85/310 80/84/311 79/96/312
f 79/96/313 80/84/314 82/30/315 81/106/316
f 81/106/317 82/30/318 83/28/319
f 84/86/320 85/81/321 87/80/322 86/87/323
f 86/87/324 87/80/325 89/29/326 88/31/327
f 88/31/328 89/29/329 83/28/330
f 59/33/331 63/38/332 91/42/333 90/41/334
f 63/38/335 64/40/336 92/43/337 91/42/338
f 54/24/339 59/33/340 90/41/341 93/44/342
f 64/40/343 55/25/344 94/45/345 92/43/346
f 55/25/347 54/24/348 93/44/349 94/45/350
f 37/2/351 40/11/352 95/5/353 96/4/354
f 41/7/355 37/2/356 96/4/357 97/6/358
f 40/11/359 44/10/360 98/12/361 95/5/362
f 46/16/363 47/22/364 100/15/365 99/14/366
f 47/22/367 41/7/368 97/6/369 100/15/370
f 44/10/371 46/16/372 99/14/373 98/12/374
f 60/46/375 58/32/376 102/35/377 101/34/378
f 61/48/379 62/39/380 104/37/381 103/36/382
f 58/32/383 56/26/384 105/47/385 102/35/386
f 56/26/387 61/48/388 103/36/389 105/47/390
f 62/39/391 63/38/392 106/49/393 104/37/394
f 63/38/395 60/46/396 101/34/397 106/49/398
