# This file uses centimeters as units for non-parametric coordinates.

mtllib tripleHexSingle_01.mtl
g default
v -1.000046 1.027513 -0.000097
v -0.500046 1.027513 -0.866122
v 0.500000 1.027513 -0.866025
v -0.500000 1.027513 0.866025
v 0.500000 1.027513 0.866025
v 1.000000 1.027513 0.000000
v 0.000000 1.027513 0.000000
vt 0.988989 0.502193
vt 0.730119 0.998779
vt 0.501804 0.502319
vt 0.229892 0.998778
vt 0.006391 0.502260
vt 0.275384 0.001734
vt 0.757756 0.001899
vn 0.000000 1.000000 0.000000
vn 0.000000 1.000000 0.000000
vn 0.000000 1.000000 0.000000
vn 0.000000 1.000000 0.000000
vn 0.000000 1.000000 0.000000
vn 0.000000 1.000000 0.000000
vn 0.000000 1.000000 0.000000
vn 0.000000 1.000000 0.000000
vn 0.000000 1.000000 0.000000
vn 0.000000 1.000000 0.000000
vn 0.000000 1.000000 0.000000
vn 0.000000 1.000000 0.000000
vn 0.000000 1.000000 0.000000
vn 0.000000 1.000000 0.000000
vn 0.000000 1.000000 0.000000
vn 0.000000 1.000000 0.000000
vn 0.000000 1.000000 0.000000
vn 0.000000 1.000000 0.000000
s off
g pCylinder5
usemtl initialShadingGroup
f 3/1/1 2/2/2 7/3/3
f 2/2/4 1/4/5 7/3/6
f 1/4/7 4/5/8 7/3/9
f 4/5/10 5/6/11 7/3/12
f 5/6/13 6/7/14 7/3/15
f 6/7/16 3/1/17 7/3/18
