# This file uses centimeters as units for non-parametric coordinates.

mtllib tripleHexCorner_02.mtl
g default
v -1.000046 1.027513 -0.000097
v -0.500046 1.027513 -0.866122
v 0.500000 1.027513 -0.866025
v -0.500000 1.027513 0.866025
v 0.500000 1.027513 0.866025
v 1.000000 1.027513 0.000000
v 0.000000 1.027513 0.000000
vt 1.002802 -0.010036
vt 0.999395 0.998779
vt 0.534223 0.489613
vt -0.001540 0.998778
vt -0.001551 0.636551
vt -0.001546 0.324771
vt -0.001506 -0.005765
vn 0.000000 1.000000 0.000000
vn 0.000000 1.000000 0.000000
vn 0.000000 1.000000 0.000000
vn 0.000000 1.000000 0.000000
vn 0.000000 1.000000 0.000000
vn 0.000000 1.000000 0.000000
vn 0.000000 1.000000 0.000000
vn 0.000000 1.000000 0.000000
vn 0.000000 1.000000 0.000000
vn 0.000000 1.000000 0.000000
vn 0.000000 1.000000 0.000000
vn 0.000000 1.000000 0.000000
vn 0.000000 1.000000 0.000000
vn 0.000000 1.000000 0.000000
vn 0.000000 1.000000 0.000000
vn 0.000000 1.000000 0.000000
vn 0.000000 1.000000 0.000000
vn 0.000000 1.000000 0.000000
s off
g pCylinder5
usemtl initialShadingGroup
f 3/1/1 2/2/2 7/3/3
f 2/2/4 1/4/5 7/3/6
f 1/4/7 4/5/8 7/3/9
f 4/5/10 5/6/11 7/3/12
f 5/6/13 6/7/14 7/3/15
f 6/7/16 3/1/17 7/3/18
