# This file uses centimeters as units for non-parametric coordinates.

mtllib grassField_01.mtl
g default
v -0.500000 -0.006199 -0.242454
v 0.500000 -0.006199 -0.242454
v -0.500000 0.503184 -1.605717
v 0.500000 0.503184 -1.605717
v 0.105704 -0.006541 0.639434
v 0.819839 -0.006530 0.246958
v 0.105704 0.346978 -0.334670
v 0.819839 0.349072 -0.727146
v 0.753193 -0.006537 -0.054348
v 1.560665 -0.006534 -0.163981
v 0.753193 0.347733 -1.028452
v 1.560665 0.348318 -1.138085
v 1.308784 -0.006534 -0.870506
v 2.114108 -0.006537 -0.746071
v 1.308784 0.348357 -1.844609
v 2.114108 0.347693 -1.720174
v 1.304345 -0.006536 0.418370
v 2.118547 -0.006535 0.385110
v 1.304345 0.347936 -0.555734
v 2.118547 0.348114 -0.588994
v 1.267491 -0.006195 -0.403134
v 2.229930 -0.006203 -0.131640
v 1.267491 0.503909 -1.766397
v 2.229930 0.502460 -1.494904
v 0.213072 -0.006538 -0.539013
v 1.014106 -0.006533 -0.688595
v 0.213072 0.347626 -1.513116
v 1.014106 0.348424 -1.662698
v -1.873809 -0.006541 0.546651
v -1.159674 -0.006530 0.154174
v -1.873809 0.346978 -0.427453
v -1.159674 0.349072 -0.819930
v -1.515359 -0.006534 -0.193460
v -0.705336 -0.006537 -0.104610
v -1.515359 0.348262 -1.167562
v -0.705336 0.347788 -1.078714
v -0.670728 -0.006534 -0.541517
v 0.134596 -0.006537 -0.417082
v -0.670728 0.348357 -1.515620
v 0.134596 0.347693 -1.391186
v -0.669392 -0.006533 0.037019
v 0.133260 -0.006537 0.177663
v -0.669392 0.348400 -0.937085
v 0.133260 0.347650 -0.796441
v -1.351787 -0.006533 -0.683136
v -0.548791 -0.006537 -0.544472
v -1.351787 0.348395 -1.657238
v -0.548791 0.347655 -1.518574
v -1.231545 -0.006533 0.436736
v -0.428893 -0.006537 0.577380
v -1.231545 0.348400 -0.537367
v -0.428893 0.347650 -0.396723
v 0.646023 -0.006266 0.708383
v 1.167634 -0.006265 0.675069
v 0.646023 0.252060 -0.001020
v 1.167634 0.252238 -0.034335
v -0.426020 -0.006269 0.829470
v 0.032034 -0.006262 0.577731
v -0.426020 0.251477 0.120067
v 0.032034 0.252820 -0.131672
v 0.937140 -0.006264 0.549111
v 1.451970 -0.006267 0.639322
v 0.937140 0.252389 -0.160292
v 1.451970 0.251908 -0.070082
v 1.518395 -0.006268 0.647545
v 2.002080 -0.006262 0.449466
v 1.518395 0.251620 -0.061858
v 2.002080 0.252677 -0.259937
v -2.057883 -0.006266 0.631656
v -1.536272 -0.006265 0.598342
v -2.057883 0.252060 -0.077747
v -1.536272 0.252238 -0.111062
v -1.147691 -0.006268 0.842303
v -0.653731 -0.006263 0.671454
v -1.147691 0.251693 0.132900
v -0.653731 0.252605 -0.037950
v -0.107033 -0.006264 0.733634
v 0.407035 -0.006267 0.828085
v -0.107033 0.252401 0.024230
v 0.407035 0.251897 0.118682
v -2.251158 -0.006539 -0.177506
v -1.472974 -0.006532 -0.419290
v -2.251158 0.347380 -1.151610
v -1.472974 0.348670 -1.393394
v -2.190407 -0.006264 0.092036
v -1.674710 -0.006266 0.177147
v -2.190407 0.252376 -0.617368
v -1.674710 0.251922 -0.532256
v 0.067128 -0.006271 0.382406
v 0.380952 -0.006259 -0.035562
v 0.067128 0.251033 -0.326998
v 0.380952 0.253264 -0.744966
v 0.310132 -0.006270 0.242164
v 0.713401 -0.006260 -0.090339
v 0.310132 0.251261 -0.467239
v 0.713401 0.253036 -0.799743
v -1.228691 -0.006267 0.135764
v -0.719910 -0.006264 0.016061
v -1.228691 0.251829 -0.573640
v -0.719910 0.252468 -0.693342
vt 0.005614 0.005623
vt 0.994386 0.005623
vt 0.994386 0.500009
vt 0.005614 0.500009
vt 0.005614 0.005623
vt 0.994386 0.005623
vt 0.994386 0.500009
vt 0.005614 0.500009
vt 0.005614 0.501601
vt 0.994386 0.501601
vt 0.994386 0.995987
vt 0.005614 0.995987
vt 0.005614 0.501601
vt 0.994386 0.501601
vt 0.994386 0.995987
vt 0.005614 0.995987
vt 0.005614 0.005623
vt 0.994386 0.005623
vt 0.994386 0.500009
vt 0.005614 0.500009
vt 0.005614 0.005623
vt 0.994386 0.005623
vt 0.994386 0.500009
vt 0.005614 0.500009
vt 0.005614 0.005623
vt 0.994386 0.005623
vt 0.994386 0.500009
vt 0.005614 0.500009
vt 0.005614 0.005623
vt 0.994386 0.005623
vt 0.994386 0.500009
vt 0.005614 0.500009
vt 0.005614 0.501601
vt 0.994386 0.501601
vt 0.994386 0.995987
vt 0.005614 0.995987
vt 0.005614 0.501601
vt 0.994386 0.501601
vt 0.994386 0.995987
vt 0.005614 0.995987
vt 0.005614 0.005623
vt 0.994386 0.005623
vt 0.994386 0.500009
vt 0.005614 0.500009
vt 0.005614 0.005623
vt 0.994386 0.005623
vt 0.994386 0.500009
vt 0.005614 0.500009
vt 0.005614 0.501601
vt 0.994386 0.501601
vt 0.994386 0.995987
vt 0.005614 0.995987
vt 0.005614 0.005623
vt 0.994386 0.005623
vt 0.994386 0.500009
vt 0.005614 0.500009
vt 0.005614 0.005623
vt 0.994386 0.005623
vt 0.994386 0.500009
vt 0.005614 0.500009
vt 0.005614 0.501601
vt 0.994386 0.501601
vt 0.994386 0.995987
vt 0.005614 0.995987
vt 0.005614 0.005623
vt 0.994386 0.005623
vt 0.994386 0.500009
vt 0.005614 0.500009
vt 0.005614 0.005623
vt 0.994386 0.005623
vt 0.994386 0.500009
vt 0.005614 0.500009
vt 0.005614 0.005623
vt 0.994386 0.005623
vt 0.994386 0.500009
vt 0.005614 0.500009
vt 0.005614 0.501601
vt 0.994386 0.501601
vt 0.994386 0.995987
vt 0.005614 0.995987
vt 0.005614 0.005623
vt 0.994386 0.005623
vt 0.994386 0.500009
vt 0.005614 0.500009
vt 0.005614 0.501601
vt 0.994386 0.501601
vt 0.994386 0.995987
vt 0.005614 0.995987
vt 0.005614 0.005623
vt 0.994386 0.005623
vt 0.994386 0.500009
vt 0.005614 0.500009
vt 0.005614 0.501601
vt 0.994386 0.501601
vt 0.994386 0.995987
vt 0.005614 0.995987
vt 0.005614 0.005623
vt 0.994386 0.005623
vt 0.994386 0.500009
vt 0.005614 0.500009
vn 0.000000 -0.005337 0.999986
vn 0.000000 -0.005337 0.999986
vn 0.000000 -0.005337 0.999986
vn 0.000000 -0.005337 0.999986
vn 0.481643 -0.004677 0.876355
vn 0.481643 -0.004677 0.876355
vn 0.481643 -0.004677 0.876355
vn 0.481643 -0.004677 0.876355
vn 0.134540 -0.005288 0.990894
vn 0.134540 -0.005288 0.990894
vn 0.134540 -0.005288 0.990894
vn 0.134540 -0.005288 0.990894
vn -0.152705 -0.005274 0.988258
vn -0.152705 -0.005274 0.988258
vn -0.152705 -0.005274 0.988258
vn -0.152705 -0.005274 0.988258
vn 0.040816 -0.005332 0.999153
vn 0.040816 -0.005332 0.999153
vn 0.040816 -0.005332 0.999153
vn 0.040816 -0.005332 0.999153
vn -0.271498 -0.005136 0.962425
vn -0.271498 -0.005136 0.962425
vn -0.271498 -0.005136 0.962425
vn -0.271498 -0.005136 0.962425
vn 0.183566 -0.005246 0.982993
vn 0.183566 -0.005246 0.982993
vn 0.183566 -0.005246 0.982993
vn 0.183566 -0.005246 0.982993
vn 0.481644 -0.004677 0.876355
vn 0.481644 -0.004677 0.876355
vn 0.481643 -0.004677 0.876355
vn 0.481643 -0.004677 0.876355
vn -0.109036 -0.005305 0.994024
vn -0.109036 -0.005305 0.994024
vn -0.109036 -0.005305 0.994024
vn -0.109036 -0.005305 0.994024
vn -0.152705 -0.005274 0.988258
vn -0.152705 -0.005274 0.988258
vn -0.152705 -0.005274 0.988258
vn -0.152705 -0.005274 0.988258
vn -0.172597 -0.005256 0.984978
vn -0.172597 -0.005256 0.984978
vn -0.172597 -0.005256 0.984978
vn -0.172597 -0.005256 0.984978
vn -0.170167 -0.005259 0.985401
vn -0.170167 -0.005259 0.985401
vn -0.170167 -0.005259 0.985401
vn -0.170167 -0.005259 0.985401
vn -0.172597 -0.005257 0.984978
vn -0.172597 -0.005257 0.984978
vn -0.172597 -0.005257 0.984978
vn -0.172597 -0.005257 0.984978
vn 0.063739 -0.005326 0.997952
vn 0.063739 -0.005326 0.997952
vn 0.063739 -0.005326 0.997952
vn 0.063739 -0.005326 0.997952
vn 0.481644 -0.004677 0.876355
vn 0.481644 -0.004677 0.876355
vn 0.481644 -0.004677 0.876355
vn 0.481644 -0.004677 0.876355
vn -0.172597 -0.005256 0.984978
vn -0.172597 -0.005256 0.984978
vn -0.172597 -0.005256 0.984978
vn -0.172597 -0.005256 0.984978
vn 0.378978 -0.004938 0.925393
vn 0.378978 -0.004938 0.925393
vn 0.378978 -0.004938 0.925393
vn 0.378978 -0.004938 0.925393
vn 0.063740 -0.005326 0.997952
vn 0.063740 -0.005326 0.997952
vn 0.063740 -0.005326 0.997952
vn 0.063740 -0.005326 0.997952
vn 0.326880 -0.005043 0.945052
vn 0.326880 -0.005043 0.945052
vn 0.326880 -0.005043 0.945052
vn 0.326880 -0.005043 0.945052
vn -0.180710 -0.005249 0.983522
vn -0.180710 -0.005249 0.983522
vn -0.180710 -0.005249 0.983522
vn -0.180710 -0.005249 0.983522
vn 0.296715 -0.005096 0.954952
vn 0.296715 -0.005096 0.954952
vn 0.296715 -0.005096 0.954952
vn 0.296715 -0.005096 0.954952
vn -0.162841 -0.005265 0.986638
vn -0.162841 -0.005265 0.986638
vn -0.162841 -0.005265 0.986638
vn -0.162841 -0.005265 0.986638
vn 0.799684 -0.003204 0.600412
vn 0.799684 -0.003204 0.600412
vn 0.799684 -0.003204 0.600412
vn 0.799684 -0.003204 0.600412
vn 0.636168 -0.004117 0.771540
vn 0.636168 -0.004117 0.771540
vn 0.636168 -0.004117 0.771540
vn 0.636168 -0.004117 0.771540
vn 0.229024 -0.005195 0.973407
vn 0.229024 -0.005195 0.973407
vn 0.229024 -0.005195 0.973407
vn 0.229024 -0.005195 0.973407
s off
g pPlane32
usemtl initialShadingGroup
f 1/1/1 2/2/2 4/3/3 3/4/4
f 5/5/5 6/6/6 8/7/7 7/8/8
f 9/9/9 10/10/10 12/11/11 11/12/12
f 13/13/13 14/14/14 16/15/15 15/16/16
f 17/17/17 18/18/18 20/19/19 19/20/20
f 21/21/21 22/22/22 24/23/23 23/24/24
f 25/25/25 26/26/26 28/27/27 27/28/28
f 29/29/29 30/30/30 32/31/31 31/32/32
f 33/33/33 34/34/34 36/35/35 35/36/36
f 37/37/37 38/38/38 40/39/39 39/40/40
f 41/41/41 42/42/42 44/43/43 43/44/44
f 45/45/45 46/46/46 48/47/47 47/48/48
f 49/49/49 50/50/50 52/51/51 51/52/52
f 53/53/53 54/54/54 56/55/55 55/56/56
f 57/57/57 58/58/58 60/59/59 59/60/60
f 61/61/61 62/62/62 64/63/63 63/64/64
f 65/65/65 66/66/66 68/67/67 67/68/68
f 69/69/69 70/70/70 72/71/71 71/72/72
f 73/73/73 74/74/74 76/75/75 75/76/76
f 77/77/77 78/78/78 80/79/79 79/80/80
f 81/81/81 82/82/82 84/83/83 83/84/84
f 85/85/85 86/86/86 88/87/87 87/88/88
f 89/89/89 90/90/90 92/91/91 91/92/92
f 93/93/93 94/94/94 96/95/95 95/96/96
f 97/97/97 98/98/98 100/99/99 99/100/100
